<svg width="28" height="33" viewBox="0 0 28 33" fill="none" xmlns="http://www.w3.org/2000/svg">
<path d="M18.7745 13.2973C18.7087 13.1861 18.5887 13.1181 18.4599 13.1181H15.1669V7.6298C15.1669 7.46222 15.0535 7.3166 14.8918 7.27562C14.7301 7.23464 14.5603 7.30855 14.4805 7.4549L10.0899 15.5044C10.0285 15.617 10.0306 15.7554 10.0965 15.8658C10.1616 15.9771 10.2816 16.0451 10.4104 16.0451H13.7034V21.5334C13.7034 21.701 13.8168 21.8466 13.9785 21.8876C14.0085 21.8956 14.0393 21.8993 14.0693 21.8993C14.201 21.8993 14.3254 21.8276 14.3905 21.7083L18.7811 13.6588C18.8426 13.5461 18.8404 13.4078 18.7745 13.2973Z" fill="#48E1D2"/>
<path d="M13.4601 32.5992C13.7447 32.7979 14.0857 32.9047 14.4354 32.9047C14.7852 32.9047 15.1262 32.7979 15.4108 32.5992C15.922 32.2456 27.9376 23.7625 27.8888 13.173C27.8888 5.91983 21.8533 0.0183105 14.4354 0.0183105C7.01758 0.0183105 0.982047 5.91983 0.982047 13.1648C0.933278 23.7625 12.9488 32.2456 13.4601 32.5992ZM14.4354 2.60308C20.0001 2.60308 25.3147 7.72366 25.3147 13.173C25.35 20.4705 17.1463 27.7687 14.4354 29.9178C11.7263 27.767 3.71845 20.4673 3.75377 13.1648C3.75377 7.72366 8.87078 2.60308 14.4354 2.60308Z" fill="#44B7B3"/>
</svg>
