<svg width="27" height="31" viewBox="0 0 27 31" fill="none" xmlns="http://www.w3.org/2000/svg">
<path d="M2.59969 12.5653C2.65434 11.8844 2.96347 11.249 3.46551 10.7857C3.96756 10.3225 4.62568 10.0653 5.3088 10.0654H21.6912C22.3743 10.0653 23.0324 10.3225 23.5345 10.7857C24.0365 11.249 24.3457 11.8844 24.4003 12.5653L25.4913 26.1516C25.5213 26.5255 25.4736 26.9016 25.3511 27.2561C25.2287 27.6106 25.0341 27.936 24.7798 28.2117C24.5254 28.4873 24.2167 28.7074 23.8732 28.8579C23.5296 29.0084 23.1586 29.0862 22.7835 29.0863H4.21646C3.84138 29.0862 3.47037 29.0084 3.12681 28.8579C2.78325 28.7074 2.47458 28.4873 2.22022 28.2117C1.96586 27.936 1.77133 27.6106 1.64888 27.2561C1.52643 26.9016 1.4787 26.5255 1.50871 26.1516L2.59969 12.5653V12.5653Z" stroke="#318C88" stroke-width="2.71726" stroke-linecap="round" stroke-linejoin="round"/>
<path d="M18.9355 14.1418V7.34859C18.9355 5.90727 18.3629 4.52497 17.3437 3.5058C16.3246 2.48663 14.9423 1.91406 13.5009 1.91406C12.0596 1.91406 10.6773 2.48663 9.65814 3.5058C8.63897 4.52497 8.06641 5.90727 8.06641 7.34859V14.1418" stroke="#318C88" stroke-width="2.71726" stroke-linecap="round" stroke-linejoin="round"/>
</svg>
