<svg width="30" height="29" viewBox="0 0 30 29" fill="none" xmlns="http://www.w3.org/2000/svg">
<path d="M1.6499 7.21223V6.01032H0.447991V7.21223H1.6499ZM4.05373 28.4612H26.1893V26.0574H4.05373V28.4612ZM29.7951 24.8555V9.61606H27.3913V24.8555H29.7951ZM0.447991 7.21223V24.8555H2.85181V7.21223H0.447991ZM26.1893 6.01032H1.6499V8.41415H26.1893V6.01032ZM29.7951 9.61606C29.7951 7.62467 28.1807 6.01032 26.1893 6.01032V8.41415C26.8531 8.41415 27.3913 8.95226 27.3913 9.61606H29.7951ZM26.1893 28.4612C28.1807 28.4612 29.7951 26.8469 29.7951 24.8555H27.3913C27.3913 25.5193 26.8531 26.0574 26.1893 26.0574V28.4612ZM4.05373 26.0574C3.38993 26.0574 2.85181 25.5193 2.85181 24.8555H0.447991C0.447991 26.8469 2.06233 28.4612 4.05373 28.4612V26.0574Z" fill="#44B7B3"/>
<path d="M1.6499 7.431V4.00294C1.6499 2.67535 2.72613 1.59912 4.05372 1.59912H20.2019C21.5295 1.59912 22.6058 2.67535 22.6058 4.00294V8.01418" stroke="#44B7B3" stroke-width="2.40382"/>
<circle cx="23.8888" cy="17.2358" r="1.76414" fill="#44B7B3"/>
</svg>
