<svg width="39" height="20" viewBox="0 0 39 20" fill="none" xmlns="http://www.w3.org/2000/svg">
<path d="M1.51623 16.4917L1.4509 17.0245C1.44406 17.0817 1.44816 17.1397 1.46296 17.1952C1.47776 17.2507 1.50296 17.3026 1.53712 17.348C1.57128 17.3933 1.61372 17.4311 1.66199 17.4593C1.71026 17.4874 1.7634 17.5053 1.81836 17.512H18.4521C18.5079 17.5128 18.5632 17.5021 18.615 17.4805C18.6668 17.459 18.714 17.4271 18.7539 17.3865C18.7939 17.346 18.8258 17.2977 18.8478 17.2443C18.8698 17.191 18.8814 17.1336 18.8822 17.0755C18.8836 17.0576 18.8836 17.0396 18.8822 17.0217L18.8141 16.4889C18.795 16.2895 18.8524 16.0903 18.9738 15.9347C19.0951 15.7792 19.2706 15.6799 19.4619 15.6584C19.5558 15.6478 19.6507 15.6565 19.7413 15.6841C19.8319 15.7117 19.9164 15.7576 19.9899 15.8192C20.0635 15.8808 20.1246 15.9568 20.17 16.0431C20.2153 16.1293 20.2438 16.2239 20.254 16.3216L20.3193 16.8403C20.4473 17.9938 19.8185 19.0085 18.6862 19.0085H1.63599C0.514555 19.0085 -0.111489 17.9938 0.0164414 16.8403L0.0817678 16.3216C0.091283 16.2244 0.119126 16.1302 0.163702 16.0442C0.208277 15.9582 0.268709 15.8822 0.341533 15.8206C0.414357 15.759 0.498142 15.713 0.588086 15.6851C0.67803 15.6573 0.772365 15.6482 0.865684 15.6584C1.05726 15.6806 1.23272 15.7805 1.354 15.9365C1.47528 16.0925 1.53259 16.292 1.5135 16.4917" fill="#FF0000"/>
<path d="M16.8423 12.8158C17.1917 12.8357 17.5344 12.7076 17.7951 12.4597C18.0558 12.2118 18.2133 11.8641 18.2331 11.4931C18.2344 11.4687 18.2344 11.4444 18.2331 11.42C18.2173 10.6028 17.5165 10.0749 16.7365 10.0721H15.1579C14.9826 10.0721 14.8144 9.99811 14.6904 9.86645C14.5665 9.73478 14.4968 9.55621 14.4968 9.37001C14.4968 9.18381 14.5665 9.00524 14.6904 8.87357C14.8144 8.74191 14.9826 8.66794 15.1579 8.66794H16.2156C16.9269 8.63705 17.4742 8.17931 17.5086 7.46881C17.543 6.70216 16.9242 6.12927 16.1706 6.12927H13.611V12.8045H16.8423V12.8158ZM18.7805 7.46881C18.7816 7.76174 18.7277 8.05196 18.6219 8.32248C18.5161 8.593 18.3606 8.83838 18.1644 9.04425L18.1247 9.09199L18.1776 9.12569C18.5643 9.35402 18.8891 9.6843 19.1207 10.0847C19.3522 10.4851 19.4828 10.9421 19.4997 11.4116C19.5089 12.1531 19.2416 12.8683 18.7562 13.4013C18.2707 13.9342 17.6064 14.2416 16.9084 14.2564H12.942C12.7585 14.2534 12.5835 14.1736 12.4552 14.0341C12.3269 13.8947 12.2557 13.7071 12.2572 13.5122V5.50022C12.2557 5.40194 12.2729 5.30436 12.3076 5.21323C12.3422 5.1221 12.3938 5.03928 12.4591 4.96965C12.5244 4.90002 12.6022 4.84499 12.6879 4.80782C12.7735 4.77065 12.8653 4.75208 12.9579 4.75322H16.1706C16.8437 4.73357 17.4967 4.99848 17.986 5.48975C18.4754 5.98102 18.7611 6.65848 18.7805 7.37333V7.466" fill="#1D1D1B"/>
<path d="M5.96348 11.5042L5.98248 11.5603L6.00149 11.5042C6.18611 10.9771 6.41146 10.3827 6.64766 9.7575C6.88387 9.13228 7.13636 8.44818 7.378 7.83697C7.61964 7.22576 7.85584 6.66503 8.07848 6.18279C8.22504 5.8269 8.40701 5.4877 8.62148 5.17066C8.72598 5.03665 8.85894 4.92928 9.01007 4.85684C9.16119 4.7844 9.32643 4.74884 9.493 4.75291H9.65862C9.84689 4.7448 10.0318 4.80645 10.1799 4.92674C10.2936 5.0241 10.3673 5.16236 10.3862 5.31365L11.4207 13.5845C11.4249 13.6761 11.4114 13.7676 11.3811 13.8537C11.3508 13.9399 11.3043 14.019 11.2442 14.0864C11.1041 14.2075 10.9241 14.2678 10.7419 14.2546C10.5559 14.2654 10.3719 14.21 10.2206 14.0976C10.1538 14.0505 10.0976 13.989 10.0559 13.9174C10.0142 13.8458 9.98796 13.7657 9.97899 13.6827C9.94369 13.4023 9.91383 13.1023 9.88125 12.7659C9.84867 12.4294 9.6749 10.9911 9.62875 10.6238C9.58259 10.2566 9.29752 7.91547 9.19706 7.06595V6.99306L8.86583 7.7108C8.75451 7.95753 8.63234 8.25192 8.4993 8.59677C8.36627 8.94163 8.2278 9.30611 8.1002 9.69302C7.97259 10.0799 7.31556 11.9528 7.31556 11.9528C7.25583 12.1238 7.1418 12.4687 7.04405 12.7939C6.94631 13.1191 6.84586 13.3967 6.82142 13.45C6.7094 13.6763 6.51492 13.8475 6.28072 13.9258C6.04652 14.0042 5.79179 13.9833 5.57252 13.8677C5.39403 13.7757 5.24855 13.6274 5.15712 13.4444C5.12997 13.3911 5.03766 13.1051 4.93177 12.7883C4.82589 12.4715 4.72272 12.1294 4.66027 11.9472C4.66027 11.9472 4.02224 10.0575 3.87835 9.68741C3.73445 9.31732 3.60685 8.93882 3.47924 8.59116C3.35163 8.24351 3.22131 7.95192 3.11271 7.7052L2.77877 6.99586V7.06876C2.67831 7.90987 2.39052 10.2538 2.34436 10.6266C2.29821 10.9995 2.12988 12.4238 2.09187 12.7575C2.05386 13.0911 2.02399 13.3995 1.99141 13.6743C1.98244 13.7573 1.9562 13.8374 1.9145 13.909C1.8728 13.9806 1.81661 14.0421 1.74977 14.0892C1.59926 14.201 1.41633 14.2563 1.23121 14.2462C1.05074 14.2588 0.872601 14.1985 0.734359 14.078C0.674247 14.0106 0.627695 13.9315 0.597401 13.8453C0.567108 13.7592 0.553675 13.6677 0.557883 13.5761L1.57873 5.31365C1.60242 5.1681 1.67676 5.03649 1.78779 4.94356C1.93326 4.81656 2.11862 4.74876 2.30907 4.75291H2.47468C2.63968 4.74869 2.80343 4.78336 2.9535 4.85429C3.10358 4.92522 3.23602 5.03054 3.34077 5.16225C3.55623 5.47865 3.73827 5.81796 3.88378 6.17438C4.10641 6.65661 4.3399 7.20801 4.58425 7.82856C4.8286 8.44911 5.07295 9.08929 5.3173 9.74909C5.55351 10.3827 5.77614 10.9687 5.96076 11.4958" fill="#1D1D1B"/>
<path d="M3.90203 0.00838022H16.4312C17.612 0.00838022 18.1998 0.921825 18.3271 2.12858L18.3812 2.51407C18.4026 2.71362 18.3465 2.91377 18.2252 3.07079C18.1039 3.22781 17.9273 3.32894 17.7339 3.35209C17.5442 3.3676 17.3561 3.30533 17.2106 3.17877C17.0651 3.05222 16.9738 2.8716 16.9566 2.67609L16.9024 2.30456C16.851 1.84644 16.6641 1.49168 16.2118 1.49168H4.12412C3.67181 1.49168 3.48493 1.84644 3.43076 2.30456L3.38201 2.6705C3.36481 2.86632 3.27306 3.04713 3.12685 3.17332C2.98065 3.2995 2.79191 3.36077 2.60199 3.34371C2.5061 3.3326 2.41328 3.3021 2.32884 3.25395C2.24439 3.20581 2.16998 3.14096 2.10986 3.06313C2.04973 2.98529 2.00508 2.89599 1.97845 2.80034C1.95183 2.70469 1.94375 2.60456 1.95467 2.50569L2.00613 2.1202C2.14697 0.916238 2.73199 0 3.90203 0" fill="#FF0000"/>
<path d="M26.4713 8.43796C26.3843 8.76992 26.2945 9.12616 26.1993 9.51749C26.1041 9.90882 26.0089 10.2597 25.9273 10.597C25.8457 10.9344 25.7505 11.242 25.6552 11.5038C25.6044 11.69 25.5351 11.8708 25.4485 12.0436C25.3952 12.1292 25.3188 12.1984 25.2279 12.2432C25.1371 12.288 25.0354 12.3068 24.9344 12.2973C24.8424 12.295 24.751 12.2814 24.6624 12.2568C24.6032 12.2391 24.5485 12.2092 24.5016 12.1693C24.4548 12.1293 24.4169 12.0801 24.3903 12.0247C24.3042 11.8443 24.235 11.6564 24.1836 11.4633C24.102 11.1935 24.0149 10.8642 23.9116 10.4999C23.8082 10.1355 23.7293 9.75229 23.6396 9.34477C23.5498 8.93725 23.4627 8.55941 23.392 8.21126C23.3213 7.86312 23.256 7.56355 23.207 7.32065C23.1581 7.07776 23.1309 6.92932 23.1227 6.87804C23.1212 6.85738 23.1212 6.83664 23.1227 6.81597V6.78089C23.1212 6.73264 23.1313 6.68473 23.1521 6.64109C23.1729 6.59746 23.2038 6.55935 23.2424 6.5299C23.3258 6.4645 23.43 6.43098 23.5362 6.43544C23.6319 6.4313 23.7266 6.45574 23.8082 6.50561C23.8867 6.56377 23.9393 6.64988 23.9551 6.7458C23.9551 6.7458 23.9714 6.84566 24.0041 7.01568C24.0367 7.18571 24.0829 7.38812 24.1346 7.63911C24.1863 7.8901 24.2462 8.17888 24.3087 8.49464C24.3713 8.8104 24.4393 9.13156 24.5127 9.45542C24.5862 9.77928 24.6542 10.0896 24.7249 10.3946C24.7956 10.6996 24.8582 10.9587 24.9208 11.1773C24.9806 10.9722 25.0486 10.7374 25.1221 10.4729C25.1955 10.2084 25.2717 9.93311 25.3451 9.66323C25.4186 9.39335 25.4866 9.09918 25.5546 8.8185C25.6226 8.53782 25.6852 8.27873 25.745 8.03044C25.8049 7.78215 25.8511 7.57434 25.8946 7.38542C25.9381 7.19651 25.9708 7.05887 25.9953 6.96711C26.0228 6.861 26.0838 6.76642 26.1694 6.69722C26.2525 6.62237 26.3592 6.57849 26.4713 6.57308C26.5911 6.5676 26.7088 6.60495 26.8032 6.67833C26.8878 6.74654 26.9455 6.84206 26.9664 6.94821C27.0398 7.24239 27.1106 7.57704 27.1895 7.94408C27.2683 8.31112 27.3527 8.68086 27.437 9.056C27.5213 9.43113 27.6138 9.80087 27.709 10.1625C27.8042 10.5242 27.8913 10.8426 27.981 11.1206C28.0409 10.902 28.1089 10.6429 28.1796 10.3406C28.2503 10.0384 28.3183 9.7253 28.3918 9.40145C28.4652 9.07759 28.5387 8.76452 28.604 8.44876C28.6693 8.133 28.7345 7.84962 28.7889 7.59863C28.8434 7.34764 28.8896 7.14253 28.9195 6.986C28.9494 6.82947 28.9712 6.7431 28.9712 6.73771C28.9901 6.6437 29.0422 6.55948 29.1181 6.50021C29.1994 6.44971 29.2943 6.42522 29.3901 6.43004C29.497 6.42634 29.6019 6.45975 29.6866 6.5245C29.7247 6.55438 29.7553 6.59258 29.7761 6.63611C29.7968 6.67964 29.8072 6.72734 29.8063 6.77549V6.81057C29.8076 6.83215 29.8076 6.85377 29.8063 6.87535C29.8063 6.92392 29.771 7.06966 29.7193 7.31795C29.6676 7.56625 29.605 7.85772 29.5316 8.20587C29.4581 8.55401 29.3738 8.93185 29.284 9.33398C29.1943 9.7361 29.0991 10.1193 29.012 10.4837C28.925 10.848 28.8379 11.1692 28.74 11.4445C28.689 11.6359 28.6198 11.822 28.5332 12.0004C28.4783 12.1137 28.3806 12.201 28.2612 12.2433C28.1735 12.2727 28.0818 12.2891 27.9892 12.2919C27.9521 12.2946 27.9148 12.2946 27.8777 12.2919C27.8242 12.2844 27.7715 12.2726 27.7199 12.2568C27.6615 12.2362 27.6065 12.2071 27.5567 12.1704C27.4996 12.1287 27.4546 12.0729 27.4261 12.0085C27.3467 11.8229 27.2812 11.6316 27.2303 11.4364C27.1514 11.1665 27.0698 10.8696 26.98 10.535C26.8902 10.2003 26.8059 9.84405 26.708 9.47701C26.61 9.10997 26.542 8.76722 26.4686 8.44876" fill="#1D1D1B"/>
<path d="M31.3215 10.7473C31.2308 11.0483 31.1508 11.327 31.0841 11.5834C31.0174 11.8398 30.9481 12.0488 30.8894 12.2132C30.8753 12.3241 30.8195 12.4245 30.7345 12.4925C30.6495 12.5604 30.5421 12.5903 30.436 12.5755C30.3299 12.5607 30.2337 12.5025 30.1687 12.4137C30.1037 12.3248 30.0751 12.2126 30.0892 12.1017C30.0887 12.06 30.095 12.0186 30.1079 11.9791L30.2199 11.5917C30.2839 11.3743 30.3666 11.104 30.468 10.7751C30.5693 10.4463 30.684 10.0951 30.8067 9.70773C30.9294 9.32034 31.0574 8.93574 31.1881 8.55671C31.3188 8.17769 31.4549 7.82374 31.5776 7.49767C31.68 7.22368 31.8003 6.95737 31.9376 6.7006C31.9765 6.60749 32.0454 6.53156 32.1323 6.486C32.2378 6.44411 32.3504 6.42514 32.4631 6.43026C32.579 6.42775 32.6941 6.44955 32.8018 6.49436C32.8466 6.51677 32.8866 6.54827 32.9196 6.58703C32.9526 6.62579 32.9778 6.67103 32.9939 6.7201C33.0792 6.90683 33.1806 7.16045 33.2953 7.47537C33.4099 7.7903 33.538 8.1331 33.666 8.50098C33.794 8.86886 33.9327 9.24231 34.0501 9.61576C34.1674 9.98922 34.2928 10.3515 34.3968 10.6804C34.5008 11.0092 34.5915 11.2907 34.6635 11.5165C34.7356 11.7422 34.7862 11.8983 34.8022 11.968C34.8151 12.0074 34.8214 12.0489 34.8209 12.0906C34.8236 12.1426 34.8152 12.1946 34.7963 12.2428C34.7774 12.291 34.7484 12.3342 34.7116 12.3693C34.6693 12.4086 34.6199 12.4385 34.5662 12.4572C34.5126 12.4759 34.4558 12.483 34.3995 12.478C34.3165 12.4861 34.2336 12.4612 34.1674 12.4083C34.1115 12.3534 34.0701 12.2843 34.0474 12.2076C33.9861 12.0432 33.9167 11.8342 33.834 11.5778C33.7514 11.3214 33.666 11.0427 33.5673 10.7417H31.3135L31.3215 10.7473ZM33.3139 9.92511C33.1859 9.51822 33.0685 9.14476 32.9538 8.81033C32.8392 8.47589 32.7378 8.15539 32.6098 7.83768C32.5804 7.768 32.5484 7.68997 32.5164 7.59521C32.4844 7.50045 32.4631 7.45308 32.4577 7.43635C32.4327 7.48401 32.4131 7.53451 32.3991 7.58685C32.3644 7.68718 32.3351 7.768 32.303 7.83768C32.183 8.14424 32.0683 8.46753 31.9563 8.81033C31.8443 9.15312 31.7269 9.52379 31.6016 9.92511H33.3139Z" fill="#1D1D1B"/>
<path d="M36.4655 10.0014C36.4332 9.96968 36.4038 9.93535 36.3775 9.89875L36.2868 9.77454C36.1988 9.65303 36.108 9.50451 36.0118 9.33169C35.9156 9.15887 35.8056 8.97525 35.7039 8.79163C35.6021 8.608 35.5032 8.40008 35.4097 8.20296C35.3162 8.00583 35.2227 7.82221 35.1485 7.66289C35.0742 7.50357 35.0028 7.34426 34.9478 7.22004C34.9065 7.13289 34.8724 7.04258 34.846 6.95001C34.8354 6.9275 34.8271 6.90398 34.8213 6.8798C34.8213 6.8798 34.8213 6.8447 34.8213 6.81229C34.821 6.76196 34.831 6.71208 34.8509 6.66567C34.8707 6.61926 34.9 6.57728 34.9368 6.54226C34.98 6.50346 35.0308 6.47365 35.0861 6.45462C35.1414 6.4356 35.2 6.42775 35.2585 6.43155C35.3083 6.42603 35.3589 6.4314 35.4064 6.44727C35.4539 6.46314 35.4973 6.48912 35.5334 6.52336C35.5817 6.57654 35.6199 6.63782 35.6461 6.70428L35.7369 6.9041C35.7836 7.00672 35.8413 7.13363 35.9073 7.28485C35.9733 7.43607 36.053 7.60349 36.141 7.78711C36.229 7.97073 36.3142 8.14625 36.416 8.32717L36.6772 8.83213C36.748 8.96802 36.8269 9.09966 36.9136 9.22638C37.0538 9.01137 37.1814 8.78868 37.2958 8.5594C37.4305 8.28937 37.5707 8.03284 37.6835 7.77091C37.7962 7.50898 37.9144 7.27945 38.0079 7.08233L38.1701 6.70698C38.1973 6.6404 38.2364 6.57913 38.2856 6.52606C38.3208 6.49048 38.364 6.4636 38.4118 6.44764C38.4596 6.43168 38.5106 6.42709 38.5605 6.43425C38.619 6.43013 38.6777 6.43783 38.7331 6.45687C38.7884 6.47592 38.8392 6.5059 38.8822 6.54496C38.92 6.57926 38.9498 6.62111 38.9698 6.66769C38.9897 6.71427 38.9992 6.7645 38.9977 6.81499C39.0006 6.83741 39.0006 6.86009 38.9977 6.8825L38.9757 6.95271L38.8685 7.22274C38.8162 7.34966 38.7503 7.49277 38.6705 7.66559C38.5908 7.83841 38.5083 8.01933 38.4148 8.20566C38.3213 8.39198 38.2169 8.5972 38.1151 8.79433C38.0134 8.99145 37.9117 9.17237 37.8099 9.33439C37.7082 9.49641 37.612 9.66113 37.535 9.77994C37.4823 9.85552 37.4225 9.92605 37.3563 9.99056V11.8808C37.359 11.9359 37.3501 11.9909 37.3302 12.0424C37.3104 12.094 37.2799 12.141 37.2408 12.1805C37.1621 12.2569 37.0559 12.2997 36.9452 12.2997C36.8346 12.2997 36.7284 12.2569 36.6497 12.1805C36.6075 12.1403 36.5742 12.092 36.552 12.0385C36.5298 11.9851 36.519 11.9277 36.5205 11.87V9.97976" fill="#1D1D1B"/>
</svg>
