<svg width="21" height="22" viewBox="0 0 21 22" fill="none" xmlns="http://www.w3.org/2000/svg">
<path d="M10.4434 0.542969C11.8045 0.542969 13.1524 0.811073 14.41 1.33198C15.6675 1.85288 16.8102 2.61637 17.7727 3.57888C18.7352 4.54138 19.4987 5.68403 20.0196 6.9416C20.5405 8.19917 20.8086 9.54702 20.8086 10.9082C20.8086 12.2694 20.5405 13.6172 20.0196 14.8748C19.4987 16.1324 18.7352 17.275 17.7727 18.2375C16.8102 19.2 15.6675 19.9635 14.41 20.4844C13.1524 21.0053 11.8045 21.2734 10.4434 21.2734C7.69433 21.2734 5.05789 20.1814 3.11403 18.2375C1.17017 16.2937 0.078125 13.6572 0.078125 10.9082C0.078125 8.15917 1.17017 5.52273 3.11403 3.57888C5.05789 1.63502 7.69433 0.542969 10.4434 0.542969ZM10.4434 2.27051C8.1525 2.27051 5.95547 3.18055 4.33559 4.80043C2.7157 6.42031 1.80566 8.61734 1.80566 10.9082C1.80566 13.1991 2.7157 15.3961 4.33559 17.016C5.95547 18.6359 8.1525 19.5459 10.4434 19.5459C12.7342 19.5459 14.9313 18.6359 16.5511 17.016C18.171 15.3961 19.0811 13.1991 19.0811 10.9082C19.0811 8.61734 18.171 6.42031 16.5511 4.80043C14.9313 3.18055 12.7342 2.27051 10.4434 2.27051ZM6.12451 10.0444H14.7657C14.9815 10.044 15.1897 10.1245 15.3492 10.2699C15.5087 10.4153 15.608 10.6152 15.6275 10.8302C15.647 11.0451 15.5853 11.2596 15.4546 11.4314C15.3238 11.6031 15.1335 11.7197 14.9211 11.7582L14.7657 11.772H6.12451C5.90866 11.7724 5.70049 11.6919 5.54098 11.5465C5.38147 11.4011 5.28219 11.2012 5.26269 10.9863C5.24318 10.7713 5.30487 10.5568 5.4356 10.385C5.56634 10.2133 5.75664 10.0967 5.96903 10.0583L6.12451 10.0444H14.7657H6.12451Z" fill="#D83E3E"/>
</svg>
