<svg width="25" height="25" viewBox="0 0 25 25" fill="none" xmlns="http://www.w3.org/2000/svg">
<rect x="1.55273" y="1.55286" width="21.8944" height="21.8944" rx="2" stroke="#165957" stroke-width="2"/>
<line x1="8.37988" y1="18.8958" x2="16.6203" y2="18.8958" stroke="#165957" stroke-width="2" stroke-linecap="round"/>
<line x1="8.37988" y1="15.4824" x2="16.6203" y2="15.4824" stroke="#165957" stroke-width="2" stroke-linecap="round"/>
<path d="M15.0852 11.25C14.8652 11.51 14.5618 11.72 14.1752 11.88C13.7885 12.04 13.3718 12.12 12.9252 12.12C12.1785 12.12 11.5785 11.9233 11.1252 11.53C10.6718 11.13 10.3685 10.5467 10.2152 9.78H9.40518L9.68518 8.88H10.1052C10.0985 8.84667 10.0952 8.81667 10.0952 8.79C10.0952 8.76333 10.0952 8.73333 10.0952 8.7V8.51C10.0952 8.42333 10.0952 8.34 10.0952 8.26C10.1018 8.18 10.1085 8.1 10.1152 8.02H9.43518L9.74518 7.1H10.2652C10.4652 6.33333 10.8252 5.76 11.3452 5.38C11.8652 4.99333 12.5285 4.8 13.3352 4.8C13.4485 4.8 13.5785 4.81 13.7252 4.83C13.8785 4.84333 14.0285 4.86333 14.1752 4.89C14.3285 4.91 14.4685 4.94 14.5952 4.98C14.7218 5.01333 14.8185 5.05 14.8852 5.09L14.4252 6.39C14.3252 6.32333 14.1752 6.26667 13.9752 6.22C13.7818 6.16667 13.5685 6.14 13.3352 6.14C12.9952 6.14 12.6985 6.21667 12.4452 6.37C12.1918 6.51667 11.9918 6.76 11.8452 7.1H14.1952L13.8952 8.02H11.6352C11.6285 8.09333 11.6218 8.16667 11.6152 8.24C11.6152 8.31333 11.6152 8.39 11.6152 8.47V8.68C11.6152 8.71333 11.6152 8.74667 11.6152 8.78C11.6152 8.81333 11.6185 8.84667 11.6252 8.88H13.6652L13.3752 9.78H11.7752C11.8752 10.1067 12.0285 10.3633 12.2352 10.55C12.4485 10.73 12.7252 10.82 13.0652 10.82C13.3452 10.82 13.5785 10.7667 13.7652 10.66C13.9585 10.5533 14.1252 10.4133 14.2652 10.24L15.0852 11.25Z" fill="#165957"/>
</svg>
