<svg width="21" height="19" viewBox="0 0 21 19" fill="none" xmlns="http://www.w3.org/2000/svg">
<path d="M1.05 0H19.95C20.2285 0 20.4956 0.110625 20.6925 0.307538C20.8894 0.504451 21 0.771523 21 1.05V17.85C21 18.1285 20.8894 18.3955 20.6925 18.5925C20.4956 18.7894 20.2285 18.9 19.95 18.9H1.05C0.771523 18.9 0.504451 18.7894 0.307538 18.5925C0.110625 18.3955 0 18.1285 0 17.85V1.05C0 0.771523 0.110625 0.504451 0.307538 0.307538C0.504451 0.110625 0.771523 0 1.05 0ZM10.5 6.3H6.3V8.4H15.75L10.5 3.15V6.3ZM5.25 10.5L10.5 15.75V12.6H14.7V10.5H5.25Z" fill="#0093D7"/>
</svg>
