<svg width="25" height="23" viewBox="0 0 25 23" fill="none" xmlns="http://www.w3.org/2000/svg">
<path d="M1 0H19C19.2652 0 19.5196 0.105357 19.7071 0.292893C19.8946 0.48043 20 0.734783 20 1V17C20 17.2652 19.8946 17.5196 19.7071 17.7071C19.5196 17.8946 19.2652 18 19 18H1C0.734783 18 0.48043 17.8946 0.292893 17.7071C0.105357 17.5196 0 17.2652 0 17V1C0 0.734783 0.105357 0.48043 0.292893 0.292893C0.48043 0.105357 0.734783 0 1 0ZM10 6H6V8H15L10 3V6ZM5 10L10 15V12H14V10H5Z" fill="#929292"/>
<circle cx="19.5" cy="17.5" r="5.5" fill="white"/>
<path d="M19.5 23C18.4122 23 17.3488 22.6774 16.4444 22.0731C15.5399 21.4687 14.8349 20.6098 14.4187 19.6048C14.0024 18.5998 13.8935 17.4939 14.1057 16.427C14.3179 15.3601 14.8417 14.3801 15.6109 13.6109C16.3801 12.8417 17.3601 12.3179 18.427 12.1057C19.4939 11.8935 20.5998 12.0024 21.6048 12.4187C22.6098 12.8349 23.4687 13.5399 24.0731 14.4444C24.6774 15.3488 25 16.4122 25 17.5C24.9983 18.9582 24.4183 20.3562 23.3873 21.3873C22.3562 22.4183 20.9582 22.9983 19.5 23ZM19.5 12.7857C18.5676 12.7857 17.6561 13.0622 16.8809 13.5802C16.1056 14.0982 15.5014 14.8345 15.1446 15.6959C14.7878 16.5573 14.6944 17.5052 14.8763 18.4197C15.0582 19.3342 15.5072 20.1742 16.1665 20.8335C16.8258 21.4928 17.6658 21.9418 18.5803 22.1237C19.4948 22.3056 20.4427 22.2122 21.3041 21.8554C22.1655 21.4986 22.9018 20.8944 23.4198 20.1191C23.9378 19.3439 24.2143 18.4324 24.2143 17.5C24.2128 16.2501 23.7157 15.0519 22.8319 14.1681C21.9481 13.2843 20.7499 12.7872 19.5 12.7857Z" fill="#D83E3E"/>
<path d="M17.1987 17.043H21.7913C21.9061 17.0428 22.0167 17.0855 22.1015 17.1628C22.1863 17.2401 22.239 17.3463 22.2494 17.4606C22.2598 17.5748 22.227 17.6888 22.1575 17.7801C22.088 17.8714 21.9869 17.9333 21.874 17.9538L21.7913 17.9611H17.1987C17.084 17.9613 16.9733 17.9186 16.8886 17.8413C16.8038 17.764 16.751 17.6578 16.7406 17.5435C16.7303 17.4293 16.7631 17.3153 16.8326 17.224C16.902 17.1327 17.0032 17.0708 17.1161 17.0503L17.1987 17.043Z" fill="#D83E3E"/>
</svg>
