<svg width="21" height="22" viewBox="0 0 21 22" fill="none" xmlns="http://www.w3.org/2000/svg">
<path d="M10.4434 0.679688C11.8045 0.679687 13.1524 0.947792 14.41 1.46869C15.6675 1.9896 16.8102 2.75309 17.7727 3.71559C18.7352 4.6781 19.4987 5.82075 20.0196 7.07832C20.5405 8.33589 20.8086 9.68374 20.8086 11.0449C20.8086 12.4061 20.5405 13.754 20.0196 15.0115C19.4987 16.2691 18.7352 17.4117 17.7727 18.3742C16.8102 19.3368 15.6675 20.1002 14.41 20.6211C13.1524 21.1421 11.8045 21.4102 10.4434 21.4102C7.69433 21.4102 5.05789 20.3181 3.11403 18.3742C1.17017 16.4304 0.078125 13.794 0.078125 11.0449C0.078125 8.29589 1.17017 5.65945 3.11403 3.71559C5.05789 1.77174 7.69433 0.679688 10.4434 0.679688ZM10.4434 2.40723C8.1525 2.40723 5.95547 3.31727 4.33559 4.93715C2.7157 6.55703 1.80566 8.75406 1.80566 11.0449C1.80566 13.3358 2.7157 15.5328 4.33559 17.1527C5.95547 18.7726 8.1525 19.6826 10.4434 19.6826C12.7342 19.6826 14.9312 18.7726 16.5511 17.1527C18.171 15.5328 19.0811 13.3358 19.0811 11.0449C19.0811 8.75406 18.171 6.55703 16.5511 4.93715C14.9312 3.31727 12.7342 2.40723 10.4434 2.40723Z" fill="#D83E3E"/>
<path d="M16.8555 4.99609L4.03125 17.8203" stroke="#D83E3E" stroke-width="1.5"/>
</svg>
