<svg width="47" height="17" viewBox="0 0 47 17" fill="none" xmlns="http://www.w3.org/2000/svg">
<path d="M23.348 4.83008H19.5669C19.041 4.83008 18.6289 5.24632 18.6289 5.77739V11.1526C18.6289 11.6837 19.041 12.1 19.5669 12.1C20.0929 12.1 20.5052 11.6837 20.5052 11.1526V9.40155H22.9144C23.3978 9.40155 23.7816 9.01402 23.7816 8.52603C23.7816 8.03801 23.3978 7.65048 22.9144 7.65048H20.5052V6.58835H23.355C23.8313 6.58835 24.2222 6.19364 24.2222 5.71281C24.2222 5.23197 23.8313 4.83726 23.355 4.83726" fill="#009FFF"/>
<path d="M30.0774 10.2844H27.5188V5.71292C27.5188 5.18187 27.1065 4.76562 26.5806 4.76562C26.0547 4.76562 25.6426 5.18187 25.6426 5.71292V11.0882C25.6426 11.6192 26.0547 12.0355 26.5806 12.0355H30.0704C30.5536 12.0355 30.9374 11.648 30.9374 11.1599C30.9374 10.6719 30.5536 10.2844 30.0704 10.2844" fill="#009FFF"/>
<path d="M33.695 8.41114C33.695 7.31311 34.4839 6.48063 35.5287 6.48063C36.5733 6.48063 37.3835 7.3203 37.3835 8.43265V8.45418C37.3835 9.5522 36.5946 10.3847 35.55 10.3847C34.5051 10.3847 33.695 9.54502 33.695 8.43265V8.41114ZM35.55 4.70801C33.4248 4.70801 31.7617 6.34427 31.7617 8.42548V8.44701C31.7617 10.5569 33.3822 12.1501 35.5357 12.1501C37.6892 12.1501 39.3238 10.5139 39.3238 8.43265V8.41114C39.3238 6.30121 37.7034 4.70801 35.55 4.70801Z" fill="#009FFF"/>
<path d="M45.1372 8.99978V9.33709C45.1372 10.0834 44.4479 10.6217 43.5027 10.6217C42.9767 10.6217 42.3583 10.3992 42.3583 9.76768V9.73897C42.3583 8.87778 43.3463 8.78448 43.7727 8.78448C44.3626 8.78448 44.8245 8.89213 45.1372 8.99978ZM46.2176 5.45456C45.6917 4.90914 44.86 4.62207 43.8082 4.62207C42.9767 4.62207 42.3015 4.74406 41.5339 5.03831C41.2071 5.16749 40.9867 5.49762 40.9867 5.84927C40.9867 6.31574 41.3705 6.6961 41.8396 6.6961C41.9319 6.6961 42.0315 6.68174 42.1381 6.64586H42.1594C42.6 6.46644 43.0761 6.38033 43.602 6.38033C44.5688 6.38033 45.0732 6.7894 45.1087 7.60034C44.6894 7.48553 44.1707 7.37788 43.4599 7.37788C41.5694 7.37788 40.4395 8.28212 40.4395 9.79639V9.82508C40.4395 11.1958 41.5126 12.1503 43.0548 12.1503C43.858 12.1503 44.5615 11.8919 45.116 11.4039C45.2083 11.7915 45.5851 12.0714 46.047 12.0714C46.5871 12.0714 47.0065 11.6551 47.0065 11.1169V7.71517C47.0065 6.72482 46.7363 5.96408 46.2104 5.44737" fill="#009FFF"/>
<path d="M15.3301 0.59609C14.7402 0.000434458 13.8874 -0.164627 13.1198 0.172672C12.0751 0.631974 11.5136 1.65822 11.1085 2.59836L9.5307 6.45218L13.3401 4.85898H13.3472C14.2783 4.44274 15.2946 3.88297 15.7495 2.828C16.0835 2.04576 15.9271 1.19175 15.3301 0.59609ZM14.8468 2.43329C14.6692 2.84953 14.3067 3.35189 12.9563 3.94756L11.343 4.62215L12.0111 2.99308C12.338 2.23234 12.7787 1.40704 13.5107 1.0841C13.9087 0.911859 14.3351 0.990802 14.6407 1.29939C14.9464 1.60799 15.0245 2.03141 14.854 2.44047L14.8468 2.43329ZM13.134 6.82536C12.0324 6.38759 10.874 6.72488 9.88606 7.1196L8.85551 7.5502C8.73469 7.38513 8.59255 7.24161 8.4362 7.12678L8.86262 6.09334C9.25351 5.08862 9.58755 3.91884 9.15402 2.80647C8.83419 1.98835 8.09505 1.47881 7.22798 1.47881C6.36091 1.47881 5.62176 1.98835 5.30193 2.80647C5.19533 3.07201 5.13848 3.34473 5.11005 3.61743C4.90394 3.4452 4.6694 3.29449 4.40644 3.17966C3.60332 2.828 2.72914 2.99308 2.11793 3.61743C1.50672 4.23462 1.33615 5.12452 1.6844 5.92829C1.79811 6.19383 1.94736 6.42347 2.11793 6.63876C1.84786 6.66748 1.58489 6.72488 1.31482 6.83253C0.504606 7.15549 0 7.90184 0 8.77739C0 9.65293 0.504606 10.3993 1.31482 10.7222C1.57779 10.8299 1.84786 10.8873 2.11793 10.916C1.94736 11.1241 1.79811 11.361 1.6844 11.6193C1.33615 12.4303 1.49961 13.313 2.11793 13.9302C2.51594 14.3321 3.03476 14.5474 3.56779 14.5474C3.85209 14.5474 4.13637 14.4899 4.41354 14.3679C4.67651 14.2531 4.90394 14.1024 5.11716 13.9302C5.14558 14.2029 5.20243 14.4684 5.30904 14.7411C5.62887 15.5593 6.36801 16.0688 7.23509 16.0688C8.10216 16.0688 8.8413 15.5593 9.16111 14.7411C9.26772 14.4756 9.32459 14.2029 9.35301 13.9302C9.55913 14.1024 9.79366 14.2531 10.0566 14.3679C10.3338 14.4899 10.6181 14.5474 10.9024 14.5474C11.4354 14.5474 11.9471 14.3392 12.3522 13.9302C12.9635 13.313 13.134 12.4231 12.7858 11.6193C12.6721 11.3538 12.5228 11.1241 12.3522 10.916C12.6223 10.8873 12.8853 10.8299 13.1553 10.7222C13.9655 10.3993 14.4702 9.65293 14.4702 8.77739C14.4702 7.90184 13.9655 7.15549 13.1553 6.83253L13.134 6.82536ZM1.6844 9.78929C1.25086 9.61705 0.987894 9.23669 0.987894 8.77022C0.987894 8.30374 1.24375 7.92337 1.6844 7.75113C1.87628 7.6722 2.10372 7.61479 2.41644 7.61479C2.82154 7.61479 3.3617 7.71526 4.15058 8.02385C4.16479 8.02385 4.17901 8.0382 4.19322 8.04538L5.22375 8.47597C5.20954 8.57644 5.20243 8.67692 5.20243 8.77739C5.20243 8.87787 5.20954 8.97833 5.22375 9.0788L4.20743 9.50222H4.20033C4.20033 9.50222 4.16479 9.52375 4.15058 9.53094C3.35457 9.83951 2.45197 10.1051 1.69151 9.79646L1.6844 9.78929ZM5.60045 11.4399C5.60045 11.4399 5.58622 11.483 5.57911 11.4973C5.23798 12.2867 4.78312 13.112 4.02976 13.4422C3.60332 13.6288 3.14848 13.5426 2.82154 13.2125C2.49461 12.8824 2.40933 12.4303 2.59411 11.9925C2.7789 11.5619 3.15558 11.038 4.52726 10.4208C4.54147 10.4208 4.55568 10.4065 4.5699 10.4065L5.60045 9.97587C5.72127 10.1409 5.86341 10.2845 6.01976 10.3993L5.59334 11.4327L5.60045 11.4399ZM5.60045 7.54302L4.577 7.11243H4.5699C4.5699 7.11243 4.53437 7.09807 4.52015 7.0909C3.73836 6.74641 2.92104 6.28713 2.59411 5.52639C2.40933 5.0958 2.49461 4.6365 2.82154 4.30638C3.14848 3.97627 3.59622 3.89013 4.02976 4.07673C4.45618 4.26332 4.975 4.64368 5.58622 6.02875C5.58622 6.04312 5.60045 6.05747 5.60755 6.07181L6.03397 7.11243C5.87051 7.23443 5.72837 7.37795 5.61466 7.53584L5.60045 7.54302ZM8.23719 14.3608C8.06663 14.7985 7.68993 15.0641 7.22798 15.0641C6.76601 15.0641 6.38933 14.8057 6.21877 14.3608C6.04818 13.923 5.9487 13.2843 6.48884 11.8705C6.48884 11.8561 6.50305 11.8418 6.51015 11.8274L6.93657 10.7868C7.03608 10.8012 7.13558 10.8084 7.23509 10.8084C7.33459 10.8084 7.43407 10.8012 7.53358 10.7868L7.95291 11.8131C7.95291 11.8131 7.96712 11.8561 7.97423 11.8705C8.27983 12.6743 8.54281 13.5857 8.23719 14.3536V14.3608ZM6.18322 8.76304C6.18322 8.18174 6.65229 7.70807 7.22798 7.70807C7.80365 7.70807 8.27272 8.18174 8.27272 8.76304C8.27272 9.34434 7.80365 9.818 7.22798 9.818C6.65229 9.818 6.18322 9.34434 6.18322 8.76304ZM7.95291 5.71299L7.53358 6.73925C7.43407 6.72488 7.33459 6.71772 7.23509 6.71772C7.13558 6.71772 7.03608 6.72488 6.93657 6.73925L6.51726 5.71299C6.51726 5.71299 6.50305 5.66994 6.49594 5.65559C6.19032 4.8518 5.92736 3.94037 6.23298 3.17248C6.40354 2.7347 6.78022 2.46918 7.24219 2.46918C7.70416 2.46918 8.08084 2.72754 8.2514 3.17248C8.42909 3.61743 8.5286 4.2705 7.96002 5.72018L7.95291 5.71299ZM11.6415 13.2197C11.3146 13.5498 10.8668 13.6359 10.4333 13.4493C10.0069 13.2627 9.48805 12.8824 8.87683 11.4973C8.87683 11.483 8.86262 11.4686 8.85551 11.4471L8.42909 10.4065C8.59255 10.2845 8.73469 10.1409 8.84841 9.98306L9.87183 10.4136H9.87894C9.87894 10.4136 9.91449 10.428 9.9287 10.4352C10.7105 10.7796 11.5278 11.2389 11.8547 11.9997C12.0395 12.4303 11.9542 12.8896 11.6273 13.2197H11.6415ZM12.7787 9.78929C12.3451 9.96153 11.7126 10.062 10.3125 9.51657C10.2983 9.51657 10.2841 9.50222 10.2698 9.49504L9.2393 9.06445C9.25351 8.96399 9.26062 8.8635 9.26062 8.76304C9.26062 8.66256 9.25351 8.56209 9.2393 8.46163L10.2556 8.0382C11.0658 7.71526 11.9969 7.43537 12.7787 7.74397C13.2122 7.91621 13.4752 8.29655 13.4752 8.76304C13.4752 9.22951 13.2193 9.60987 12.7787 9.78211V9.78929Z" fill="#009FFF"/>
</svg>
