<svg width="155" height="76" viewBox="0 0 155 76" fill="none" xmlns="http://www.w3.org/2000/svg">
<path d="M6.3842 65.9375L6.12594 68.0679C6.09891 68.2964 6.11511 68.5284 6.17361 68.7503C6.23212 68.9723 6.33176 69.1798 6.46681 69.361C6.60185 69.5422 6.76962 69.6934 6.96044 69.806C7.15127 69.9186 7.36136 69.9903 7.57862 70.0169H73.3363C73.5568 70.0199 73.7756 69.9772 73.9804 69.8911C74.1851 69.805 74.3718 69.6773 74.5297 69.5152C74.6875 69.3532 74.8136 69.16 74.9005 68.9466C74.9875 68.7333 75.0337 68.504 75.0365 68.2718C75.0421 68.2002 75.0421 68.1282 75.0365 68.0565L74.7675 65.9261C74.6921 65.1289 74.919 64.3325 75.3987 63.7106C75.8784 63.0887 76.572 62.6917 77.3285 62.6059C77.6994 62.5634 78.0747 62.5983 78.4328 62.7086C78.791 62.8189 79.125 63.0024 79.4158 63.2486C79.7066 63.4949 79.9484 63.799 80.1276 64.1437C80.3067 64.4884 80.4196 64.8669 80.4598 65.2576L80.7181 67.3313C81.2238 71.9433 78.7381 76.0001 74.2617 76.0001H6.85766C2.42431 76.0001 -0.0506115 71.9433 0.455134 67.3313L0.713387 65.2576C0.751004 64.8689 0.861075 64.492 1.0373 64.1482C1.21351 63.8045 1.45242 63.5007 1.74031 63.2544C2.02821 63.0081 2.35943 62.824 2.715 62.7127C3.07058 62.6014 3.44351 62.5651 3.81243 62.6059C4.56978 62.6944 5.26343 63.0939 5.74288 63.7176C6.22234 64.3413 6.44891 65.139 6.37344 65.9375" fill="#FF0000"/>
<path d="M66.9726 51.24C68.3542 51.3196 69.7087 50.8077 70.7394 49.8164C71.7701 48.825 72.3929 47.4352 72.4711 45.9515C72.4761 45.8543 72.4761 45.7568 72.4711 45.6596C72.4084 42.3922 69.6383 40.2813 66.5545 40.2701H60.3139C59.6208 40.2701 58.956 39.9744 58.4659 39.448C57.9758 38.9215 57.7005 38.2076 57.7005 37.4631C57.7005 36.7186 57.9758 36.0046 58.4659 35.4782C58.956 34.9518 59.6208 34.6561 60.3139 34.6561H64.4952C67.3072 34.5326 69.471 32.7024 69.6069 29.8617C69.7428 26.7964 67.2967 24.5058 64.3175 24.5058H54.1986V51.1951H66.9726V51.24ZM74.635 29.8617C74.6395 31.0328 74.4264 32.1932 74.0082 33.2748C73.59 34.3564 72.975 35.3375 72.1993 36.1606L72.0425 36.3515L72.2516 36.4862C73.7803 37.3992 75.0643 38.7197 75.9798 40.3205C76.8953 41.9214 77.4113 43.7486 77.4783 45.6259C77.5147 48.5905 76.458 51.4502 74.5388 53.5811C72.6196 55.7119 69.9937 56.941 67.234 57H51.5539C50.8284 56.9882 50.1367 56.6688 49.6295 56.1114C49.1224 55.554 48.8409 54.8039 48.8465 54.0245V21.9908C48.8409 21.5978 48.9086 21.2077 49.0457 20.8433C49.1828 20.479 49.3865 20.1478 49.6447 19.8694C49.9029 19.591 50.2105 19.371 50.5492 19.2224C50.8878 19.0738 51.2508 18.9995 51.6167 19.0041H64.3175C66.9785 18.9255 69.5598 19.9847 71.4943 21.9489C73.4288 23.9131 74.5584 26.6218 74.635 29.4799V29.8504" fill="#1D1D1B"/>
<path d="M23.9656 45.9961L24.0407 46.2203L24.1158 45.9961C24.8457 43.8886 25.7365 41.5122 26.6703 39.0124C27.6041 36.5126 28.6023 33.7774 29.5576 31.3336C30.5128 28.8899 31.4466 26.6479 32.3267 24.7198C32.9061 23.2969 33.6255 21.9407 34.4734 20.6731C34.8865 20.1373 35.4121 19.708 36.0096 19.4184C36.607 19.1287 37.2602 18.9866 37.9187 19.0028H38.5734C39.3178 18.9704 40.0486 19.2169 40.6342 19.6978C41.0837 20.0871 41.3752 20.6399 41.4499 21.2448L45.5393 54.3138C45.5559 54.6798 45.5028 55.0457 45.3831 55.3901C45.2633 55.7345 45.0793 56.0507 44.8416 56.3203C44.288 56.8044 43.5763 57.0454 42.856 56.9929C42.1205 57.036 41.3932 56.8144 40.7952 56.3652C40.531 56.1768 40.3089 55.931 40.144 55.6447C39.9792 55.3583 39.8754 55.0382 39.84 54.7061C39.7004 53.5851 39.5824 52.3857 39.4536 51.0405C39.3248 49.6953 38.6378 43.9447 38.4554 42.4762C38.2729 41.0077 37.1459 31.6475 36.7488 28.2509V27.9595L35.4394 30.8292C34.9993 31.8157 34.5163 32.9927 33.9904 34.3715C33.4644 35.7503 32.9171 37.2076 32.4126 38.7545C31.9081 40.3015 29.3107 47.7897 29.3107 47.7897C29.0746 48.4735 28.6238 49.8523 28.2374 51.1526C27.851 52.4529 27.4539 53.5627 27.3573 53.7757C26.9144 54.6808 26.1455 55.3652 25.2197 55.6784C24.2939 55.9916 23.2868 55.908 22.42 55.446C21.7144 55.0781 21.1392 54.4853 20.7778 53.7533C20.6705 53.5403 20.3055 52.3969 19.8869 51.1302C19.4683 49.8635 19.0605 48.4959 18.8136 47.7672C18.8136 47.7672 16.2913 40.2118 15.7225 38.7321C15.1536 37.2524 14.6491 35.7391 14.1447 34.3491C13.6402 32.9591 13.125 31.7932 12.6957 30.8068L11.3755 27.9707V28.2621C10.9784 31.6251 9.84067 40.9965 9.6582 42.4874C9.47574 43.9783 8.81028 49.6729 8.66001 51.0069C8.50975 52.3408 8.39168 53.5739 8.26289 54.6725C8.22741 55.0045 8.1237 55.3247 7.95883 55.611C7.79396 55.8974 7.57183 56.1431 7.30763 56.3315C6.7126 56.7783 5.98942 56.9998 5.25759 56.9593C4.54414 57.0095 3.83992 56.7683 3.29341 56.2867C3.05577 56.0171 2.87174 55.7009 2.75198 55.3565C2.63222 55.012 2.57912 54.6462 2.59575 54.2801L6.63144 21.2448C6.72508 20.6629 7.01897 20.1367 7.4579 19.7651C8.03299 19.2573 8.76577 18.9863 9.51867 19.0028H10.1734C10.8257 18.986 11.473 19.1246 12.0663 19.4082C12.6596 19.6918 13.1832 20.1129 13.5973 20.6395C14.4491 21.9045 15.1687 23.2612 15.7439 24.6862C16.6241 26.6143 17.5471 28.8189 18.5131 31.3C19.4791 33.7811 20.4451 36.3407 21.4111 38.9787C22.3448 41.5122 23.225 43.855 23.9548 45.9625" fill="#1D1D1B"/>
<path d="M15.8162 0.0335061H65.3473C70.0156 0.0335061 72.3391 3.68567 72.8423 8.51055L73.0565 10.0518C73.1408 10.8497 72.919 11.6499 72.4395 12.2777C71.96 12.9055 71.2618 13.3099 70.4975 13.4024C69.7473 13.4645 69.004 13.2155 68.4287 12.7095C67.8535 12.2035 67.4926 11.4813 67.4245 10.6996L67.2104 9.21418C67.0069 7.38251 66.2682 5.96408 64.4801 5.96408H16.6942C14.9061 5.96408 14.1673 7.38251 13.9532 9.21418L13.7604 10.6773C13.6925 11.4602 13.3297 12.1831 12.7517 12.6877C12.1737 13.1922 11.4276 13.4372 10.6768 13.3689C10.2977 13.3245 9.93079 13.2026 9.59696 13.0101C9.26312 12.8176 8.96895 12.5583 8.73127 12.2471C8.49359 11.9359 8.31707 11.5789 8.2118 11.1964C8.10654 10.814 8.07459 10.4136 8.11779 10.0183L8.32123 8.47704C8.878 3.66333 11.1907 0 15.8162 0" fill="#FF0000"/>
<path d="M105.038 33.7361C104.694 35.0633 104.339 36.4877 103.962 38.0523C103.586 39.6169 103.21 41.0197 102.887 42.3685C102.564 43.7173 102.188 44.9475 101.812 45.9941C101.61 46.7387 101.337 47.4615 100.994 48.1522C100.784 48.4947 100.482 48.7711 100.122 48.9504C99.7632 49.1296 99.3612 49.2045 98.9619 49.1665C98.5981 49.1574 98.2369 49.1031 97.8865 49.0047C97.6527 48.9337 97.4363 48.8145 97.2511 48.6547C97.0659 48.4949 96.9161 48.298 96.8111 48.0767C96.4707 47.3553 96.1971 46.604 95.9938 45.8323C95.6712 44.7532 95.3271 43.4368 94.9185 41.9801C94.5098 40.5233 94.198 38.9911 93.8431 37.3617C93.4882 35.7323 93.1441 34.2217 92.8645 32.8297C92.5849 31.4377 92.3268 30.24 92.1332 29.2688C91.9397 28.2977 91.8321 27.7042 91.7999 27.4992C91.7939 27.4166 91.7939 27.3336 91.7999 27.251V27.1107C91.794 26.9178 91.8338 26.7263 91.916 26.5518C91.9983 26.3773 92.1206 26.225 92.273 26.1072C92.6025 25.8457 93.0147 25.7117 93.4344 25.7295C93.8128 25.713 94.1874 25.8107 94.5098 26.0101C94.8201 26.2426 95.0282 26.5869 95.0905 26.9704C95.0905 26.9704 95.1551 27.3697 95.2841 28.0495C95.4131 28.7293 95.596 29.5386 95.8003 30.5421C96.0046 31.5456 96.2412 32.7002 96.4885 33.9627C96.7359 35.2252 97.0047 36.5093 97.2951 37.8041C97.5854 39.099 97.8543 40.3399 98.1339 41.5592C98.4135 42.7786 98.6608 43.8144 98.9081 44.6885C99.1447 43.8684 99.4136 42.9296 99.7039 41.8722C99.9943 40.8147 100.295 39.7141 100.586 38.635C100.876 37.5559 101.145 36.3798 101.414 35.2576C101.683 34.1353 101.93 33.0995 102.167 32.1067C102.403 31.114 102.586 30.2831 102.758 29.5278C102.93 28.7725 103.059 28.2221 103.156 27.8553C103.265 27.431 103.506 27.0529 103.844 26.7762C104.173 26.4769 104.595 26.3015 105.038 26.2799C105.511 26.2579 105.977 26.4073 106.35 26.7007C106.684 26.9734 106.913 27.3553 106.995 27.7797C107.285 28.9559 107.565 30.2939 107.877 31.7614C108.189 33.2289 108.522 34.7072 108.855 36.2071C109.189 37.707 109.554 39.1853 109.931 40.6312C110.307 42.0772 110.651 43.3505 111.006 44.4619C111.243 43.5878 111.512 42.552 111.791 41.3434C112.071 40.1349 112.34 38.8832 112.63 37.5883C112.92 36.2935 113.211 35.0418 113.469 33.7793C113.727 32.5168 113.985 31.3838 114.2 30.3802C114.415 29.3767 114.598 28.5566 114.716 27.9308C114.835 27.3049 114.921 26.9597 114.921 26.9381C114.995 26.5622 115.201 26.2255 115.501 25.9885C115.823 25.7866 116.198 25.6887 116.577 25.708C116.999 25.6932 117.414 25.8267 117.749 26.0856C117.899 26.2051 118.02 26.3578 118.102 26.5319C118.184 26.7059 118.225 26.8966 118.222 27.0891V27.2294C118.227 27.3157 118.227 27.4021 118.222 27.4884C118.222 27.6826 118.082 28.2653 117.878 29.258C117.674 30.2508 117.426 31.4161 117.136 32.8081C116.846 34.2001 116.512 35.7108 116.157 37.3186C115.802 38.9263 115.426 40.4586 115.082 41.9153C114.738 43.372 114.394 44.6561 114.006 45.7567C113.805 46.522 113.531 47.2663 113.189 47.9796C112.972 48.4327 112.586 48.7817 112.114 48.9507C111.767 49.0684 111.404 49.1338 111.038 49.145C110.892 49.1557 110.744 49.1557 110.598 49.145C110.386 49.1148 110.178 49.0679 109.974 49.0047C109.743 48.9222 109.526 48.8058 109.329 48.6594C109.103 48.4926 108.925 48.2693 108.812 48.012C108.498 47.2697 108.239 46.5051 108.038 45.7244C107.726 44.6453 107.404 43.4584 107.049 42.1203C106.694 40.7823 106.361 39.358 105.973 37.8905C105.586 36.4229 105.317 35.0525 105.027 33.7793" fill="#1D1D1B"/>
<path d="M124.213 42.9692C123.854 44.1727 123.538 45.287 123.274 46.3121C123.011 47.3373 122.736 48.173 122.504 48.8304C122.449 49.2737 122.228 49.6754 121.892 49.947C121.556 50.2187 121.131 50.3381 120.712 50.279C120.292 50.2199 119.912 49.9871 119.655 49.6319C119.398 49.2766 119.285 48.828 119.341 48.3847C119.339 48.218 119.364 48.0522 119.415 47.8944L119.858 46.3455C120.111 45.4764 120.438 44.3955 120.838 43.0807C121.239 41.7658 121.693 40.3618 122.178 38.8129C122.663 37.2641 123.169 35.7263 123.685 34.2109C124.202 32.6954 124.74 31.2803 125.225 29.9766C125.63 28.8811 126.105 27.8163 126.648 26.7897C126.802 26.4174 127.075 26.1139 127.418 25.9317C127.835 25.7642 128.28 25.6884 128.726 25.7088C129.184 25.6988 129.639 25.7859 130.065 25.9651C130.242 26.0547 130.4 26.1807 130.53 26.3356C130.661 26.4906 130.76 26.6715 130.824 26.8677C131.161 27.6143 131.562 28.6283 132.015 29.8874C132.469 31.1466 132.975 32.5172 133.481 33.988C133.987 35.4589 134.536 36.9521 134.999 38.4452C135.463 39.9384 135.959 41.3869 136.37 42.7018C136.781 44.0167 137.14 45.1421 137.425 46.0447C137.709 46.9473 137.91 47.5713 137.973 47.8498C138.024 48.0076 138.049 48.1734 138.047 48.3401C138.057 48.5481 138.024 48.756 137.949 48.9487C137.875 49.1415 137.76 49.3142 137.614 49.4544C137.448 49.6117 137.252 49.7313 137.04 49.806C136.828 49.8807 136.604 49.909 136.381 49.889C136.053 49.9216 135.725 49.8221 135.463 49.6104C135.242 49.391 135.079 49.1145 134.989 48.8081C134.746 48.1507 134.472 47.315 134.145 46.2898C133.819 45.2647 133.481 44.1504 133.091 42.9469H124.181L124.213 42.9692ZM132.089 39.6821C131.583 38.0552 131.119 36.562 130.666 35.2249C130.212 33.8877 129.812 32.6063 129.306 31.336C129.19 31.0574 129.063 30.7454 128.936 30.3666C128.81 29.9877 128.726 29.7983 128.705 29.7314C128.606 29.922 128.528 30.1239 128.473 30.3331C128.335 30.7343 128.219 31.0574 128.093 31.336C127.618 32.5617 127.165 33.8543 126.722 35.2249C126.279 36.5955 125.815 38.0775 125.32 39.6821H132.089Z" fill="#1D1D1B"/>
<path d="M144.549 39.9869C144.421 39.8602 144.305 39.723 144.201 39.5767L143.842 39.08C143.494 38.5942 143.136 38.0004 142.755 37.3094C142.375 36.6184 141.94 35.8843 141.538 35.1501C141.136 34.416 140.744 33.5846 140.375 32.7965C140.005 32.0083 139.636 31.2742 139.342 30.6372C139.049 30.0002 138.766 29.3632 138.549 28.8666C138.386 28.5181 138.251 28.157 138.147 27.7869C138.104 27.6969 138.072 27.6029 138.049 27.5062C138.049 27.5062 138.049 27.3658 138.049 27.2363C138.048 27.035 138.087 26.8356 138.166 26.6501C138.244 26.4645 138.36 26.2966 138.505 26.1566C138.676 26.0015 138.877 25.8823 139.096 25.8062C139.314 25.7302 139.546 25.6988 139.777 25.714C139.974 25.6919 140.174 25.7134 140.362 25.7768C140.55 25.8403 140.721 25.9442 140.864 26.0811C141.055 26.2937 141.206 26.5387 141.31 26.8044L141.668 27.6034C141.853 28.0136 142.081 28.5211 142.342 29.1257C142.603 29.7303 142.918 30.3997 143.266 31.1338C143.614 31.868 143.951 32.5698 144.353 33.2931L145.386 35.3121C145.666 35.8554 145.978 36.3817 146.32 36.8884C146.875 36.0287 147.379 35.1384 147.831 34.2216C148.364 33.142 148.918 32.1163 149.364 31.069C149.809 30.0218 150.277 29.1041 150.646 28.3159L151.288 26.8152C151.395 26.549 151.55 26.304 151.744 26.0919C151.883 25.9496 152.054 25.8421 152.243 25.7783C152.432 25.7145 152.634 25.6962 152.831 25.7248C153.062 25.7083 153.294 25.7391 153.513 25.8152C153.732 25.8914 153.933 26.0112 154.103 26.1674C154.252 26.3046 154.37 26.4719 154.449 26.6581C154.528 26.8444 154.565 27.0452 154.559 27.2471C154.571 27.3367 154.571 27.4274 154.559 27.517L154.472 27.7977L154.048 28.8774C153.842 29.3848 153.581 29.957 153.266 30.648C152.951 31.339 152.625 32.0623 152.255 32.8073C151.886 33.5522 151.472 34.3728 151.07 35.1609C150.668 35.9491 150.266 36.6724 149.864 37.3202C149.462 37.968 149.081 38.6266 148.777 39.1016C148.569 39.4038 148.332 39.6858 148.07 39.9438V47.5013C148.081 47.7215 148.046 47.9414 147.967 48.1476C147.889 48.3537 147.769 48.5417 147.614 48.6997C147.303 49.005 146.883 49.1762 146.445 49.1762C146.008 49.1762 145.588 49.005 145.277 48.6997C145.11 48.5389 144.979 48.3456 144.891 48.132C144.803 47.9183 144.76 47.6889 144.766 47.4581V39.9006" fill="#1D1D1B"/>
</svg>
