<svg width="29" height="27" viewBox="0 0 29 27" fill="none" xmlns="http://www.w3.org/2000/svg">
<path d="M2.47818 23.426L2.38741 24.1328C2.37791 24.2087 2.3836 24.2856 2.40417 24.3593C2.42473 24.4329 2.45975 24.5018 2.50722 24.5619C2.55469 24.622 2.61366 24.6722 2.68073 24.7095C2.7478 24.7469 2.82165 24.7707 2.89801 24.7795H26.0111C26.0886 24.7805 26.1655 24.7663 26.2375 24.7377C26.3095 24.7092 26.3751 24.6668 26.4306 24.613C26.4861 24.5593 26.5303 24.4952 26.5609 24.4244C26.5915 24.3536 26.6077 24.2775 26.6087 24.2005C26.6107 24.1767 26.6107 24.1528 26.6087 24.1291L26.5142 23.4222C26.4877 23.1577 26.5674 22.8935 26.736 22.6872C26.9046 22.4808 27.1484 22.3491 27.4143 22.3206C27.5447 22.3065 27.6766 22.3181 27.8025 22.3547C27.9284 22.3913 28.0458 22.4522 28.148 22.5339C28.2502 22.6156 28.3352 22.7165 28.3982 22.8309C28.4611 22.9452 28.5008 23.0708 28.5149 23.2004L28.6057 23.8884C28.7835 25.4187 27.9098 26.7646 26.3364 26.7646H2.6446C1.08633 26.7646 0.21642 25.4187 0.394184 23.8884L0.484957 23.2004C0.498179 23.0715 0.536868 22.9464 0.598807 22.8323C0.660746 22.7183 0.744718 22.6175 0.845909 22.5358C0.947101 22.4541 1.06352 22.393 1.1885 22.3561C1.31348 22.3191 1.44456 22.3071 1.57423 22.3206C1.84044 22.35 2.08425 22.4825 2.25277 22.6895C2.42129 22.8964 2.50093 23.1611 2.4744 23.426" fill="#165957"/>
<path d="M23.7719 18.1138C24.2717 18.1405 24.7618 17.969 25.1348 17.6371C25.5077 17.3051 25.733 16.8398 25.7613 16.3429C25.7631 16.3104 25.7631 16.2778 25.7613 16.2452C25.7386 15.1511 24.7363 14.4443 23.6206 14.4405H21.3626C21.1118 14.4405 20.8713 14.3415 20.694 14.1652C20.5167 13.9889 20.417 13.7499 20.417 13.5006C20.417 13.2513 20.5167 13.0122 20.694 12.836C20.8713 12.6597 21.1118 12.5607 21.3626 12.5607H22.8755C23.8929 12.5193 24.6758 11.9065 24.725 10.9552C24.7741 9.92884 23.8891 9.16186 22.8112 9.16186H19.15V18.0987H23.7719V18.1138ZM26.5442 10.9552C26.5459 11.3474 26.4688 11.736 26.3174 12.0981C26.1661 12.4603 25.9436 12.7888 25.663 13.0645L25.6062 13.1284L25.6819 13.1735C26.235 13.4792 26.6996 13.9214 27.0308 14.4574C27.362 14.9934 27.5488 15.6053 27.573 16.2339C27.5862 17.2266 27.2038 18.1842 26.5094 18.8977C25.815 19.6112 24.8649 20.0228 23.8664 20.0425H18.1931C17.9306 20.0386 17.6803 19.9316 17.4968 19.745C17.3133 19.5583 17.2115 19.3072 17.2135 19.0462V8.31968C17.2115 8.1881 17.236 8.05746 17.2856 7.93546C17.3352 7.81346 17.4089 7.70257 17.5023 7.60935C17.5957 7.51613 17.707 7.44246 17.8295 7.39269C17.9521 7.34292 18.0834 7.31806 18.2158 7.31959H22.8112C23.774 7.29329 24.7079 7.64794 25.4079 8.30566C26.1078 8.96338 26.5165 9.87037 26.5442 10.8274V10.9515" fill="#165957"/>
<path d="M8.60151 16.3726L8.62798 16.4478L8.65446 16.3726C8.91165 15.6658 9.22557 14.8687 9.55463 14.0303C9.88368 13.1919 10.2354 12.2745 10.572 11.4549C10.9087 10.6353 11.2377 9.88331 11.5479 9.23664C11.752 8.75939 12.0055 8.30452 12.3043 7.87937C12.4499 7.69967 12.6351 7.55568 12.8456 7.45854C13.0562 7.3614 13.2863 7.31371 13.5184 7.31917H13.7491C14.0114 7.3083 14.2689 7.39098 14.4753 7.55228C14.6337 7.68284 14.7364 7.86825 14.7627 8.07112L16.2038 19.1623C16.2096 19.2851 16.1909 19.4078 16.1487 19.5233C16.1065 19.6389 16.0417 19.7449 15.9579 19.8353C15.7628 19.9977 15.512 20.0785 15.2582 20.0609C14.999 20.0754 14.7427 20.001 14.532 19.8504C14.4389 19.7872 14.3606 19.7047 14.3025 19.6087C14.2445 19.5127 14.2079 19.4053 14.1954 19.2939C14.1462 18.9179 14.1046 18.5157 14.0592 18.0645C14.0139 17.6133 13.7718 15.6846 13.7075 15.1921C13.6432 14.6995 13.2461 11.5602 13.1061 10.421V10.3232L12.6447 11.2857C12.4896 11.6165 12.3194 12.0113 12.1341 12.4738C11.9488 12.9362 11.7559 13.425 11.5781 13.9438C11.4003 14.4627 10.4851 16.9742 10.4851 16.9742C10.4018 17.2035 10.243 17.666 10.1068 18.1021C9.97067 18.5382 9.83073 18.9104 9.79669 18.9819C9.64064 19.2854 9.3697 19.515 9.04345 19.62C8.7172 19.7251 8.36233 19.697 8.05687 19.5421C7.80823 19.4187 7.60555 19.2199 7.47819 18.9743C7.44037 18.9029 7.31177 18.5194 7.16427 18.0946C7.01676 17.6697 6.87304 17.211 6.78605 16.9666C6.78605 16.9666 5.89722 14.4326 5.69677 13.9363C5.49631 13.44 5.31855 12.9325 5.14078 12.4662C4.96302 12 4.78147 11.609 4.63018 11.2782L4.16497 10.327V10.4247C4.02503 11.5526 3.62411 14.6958 3.55982 15.1958C3.49552 15.6959 3.26102 17.6058 3.20807 18.0532C3.15512 18.5006 3.11351 18.9142 3.06813 19.2826C3.05563 19.394 3.01908 19.5014 2.96098 19.5974C2.90289 19.6935 2.82461 19.7759 2.73151 19.8391C2.52183 19.9889 2.267 20.0632 2.00911 20.0496C1.7577 20.0665 1.50954 19.9856 1.31696 19.824C1.23322 19.7336 1.16837 19.6276 1.12617 19.512C1.08397 19.3965 1.06526 19.2738 1.07112 19.1511L2.49323 8.07112C2.52623 7.87594 2.62979 7.69946 2.78446 7.57483C2.98711 7.40453 3.24534 7.31362 3.51065 7.31917H3.74136C3.97121 7.31352 4.19933 7.36002 4.40839 7.45513C4.61746 7.55025 4.80196 7.69148 4.94789 7.86809C5.24804 8.29238 5.50163 8.7474 5.70433 9.22536C6.01447 9.87203 6.33974 10.6114 6.68014 11.4436C7.02054 12.2758 7.36094 13.1342 7.70134 14.019C8.03039 14.8687 8.34054 15.6545 8.59773 16.3613" fill="#165957"/>
<path d="M5.78045 0.611827H23.277C24.926 0.611827 25.7468 1.84126 25.9245 3.46546L26.0002 3.98431C26.03 4.25289 25.9516 4.52227 25.7822 4.73362C25.6129 4.94496 25.3662 5.08107 25.0962 5.11223C24.8312 5.1331 24.5687 5.04929 24.3655 4.87896C24.1622 4.70862 24.0348 4.46552 24.0107 4.20237L23.9351 3.70233C23.8632 3.08573 23.6022 2.60824 22.9706 2.60824H6.09059C5.45896 2.60824 5.19799 3.08573 5.12235 3.70233L5.05427 4.19485C5.03025 4.45842 4.90212 4.70177 4.69795 4.87161C4.49378 5.04145 4.23021 5.12392 3.96499 5.10095C3.83109 5.08599 3.70147 5.04494 3.58354 4.98014C3.46562 4.91534 3.36171 4.82806 3.27775 4.7233C3.19379 4.61854 3.13143 4.49835 3.09425 4.36961C3.05706 4.24087 3.04578 4.10611 3.06104 3.97303L3.1329 3.45419C3.32958 1.83374 4.14653 0.600548 5.78045 0.600548" fill="#165957"/>
</svg>
