<svg width="59" height="29" viewBox="0 0 59 29" fill="none" xmlns="http://www.w3.org/2000/svg">
<path d="M2.29378 25.1603L2.19495 25.9732C2.18461 26.0604 2.19081 26.1489 2.21319 26.2336C2.23558 26.3183 2.27371 26.3975 2.32539 26.4666C2.37707 26.5358 2.44127 26.5935 2.51429 26.6364C2.58732 26.6794 2.66772 26.7067 2.75085 26.7169H27.9147C27.9991 26.718 28.0828 26.7017 28.1612 26.6689C28.2395 26.636 28.3109 26.5873 28.3714 26.5255C28.4318 26.4636 28.48 26.3899 28.5133 26.3085C28.5466 26.2271 28.5642 26.1396 28.5653 26.051C28.5675 26.0237 28.5675 25.9962 28.5653 25.9689L28.4624 25.1559C28.4335 24.8517 28.5204 24.5479 28.7039 24.3106C28.8875 24.0732 29.1529 23.9217 29.4424 23.889C29.5844 23.8728 29.728 23.8861 29.865 23.9282C30.0021 23.9703 30.1299 24.0403 30.2412 24.1343C30.3524 24.2282 30.445 24.3443 30.5135 24.4758C30.5821 24.6073 30.6253 24.7518 30.6407 24.9008L30.7395 25.6921C30.933 27.452 29.9818 29 28.2688 29H2.47496C0.77843 29 -0.168663 27.452 0.024873 25.6921L0.1237 24.9008C0.138095 24.7525 0.180217 24.6087 0.247651 24.4775C0.315086 24.3464 0.406508 24.2305 0.516678 24.1365C0.626848 24.0425 0.7536 23.9722 0.889669 23.9298C1.02574 23.8873 1.16845 23.8735 1.30963 23.889C1.59944 23.9228 1.86489 24.0752 2.04836 24.3132C2.23184 24.5512 2.31854 24.8556 2.28966 25.1603" fill="white"/>
<path d="M25.4795 19.5521C26.0082 19.5825 26.5266 19.3871 26.921 19.0089C27.3154 18.6306 27.5537 18.1003 27.5836 17.5341C27.5856 17.497 27.5856 17.4598 27.5836 17.4227C27.5596 16.176 26.4996 15.3705 25.3195 15.3662H22.9314C22.6661 15.3662 22.4118 15.2534 22.2242 15.0525C22.0367 14.8516 21.9313 14.5792 21.9313 14.2951C21.9313 14.0111 22.0367 13.7386 22.2242 13.5377C22.4118 13.3369 22.6661 13.224 22.9314 13.224H24.5315C25.6075 13.1769 26.4356 12.4785 26.4876 11.3946C26.5396 10.2249 25.6035 9.35092 24.4635 9.35092H20.5912V19.535H25.4795V19.5521ZM28.4117 11.3946C28.4134 11.8415 28.3319 12.2843 28.1719 12.697C28.0118 13.1097 27.7765 13.4841 27.4796 13.7981L27.4196 13.871L27.4996 13.9224C28.0846 14.2707 28.576 14.7746 28.9263 15.3855C29.2767 15.9963 29.4741 16.6935 29.4998 17.4099C29.5137 18.5411 29.1093 19.6323 28.3749 20.4454C27.6405 21.2585 26.6356 21.7275 25.5795 21.75H19.5792C19.3015 21.7455 19.0368 21.6236 18.8427 21.4109C18.6487 21.1982 18.5409 20.912 18.5431 20.6146V8.39121C18.5409 8.24127 18.5669 8.0924 18.6193 7.95337C18.6718 7.81434 18.7497 7.68799 18.8485 7.58175C18.9474 7.47552 19.065 7.39157 19.1947 7.33486C19.3243 7.27815 19.4632 7.24982 19.6032 7.25156H24.4635C25.4818 7.22159 26.4695 7.62574 27.2098 8.37524C27.9501 9.12474 28.3824 10.1583 28.4117 11.2489V11.3903" fill="#FCFCFC"/>
<path d="M9.02161 17.5511L9.05036 17.6367L9.07911 17.5511C9.35841 16.747 9.69932 15.8402 10.0567 14.8863C10.414 13.9324 10.796 12.8887 11.1615 11.9563C11.5271 11.0238 11.8844 10.1683 12.2212 9.43257C12.4429 8.88961 12.7182 8.37211 13.0427 7.88842C13.2008 7.68398 13.4019 7.52016 13.6306 7.40964C13.8592 7.29912 14.1092 7.24487 14.3611 7.25108H14.6117C14.8965 7.23871 15.1762 7.33277 15.4003 7.51628C15.5723 7.66483 15.6839 7.87576 15.7125 8.10657L17.2773 20.725C17.2837 20.8647 17.2634 21.0043 17.2176 21.1357C17.1717 21.2671 17.1013 21.3878 17.0104 21.4907C16.7985 21.6753 16.5261 21.7673 16.2505 21.7473C15.9691 21.7637 15.6907 21.6792 15.4619 21.5078C15.3608 21.4359 15.2758 21.3421 15.2127 21.2328C15.1496 21.1236 15.1099 21.0014 15.0964 20.8747C15.043 20.447 14.9978 19.9893 14.9485 19.476C14.8992 18.9627 14.6363 16.7684 14.5665 16.208C14.4967 15.6477 14.0654 12.076 13.9134 10.78V10.6687L13.4123 11.7638C13.2439 12.1402 13.0591 12.5893 12.8579 13.1154C12.6566 13.6416 12.4471 14.1976 12.2541 14.7879C12.061 15.3782 11.0671 18.2355 11.0671 18.2355C10.9767 18.4964 10.8042 19.0226 10.6563 19.5188C10.5085 20.0149 10.3565 20.4384 10.3195 20.5197C10.1501 20.865 9.85584 21.1262 9.50154 21.2457C9.14724 21.3652 8.76187 21.3333 8.43015 21.157C8.16014 21.0167 7.94004 20.7904 7.80173 20.5111C7.76066 20.4298 7.62101 19.9936 7.46082 19.5102C7.30064 19.0269 7.14456 18.505 7.05009 18.227C7.05009 18.227 6.08487 15.344 5.86718 14.7794C5.64949 14.2147 5.45645 13.6373 5.2634 13.1069C5.07036 12.5765 4.87321 12.1316 4.70891 11.7552L4.20371 10.673V10.7842C4.05174 12.0675 3.61636 15.6434 3.54654 16.2123C3.47671 16.7812 3.22206 18.9541 3.16456 19.4631C3.10705 19.9722 3.06187 20.4427 3.01259 20.8619C2.99901 20.9886 2.95932 21.1107 2.89623 21.22C2.83314 21.3293 2.74814 21.423 2.64703 21.4949C2.41933 21.6654 2.14259 21.7499 1.86253 21.7345C1.58951 21.7536 1.32003 21.6616 1.11089 21.4778C1.01995 21.3749 0.949527 21.2543 0.903698 21.1229C0.857869 20.9914 0.837549 20.8518 0.843914 20.7122L2.38827 8.10657C2.42411 7.88451 2.53657 7.68373 2.70454 7.54195C2.92461 7.34819 3.20503 7.24476 3.49314 7.25108H3.74369C3.9933 7.24465 4.24103 7.29755 4.46806 7.40576C4.69509 7.51397 4.89546 7.67465 5.05393 7.87559C5.37988 8.3583 5.65527 8.87597 5.8754 9.41974C6.2122 10.1555 6.56543 10.9967 6.93509 11.9434C7.30475 12.8902 7.67441 13.8668 8.04407 14.8735C8.4014 15.8402 8.7382 16.7341 9.0175 17.5383" fill="#FCFCFC"/>
<path d="M5.90309 0.0127852H24.8574C26.6439 0.0127852 27.533 1.40637 27.7256 3.24745L27.8075 3.83557C27.8398 4.14001 27.7549 4.44536 27.5714 4.68492C27.3879 4.92448 27.1208 5.07877 26.8283 5.11409C26.5412 5.13775 26.2567 5.04274 26.0366 4.84967C25.8165 4.6566 25.6784 4.38103 25.6523 4.08275L25.5704 3.51593C25.4925 2.81701 25.2098 2.27577 24.5255 2.27577H6.23907C5.55482 2.27577 5.2721 2.81701 5.19015 3.51593L5.1164 4.07422C5.09038 4.37298 4.95158 4.64883 4.73039 4.84134C4.50921 5.03386 4.22368 5.12734 3.93636 5.1013C3.79131 5.08435 3.65089 5.03782 3.52314 4.96437C3.39539 4.89091 3.28281 4.79198 3.19186 4.67323C3.10091 4.55448 3.03335 4.41825 2.99307 4.27232C2.95279 4.12639 2.94056 3.97363 2.9571 3.82278L3.03495 3.23466C3.24801 1.39785 4.13304 0 5.90309 0" fill="white"/>
<path d="M40.0461 12.8734C39.9144 13.3798 39.7786 13.9233 39.6345 14.5203C39.4905 15.1174 39.3465 15.6526 39.223 16.1673C39.0996 16.682 38.9555 17.1514 38.8115 17.5508C38.7345 17.8349 38.6297 18.1107 38.4987 18.3743C38.4181 18.5049 38.3025 18.6104 38.165 18.6788C38.0276 18.7472 37.8738 18.7758 37.721 18.7613C37.5818 18.7578 37.4435 18.7371 37.3094 18.6995C37.22 18.6725 37.1371 18.627 37.0663 18.566C36.9954 18.505 36.9381 18.4299 36.8979 18.3454C36.7676 18.0702 36.6629 17.7835 36.5852 17.489C36.4617 17.0773 36.33 16.5749 36.1736 16.0191C36.0173 15.4632 35.8979 14.8786 35.7621 14.2568C35.6263 13.6351 35.4946 13.0586 35.3876 12.5275C35.2806 11.9964 35.1819 11.5393 35.1078 11.1687C35.0337 10.7982 34.9926 10.5717 34.9802 10.4935C34.9779 10.462 34.9779 10.4303 34.9802 10.3988V10.3453C34.978 10.2716 34.9932 10.1986 35.0247 10.132C35.0561 10.0654 35.103 10.0073 35.1613 9.96234C35.2874 9.86257 35.4451 9.81142 35.6057 9.81823C35.7505 9.81191 35.8939 9.84921 36.0173 9.92528C36.136 10.014 36.2156 10.1454 36.2395 10.2917C36.2395 10.2917 36.2642 10.4441 36.3135 10.7035C36.3629 10.9629 36.4329 11.2717 36.5111 11.6546C36.5893 12.0375 36.6798 12.4781 36.7745 12.9598C36.8691 13.4416 36.972 13.9315 37.0831 14.4256C37.1942 14.9197 37.2971 15.3932 37.4041 15.8585C37.5111 16.3238 37.6057 16.719 37.7004 17.0526C37.7909 16.7396 37.8938 16.3814 38.0049 15.9779C38.116 15.5744 38.2312 15.1544 38.3424 14.7427C38.4535 14.3309 38.5563 13.8821 38.6592 13.4539C38.7621 13.0257 38.8568 12.6304 38.9473 12.2516C39.0378 11.8728 39.1078 11.5558 39.1736 11.2676C39.2395 10.9793 39.2889 10.7694 39.3259 10.6294C39.3675 10.4675 39.4598 10.3232 39.5893 10.2176C39.715 10.1034 39.8765 10.0365 40.0461 10.0282C40.2272 10.0199 40.4054 10.0768 40.5481 10.1888C40.6761 10.2929 40.7635 10.4386 40.795 10.6005C40.9061 11.0493 41.0131 11.5599 41.1325 12.1199C41.2518 12.6798 41.3794 13.2439 41.507 13.8163C41.6345 14.3886 41.7745 14.9527 41.9185 15.5044C42.0625 16.0561 42.1942 16.542 42.33 16.9661C42.4205 16.6326 42.5234 16.2373 42.6304 15.7762C42.7374 15.315 42.8403 14.8374 42.9514 14.3433C43.0625 13.8492 43.1736 13.3716 43.2724 12.8898C43.3712 12.4081 43.4699 11.9758 43.5522 11.5928C43.6345 11.2099 43.7045 10.897 43.7498 10.6582C43.795 10.4194 43.8279 10.2876 43.8279 10.2794C43.8565 10.136 43.9353 10.0075 44.0502 9.91705C44.1731 9.84001 44.3168 9.80264 44.4617 9.80999C44.6234 9.80435 44.782 9.85532 44.9102 9.9541C44.9678 9.9997 45.0141 10.058 45.0455 10.1244C45.0769 10.1908 45.0926 10.2636 45.0913 10.337V10.3906C45.0933 10.4235 45.0933 10.4565 45.0913 10.4894C45.0913 10.5635 45.0378 10.7858 44.9596 11.1646C44.8814 11.5434 44.7868 11.9881 44.6757 12.5193C44.5646 13.0504 44.437 13.6269 44.3012 14.2404C44.1654 14.8539 44.0214 15.4385 43.8897 15.9944C43.758 16.5502 43.6263 17.0402 43.4782 17.4602C43.401 17.7522 43.2963 18.0362 43.1654 18.3084C43.0823 18.4813 42.9344 18.6144 42.7539 18.6789C42.6211 18.7238 42.4824 18.7488 42.3424 18.7531C42.2862 18.7571 42.2298 18.7571 42.1736 18.7531C42.0928 18.7416 42.013 18.7237 41.9349 18.6995C41.8466 18.668 41.7634 18.6236 41.688 18.5678C41.6017 18.5041 41.5336 18.4189 41.4905 18.3207C41.3703 18.0375 41.2713 17.7457 41.1942 17.4478C41.0749 17.0361 40.9514 16.5832 40.8156 16.0726C40.6798 15.562 40.5522 15.0185 40.4041 14.4586C40.2559 13.8986 40.1531 13.3757 40.0419 12.8898" fill="#FCFCFC"/>
<path d="M47.3837 16.3965C47.2465 16.8557 47.1255 17.2809 47.0246 17.6721C46.9237 18.0633 46.8188 18.3822 46.73 18.633C46.7086 18.8022 46.6243 18.9555 46.4957 19.0591C46.3671 19.1628 46.2046 19.2083 46.0441 19.1858C45.8836 19.1632 45.7381 19.0744 45.6397 18.9389C45.5414 18.8033 45.4981 18.6321 45.5195 18.463C45.5187 18.3994 45.5283 18.3361 45.5478 18.2759L45.7172 17.6849C45.8141 17.3532 45.9392 16.9408 46.0925 16.4391C46.2458 15.9373 46.4193 15.4016 46.6049 14.8106C46.7906 14.2196 46.9842 13.6328 47.182 13.0545C47.3797 12.4763 47.5855 11.9363 47.7711 11.4388C47.926 11.0208 48.108 10.6145 48.3158 10.2228C48.3747 10.0807 48.4789 9.96488 48.6104 9.89537C48.7699 9.83146 48.9402 9.80252 49.1107 9.81033C49.286 9.8065 49.4603 9.83975 49.6232 9.90812C49.6909 9.9423 49.7515 9.99037 49.8013 10.0495C49.8512 10.1086 49.8894 10.1777 49.9137 10.2525C50.0428 10.5374 50.1961 10.9243 50.3696 11.4048C50.5432 11.8853 50.7368 12.4082 50.9305 12.9695C51.1242 13.5307 51.334 14.1005 51.5116 14.6703C51.6891 15.24 51.8788 15.7928 52.0361 16.2945C52.1935 16.7962 52.3307 17.2257 52.4396 17.5701C52.5486 17.9145 52.6252 18.1526 52.6495 18.2589C52.6689 18.3191 52.6785 18.3823 52.6777 18.446C52.6818 18.5253 52.6691 18.6046 52.6404 18.6782C52.6118 18.7517 52.568 18.8176 52.5123 18.8711C52.4484 18.9311 52.3736 18.9768 52.2924 19.0053C52.2113 19.0338 52.1254 19.0446 52.0402 19.037C51.9146 19.0494 51.7892 19.0115 51.6891 18.9307C51.6044 18.8469 51.5419 18.7414 51.5075 18.6245C51.4147 18.3737 51.3098 18.0548 51.1847 17.6636C51.0596 17.2724 50.9305 16.8472 50.7812 16.388H47.3716L47.3837 16.3965ZM50.3979 15.1422C50.2042 14.5214 50.0267 13.9517 49.8532 13.4415C49.6797 12.9312 49.5263 12.4423 49.3326 11.9575C49.2883 11.8512 49.2398 11.7322 49.1914 11.5876C49.143 11.4431 49.1107 11.3708 49.1026 11.3453C49.0648 11.418 49.035 11.495 49.0139 11.5749C48.9614 11.7279 48.917 11.8512 48.8686 11.9575C48.687 12.4253 48.5135 12.9185 48.3441 13.4415C48.1746 13.9644 47.997 14.5299 47.8074 15.1422H50.3979Z" fill="#FCFCFC"/>
<path d="M55.1658 15.2586C55.117 15.2102 55.0725 15.1578 55.0327 15.102L54.8954 14.9125C54.7623 14.7271 54.6251 14.5005 54.4795 14.2369C54.3339 13.9732 54.1676 13.6931 54.0137 13.4129C53.8598 13.1328 53.71 12.8156 53.5686 12.5148C53.4272 12.2141 53.2858 11.9339 53.1734 11.6909C53.0611 11.4478 52.953 11.2048 52.8698 11.0153C52.8073 10.8823 52.7558 10.7445 52.7159 10.6033C52.6998 10.5689 52.6872 10.533 52.6785 10.4962C52.6785 10.4962 52.6785 10.4426 52.6785 10.3932C52.678 10.3164 52.6932 10.2403 52.7232 10.1695C52.7533 10.0987 52.7975 10.0346 52.8532 9.9812C52.9186 9.92201 52.9954 9.87653 53.0791 9.8475C53.1627 9.81847 53.2514 9.8065 53.3398 9.81229C53.4153 9.80387 53.4917 9.81206 53.5636 9.83627C53.6355 9.86049 53.7011 9.90013 53.7558 9.95237C53.8289 10.0335 53.8866 10.127 53.9263 10.2284L54.0636 10.5332C54.1343 10.6898 54.2216 10.8834 54.3214 11.1141C54.4213 11.3448 54.5419 11.6002 54.675 11.8804C54.8081 12.1605 54.937 12.4283 55.0909 12.7043L55.4861 13.4747C55.5932 13.682 55.7127 13.8829 55.8438 14.0762C56.0559 13.7482 56.2489 13.4084 56.422 13.0586C56.6258 12.6467 56.8379 12.2553 57.0084 11.8557C57.179 11.4561 57.3578 11.1059 57.4992 10.8051L57.7447 10.2325C57.7858 10.1309 57.845 10.0374 57.9193 9.95648C57.9725 9.9022 58.038 9.86119 58.1103 9.83684C58.1826 9.81249 58.2597 9.80549 58.3353 9.81641C58.4238 9.81013 58.5126 9.82188 58.5963 9.85093C58.68 9.87998 58.7568 9.92572 58.8219 9.98532C58.8791 10.0377 58.9242 10.1015 58.9544 10.1726C58.9845 10.2436 58.9989 10.3203 58.9966 10.3973C59.001 10.4315 59.001 10.4661 58.9966 10.5003L58.9634 10.6074L58.8011 11.0194C58.7221 11.213 58.6223 11.4313 58.5017 11.695C58.381 11.9587 58.2563 12.2347 58.1148 12.5189C57.9734 12.8032 57.8154 13.1163 57.6615 13.417C57.5076 13.7178 57.3537 13.9938 57.1998 14.241C57.0459 14.4882 56.9003 14.7395 56.7838 14.9207C56.7041 15.0361 56.6136 15.1436 56.5135 15.2421V18.1259C56.5175 18.2099 56.5041 18.2938 56.4741 18.3725C56.444 18.4512 56.398 18.5229 56.3388 18.5832C56.2197 18.6996 56.059 18.765 55.8916 18.765C55.7242 18.765 55.5636 18.6996 55.4445 18.5832C55.3807 18.5218 55.3304 18.4481 55.2967 18.3665C55.2631 18.285 55.2468 18.1974 55.249 18.1094V15.2256" fill="#FCFCFC"/>
</svg>
