<svg width="95" height="112" viewBox="0 0 95 112" fill="none" xmlns="http://www.w3.org/2000/svg">
<path fill-rule="evenodd" clip-rule="evenodd" d="M47.0251 90.1936H85.7226C94.5532 90.1936 94.6453 80.7792 93.7432 76.1335C93.2523 73.0077 87.9564 73.0569 87.3734 76.1335V79.7578C87.3717 80.5569 87.0544 81.3229 86.4909 81.8879C85.9273 82.453 85.1634 82.7712 84.3664 82.7728H10.187C9.38999 82.7712 8.6261 82.453 8.06254 81.8879C7.49898 81.3229 7.18166 80.5569 7.18004 79.7578V76.1335C6.59706 73.0569 1.30116 73.0077 0.810226 76.1335C-0.0918565 80.7792 0.000192612 90.1936 8.83079 90.1936H47.0251ZM19.6742 0H79.3344C83.5257 0 86.9561 3.64269 86.9561 8.09146V11.9557C86.9561 17.4197 79.5921 17.3951 79.5921 11.9926V9.88819C79.5921 9.23542 79.3335 8.60938 78.8732 8.1478C78.4129 7.68622 77.7885 7.42691 77.1375 7.42691H17.3546C16.7035 7.42691 16.0792 7.68622 15.6189 8.1478C15.1585 8.60938 14.8999 9.23542 14.8999 9.88819V11.9557C14.8999 17.3889 7.86734 17.352 7.86734 12.0726V8.09761C7.88575 3.64885 11.31 0 15.5013 0H19.6742Z" fill="#3D73B9"/>
<path fill-rule="evenodd" clip-rule="evenodd" d="M85.4518 44.4326C87.5003 45.3499 89.2454 46.834 90.4824 48.7108C91.7193 50.5876 92.3968 52.7792 92.4352 55.0284C92.4352 61.5385 86.765 66.8672 79.8368 66.8672H60.4021C59.559 66.8923 58.74 66.5835 58.1221 66.0078C57.5043 65.432 57.1373 64.6355 57.1006 63.7906V26.6991C57.1038 25.8374 57.4471 25.012 58.0553 24.4032C58.6636 23.7945 59.4875 23.4518 60.3469 23.4502H76.5291C78.9554 23.4446 81.3297 24.1555 83.3556 25.4943C85.3815 26.8331 86.9693 28.7404 87.921 30.9783C88.8726 33.2162 89.146 35.6856 88.7068 38.0783C88.2677 40.471 87.1356 42.681 85.4518 44.4326ZM70.9509 41.4176H77.1182V41.3499C78.5023 41.1321 79.7638 40.4274 80.6768 39.3619C81.5899 38.2964 82.0948 36.9399 82.1012 35.5351C82.0963 33.9765 81.4767 32.4831 80.3775 31.381C79.2784 30.2788 77.789 29.6575 76.2346 29.6527H63.8079V60.4186H79.5606C80.3726 60.4446 81.1816 60.3066 81.9394 60.0129C82.6972 59.7192 83.3884 59.2757 83.9719 58.709C84.5555 58.1422 85.0194 57.4636 85.3363 56.7134C85.6532 55.9633 85.8165 55.157 85.8165 54.3424C85.8165 53.5277 85.6532 52.7214 85.3363 51.9713C85.0194 51.2212 84.5555 50.5426 83.9719 49.9758C83.3884 49.409 82.6972 48.9656 81.9394 48.6719C81.1816 48.3782 80.3726 48.2402 79.5606 48.2661H77.106H70.9509C70.5037 48.2661 70.0608 48.1777 69.6476 48.0061C69.2344 47.8345 68.8589 47.583 68.5427 47.2658C68.2264 46.9487 67.9755 46.5723 67.8044 46.1579C67.6332 45.7436 67.5451 45.2995 67.5451 44.8511C67.5451 44.4026 67.6332 43.9585 67.8044 43.5442C67.9755 43.1298 68.2264 42.7534 68.5427 42.4363C68.8589 42.1192 69.2344 41.8676 69.6476 41.696C70.0608 41.5244 70.5037 41.436 70.9509 41.436" fill="#1D1D1B"/>
<path d="M22.1328 101.579C22.1328 101.301 22.2427 101.035 22.4384 100.839C22.634 100.643 22.8993 100.533 23.176 100.533C23.4527 100.533 23.7181 100.643 23.9137 100.839C24.1093 101.035 24.2193 101.301 24.2193 101.579V107.227C24.2176 108.469 23.7253 109.66 22.85 110.539C21.9748 111.418 20.7879 111.913 19.5493 111.916C18.3107 111.915 17.1232 111.421 16.2467 110.543C15.3703 109.666 14.8764 108.476 14.8732 107.234V101.585C14.8622 101.441 14.8809 101.297 14.9282 101.161C14.9754 101.025 15.0503 100.9 15.1479 100.794C15.2456 100.688 15.364 100.604 15.4957 100.546C15.6274 100.489 15.7696 100.459 15.9133 100.459C16.0571 100.459 16.1993 100.489 16.331 100.546C16.4627 100.604 16.5811 100.688 16.6788 100.794C16.7764 100.9 16.8512 101.025 16.8985 101.161C16.9458 101.297 16.9645 101.441 16.9535 101.585V107.234C16.9599 107.923 17.2363 108.582 17.7231 109.069C18.2098 109.556 18.8679 109.832 19.5554 109.836C20.2439 109.833 20.9032 109.557 21.3895 109.068C21.8758 108.58 22.1496 107.918 22.1512 107.227L22.1328 101.579Z" fill="#1D1D1B"/>
<path d="M32.0018 109.83C32.2785 109.83 32.5438 109.94 32.7395 110.136C32.9351 110.332 33.045 110.598 33.045 110.876C33.045 111.153 32.9351 111.419 32.7395 111.615C32.5438 111.812 32.2785 111.922 32.0018 111.922H29.1053C28.0686 111.922 27.0743 111.509 26.3412 110.774C25.6081 110.039 25.1963 109.042 25.1963 108.002V101.578C25.1963 101.302 25.3056 101.038 25.5 100.843C25.6945 100.648 25.9583 100.538 26.2334 100.538C26.5084 100.538 26.7722 100.648 26.9667 100.843C27.1612 101.038 27.2705 101.302 27.2705 101.578V107.99C27.2705 108.479 27.4644 108.949 27.8097 109.295C28.1549 109.641 28.6232 109.836 29.1115 109.836H32.0018V109.83Z" fill="#1D1D1B"/>
<path d="M54.0132 63.1675C54.0883 63.6885 54.0578 64.2194 53.9236 64.7283C53.7893 65.2372 53.5541 65.7137 53.2318 66.1294C52.9096 66.545 52.5071 66.8911 52.0483 67.1471C51.5896 67.4031 51.084 67.5636 50.5619 67.6191C50.0398 67.6746 49.512 67.6239 49.0099 67.4701C48.5078 67.3163 48.0418 67.0624 47.6398 66.7238C47.2379 66.3851 46.9082 65.9687 46.6705 65.4993C46.4328 65.0299 46.292 64.5173 46.2565 63.992L43.0471 34.5121L31.7495 63.3398V63.4136V63.4752V63.5367V63.5736V63.629V63.6905C31.5018 64.1251 31.1701 64.5059 30.7738 64.8104L30.7125 64.8596C30.507 65.0456 30.2804 65.2067 30.0374 65.3396L29.9638 65.3765L29.8963 65.4134H29.8533H29.8042H29.7613H29.7122H29.6754H29.6324H29.5956H29.5588H29.5097C29.1428 65.5448 28.7577 65.6175 28.3683 65.6288H28.086C27.6483 65.6162 27.2163 65.5267 26.8096 65.3642H26.7543H26.6991H26.65H26.6132H26.5641H26.5211H26.4905L26.423 65.3273L26.3616 65.2904H26.3248C26.107 65.1739 25.9014 65.0358 25.7111 64.8781L25.5822 64.7612L25.4841 64.6689L25.2509 64.6074L25.1343 64.4781C24.977 64.2874 24.8393 64.0812 24.7231 63.8628V63.8259L24.6863 63.7644L24.6495 63.6967V63.6536V63.6044V63.5675V63.5121V63.4629V63.4075L13.1433 34.5121L9.94614 63.992C9.8371 65.0226 9.32423 65.9675 8.52037 66.6189C7.71651 67.2703 6.6875 67.5749 5.65971 67.4655C4.63193 67.3562 3.68955 66.8419 3.0399 66.0359C2.39025 65.2299 2.08655 64.1981 2.19559 63.1675L5.96347 28.4142C6.05446 27.5958 6.30022 26.8022 6.6876 26.076C7.17106 25.1687 7.86283 24.3898 8.70578 23.8035C9.54872 23.2172 10.5187 22.8403 11.5355 22.7041H11.7442C12.073 22.6796 12.4033 22.6796 12.7322 22.7041C13.1291 22.7199 13.5236 22.7735 13.9104 22.8641C14.9283 23.0978 15.8738 23.5777 16.6643 24.262C17.4547 24.9463 18.0662 25.8141 18.4454 26.7898L28.1044 51.2672L37.745 26.7098C38.1984 25.5458 38.9802 24.5394 39.9948 23.8138C41.0095 23.0882 42.213 22.6748 43.4582 22.6241C43.7871 22.5996 44.1173 22.5996 44.4462 22.6241H44.6549C45.6714 22.7613 46.6409 23.1385 47.4837 23.7247C48.3265 24.3109 49.0185 25.0894 49.5028 25.996C49.6909 26.3598 49.849 26.7385 49.9753 27.1282C50.0994 27.5291 50.1837 27.9413 50.2269 28.3589L54.0132 63.1675Z" fill="#1D1D1B"/>
<path d="M14.4688 110.758C14.4942 110.898 14.4906 111.043 14.4583 111.182C14.4261 111.321 14.3657 111.452 14.2811 111.566C14.1965 111.681 14.0893 111.777 13.9662 111.849C13.8431 111.921 13.7066 111.966 13.5653 111.983C13.4239 112 13.2806 111.988 13.1441 111.947C13.0077 111.906 12.8811 111.838 12.772 111.746C12.6629 111.654 12.5737 111.541 12.5098 111.413C12.446 111.286 12.4089 111.147 12.4008 111.004L11.511 103.479L8.32605 110.863C8.21672 111.117 8.01125 111.317 7.75472 111.42C7.49818 111.523 7.21152 111.519 6.95758 111.41C6.71358 111.305 6.51996 111.108 6.41756 110.863L3.23265 103.479L2.33671 111.004C2.32859 111.147 2.29147 111.286 2.22763 111.413C2.16379 111.541 2.07458 111.654 1.96549 111.746C1.8564 111.838 1.72975 111.906 1.59332 111.947C1.4569 111.988 1.31359 112 1.17222 111.983C1.03085 111.966 0.894405 111.921 0.771294 111.849C0.648183 111.777 0.541007 111.681 0.456365 111.566C0.371723 111.452 0.311405 111.321 0.279125 111.182C0.246844 111.043 0.243285 110.898 0.268666 110.758L1.31803 102.02C1.3517 101.745 1.45283 101.482 1.61238 101.256C1.77193 101.029 1.98493 100.846 2.23238 100.722C2.29759 100.686 2.36527 100.656 2.43489 100.63H2.51467C2.61394 100.595 2.71693 100.572 2.8215 100.562C3.08289 100.526 3.3491 100.548 3.6007 100.628C3.85231 100.708 4.08297 100.843 4.27588 101.024C4.3533 101.096 4.4232 101.177 4.48452 101.264C4.5298 101.326 4.57081 101.392 4.60726 101.46C4.63009 101.498 4.65059 101.537 4.66862 101.577L7.36873 107.854L10.0688 101.528C10.1798 101.277 10.3491 101.056 10.5626 100.883C10.7761 100.711 11.0276 100.592 11.2962 100.537C11.3974 100.517 11.4999 100.502 11.603 100.494H11.9221C12.1877 100.524 12.443 100.615 12.6685 100.759C12.8939 100.903 13.0836 101.096 13.2231 101.325C13.2812 101.42 13.3286 101.521 13.3642 101.627C13.3898 101.692 13.4084 101.76 13.4194 101.83C13.4224 101.875 13.4224 101.92 13.4194 101.965L14.4688 110.758Z" fill="#1D1D1B"/>
<path d="M36.5429 110.874C36.5429 111.151 36.433 111.417 36.2373 111.613C36.0417 111.81 35.7763 111.92 35.4997 111.92C35.223 111.92 34.9576 111.81 34.762 111.613C34.5663 111.417 34.4564 111.151 34.4564 110.874V102.622H31.4924C31.2158 102.622 30.9504 102.512 30.7548 102.316C30.5591 102.12 30.4492 101.854 30.4492 101.576C30.4492 101.299 30.5591 101.033 30.7548 100.837C30.9504 100.64 31.2158 100.53 31.4924 100.53H39.5069C39.7835 100.53 40.0489 100.64 40.2445 100.837C40.4402 101.033 40.5501 101.299 40.5501 101.576C40.5501 101.854 40.4402 102.12 40.2445 102.316C40.0489 102.512 39.7835 102.622 39.5069 102.622H36.5429V110.874Z" fill="#1D1D1B"/>
<path d="M43.0474 110.874C43.0474 111.151 42.9375 111.417 42.7418 111.613C42.5462 111.81 42.2808 111.92 42.0042 111.92C41.7275 111.92 41.4621 111.81 41.2665 111.613C41.0708 111.417 40.9609 111.151 40.9609 110.874V101.576C40.9609 101.299 41.0708 101.033 41.2665 100.837C41.4621 100.64 41.7275 100.53 42.0042 100.53C42.2808 100.53 42.5462 100.64 42.7418 100.837C42.9375 101.033 43.0474 101.299 43.0474 101.576V110.874Z" fill="#1D1D1B"/>
<path d="M64.4091 110.758C64.4267 111.025 64.3416 111.289 64.1715 111.495C64.0013 111.701 63.7589 111.833 63.4941 111.866C63.2293 111.898 62.9622 111.827 62.7478 111.668C62.5333 111.509 62.3878 111.274 62.341 111.011L61.9728 108.057H58.389C58.2457 108.068 58.1017 108.049 57.966 108.002C57.8302 107.955 57.7057 107.88 57.6003 107.782C57.4948 107.684 57.4107 107.565 57.3531 107.433C57.2956 107.301 57.2659 107.158 57.2659 107.014C57.2659 106.87 57.2956 106.727 57.3531 106.595C57.4107 106.463 57.4948 106.345 57.6003 106.247C57.7057 106.149 57.8302 106.074 57.966 106.026C58.1017 105.979 58.2457 105.96 58.389 105.971H61.7396L61.6415 105.202C61.6415 105.202 61.6415 105.153 61.6415 105.128C61.6144 104.947 61.5754 104.769 61.5249 104.593C61.4687 104.405 61.3969 104.221 61.3101 104.045C61.1276 103.634 60.8322 103.283 60.4585 103.034C60.0847 102.784 59.648 102.646 59.1991 102.636C59.0215 102.637 58.8445 102.658 58.6713 102.698C58.5093 102.738 58.3527 102.798 58.2049 102.876C57.7923 103.116 57.4444 103.453 57.1919 103.858C56.9394 104.264 56.79 104.725 56.7567 105.202L56.1062 111.011C56.0913 111.146 56.0499 111.278 55.9843 111.398C55.9187 111.517 55.8303 111.623 55.724 111.708C55.6177 111.794 55.4957 111.857 55.3649 111.895C55.2341 111.934 55.0971 111.946 54.9617 111.931C54.8264 111.916 54.6952 111.874 54.5759 111.808C54.4565 111.743 54.3512 111.654 54.266 111.547C54.1808 111.441 54.1174 111.318 54.0794 111.187C54.0413 111.056 54.0294 110.919 54.0443 110.783L54.6948 104.974C54.7638 104.152 55.0348 103.36 55.4834 102.669C55.9321 101.977 56.5445 101.408 57.266 101.012C57.559 100.864 57.8678 100.751 58.1865 100.673C58.5185 100.596 58.8582 100.557 59.1991 100.556C60.035 100.561 60.8522 100.805 61.5545 101.26C62.2568 101.714 62.815 102.36 63.1633 103.122C63.3055 103.408 63.4246 103.704 63.5193 104.008C63.5992 104.289 63.6587 104.575 63.6972 104.864C63.703 104.894 63.703 104.925 63.6972 104.956L64.4091 110.758Z" fill="#1D1D1B"/>
<path d="M67.5938 110.874C67.6048 111.018 67.5861 111.162 67.5388 111.298C67.4916 111.434 67.4167 111.559 67.3191 111.665C67.2214 111.77 67.103 111.855 66.9713 111.913C66.8396 111.97 66.6974 112 66.5537 112C66.4099 112 66.2677 111.97 66.136 111.913C66.0043 111.855 65.8859 111.77 65.7883 111.665C65.6906 111.559 65.6158 111.434 65.5685 111.298C65.5212 111.162 65.5025 111.018 65.5135 110.874V102.259C65.5072 102.2 65.5072 102.14 65.5135 102.081C65.527 101.965 65.5538 101.852 65.5933 101.742L65.6792 101.558C65.8588 101.238 66.1492 100.995 66.4954 100.875L66.6365 100.838H66.747H66.9924H67.0231C67.2362 100.847 67.4447 100.902 67.6344 101C67.824 101.098 67.9903 101.236 68.1216 101.404L73.6445 108.499V101.576C73.6445 101.299 73.7544 101.033 73.9501 100.837C74.1457 100.64 74.4111 100.53 74.6878 100.53C74.9644 100.53 75.2298 100.64 75.4254 100.837C75.6211 101.033 75.731 101.299 75.731 101.576V110.191C75.73 110.409 75.6805 110.625 75.586 110.822C75.4915 111.019 75.3545 111.192 75.1848 111.329C75.1182 111.385 75.0463 111.435 74.97 111.477C74.9289 111.501 74.8858 111.522 74.8412 111.538L74.7553 111.575C74.3895 111.703 73.988 111.681 73.6384 111.514L73.5034 111.446C73.4305 111.4 73.3626 111.346 73.3009 111.286C73.2528 111.244 73.2077 111.199 73.1659 111.151L73.1291 111.108L67.5938 103.988V110.874Z" fill="#1D1D1B"/>
<path d="M83.8671 109.828C84.1438 109.828 84.4091 109.938 84.6048 110.134C84.8004 110.33 84.9103 110.597 84.9103 110.874C84.9103 111.151 84.8004 111.417 84.6048 111.614C84.4091 111.81 84.1438 111.92 83.8671 111.92H80.7988C79.7099 111.92 78.6657 111.486 77.8958 110.714C77.1259 109.942 76.6934 108.895 76.6934 107.804V104.659C76.6966 103.568 77.1302 102.523 77.8994 101.752C78.6686 100.981 79.7109 100.546 80.7988 100.543H83.8671C84.1438 100.543 84.4091 100.653 84.6048 100.849C84.8004 101.045 84.9103 101.311 84.9103 101.589C84.9103 101.866 84.8004 102.132 84.6048 102.328C84.4091 102.525 84.1438 102.635 83.8671 102.635H80.7988C80.2577 102.641 79.7413 102.863 79.3628 103.25C79.1707 103.436 79.0176 103.659 78.9122 103.905C78.8069 104.151 78.7514 104.416 78.7491 104.684V107.828C78.7523 108.367 78.9674 108.883 79.3476 109.265C79.7279 109.646 80.2426 109.862 80.7804 109.865H83.8487L83.8671 109.828Z" fill="#1D1D1B"/>
<path d="M89.9 102.616C89.1665 102.613 88.4604 102.896 87.9301 103.404C87.6786 103.641 87.4776 103.927 87.3395 104.244C87.2013 104.561 87.1287 104.904 87.1262 105.25V107.2C87.1276 107.546 87.199 107.888 87.3361 108.205C87.4733 108.523 87.6733 108.809 87.924 109.046C88.4543 109.554 89.1603 109.837 89.8938 109.834C90.6273 109.837 91.3334 109.554 91.8637 109.046C92.1152 108.809 92.3161 108.523 92.4543 108.206C92.5925 107.889 92.665 107.547 92.6676 107.2V105.25C92.6648 104.904 92.5927 104.563 92.4557 104.246C92.3186 103.928 92.1194 103.642 91.8698 103.404C91.3363 102.897 90.6288 102.615 89.8938 102.616H89.9ZM89.8938 100.53C91.1646 100.526 92.3876 101.015 93.3058 101.896C93.7594 102.327 94.1212 102.846 94.369 103.422C94.6169 103.997 94.7458 104.617 94.7479 105.244V107.194C94.7458 107.821 94.6169 108.441 94.369 109.016C94.1212 109.591 93.7594 110.11 93.3058 110.542C92.3876 111.423 91.1646 111.912 89.8938 111.908C88.623 111.912 87.4 111.423 86.4819 110.542C86.0302 110.109 85.6702 109.59 85.4234 109.015C85.1767 108.44 85.0483 107.82 85.0459 107.194V105.244C85.0483 104.618 85.1767 103.998 85.4234 103.423C85.6702 102.848 86.0302 102.329 86.4819 101.896C87.4 101.015 88.623 100.526 89.8938 100.53Z" fill="#1D1D1B"/>
<path d="M45.9995 102.622V109.827H50.0252C50.1973 109.827 50.3678 109.793 50.5268 109.727C50.6858 109.661 50.8301 109.564 50.9516 109.441C51.0731 109.319 51.1692 109.174 51.2345 109.014C51.2999 108.854 51.3331 108.683 51.3323 108.511C51.333 108.182 51.2102 107.866 50.9886 107.625L50.9457 107.588C50.8264 107.463 50.6834 107.365 50.5253 107.297C50.3672 107.229 50.1971 107.194 50.0252 107.194H48.6383C48.3616 107.194 48.0963 107.084 47.9006 106.887C47.705 106.691 47.5951 106.425 47.5951 106.148C47.5951 105.87 47.705 105.604 47.9006 105.408C48.0963 105.212 48.3616 105.102 48.6383 105.102H49.1108C49.4067 105.076 49.6843 104.947 49.8963 104.739C50.013 104.624 50.1057 104.487 50.1689 104.336C50.2321 104.185 50.2646 104.023 50.2645 103.859C50.2645 103.532 50.1352 103.219 49.905 102.989C49.6749 102.758 49.3627 102.628 49.0372 102.628H45.9995V102.622ZM43.9131 106.16V101.619C43.9125 101.477 43.9418 101.337 43.999 101.207C44.0566 101.072 44.1377 100.949 44.2383 100.844C44.4244 100.665 44.6685 100.561 44.9256 100.548H49.0065C49.887 100.548 50.7314 100.899 51.354 101.523C51.9766 102.148 52.3264 102.994 52.3264 103.877C52.3245 104.504 52.1481 105.118 51.8171 105.649C52.0389 105.781 52.2449 105.938 52.4307 106.117L52.4982 106.191C53.0938 106.82 53.4256 107.655 53.4249 108.523C53.4232 109.423 53.0658 110.286 52.4309 110.923C51.796 111.559 50.9353 111.918 50.0374 111.919H44.9563C44.6796 111.919 44.4143 111.809 44.2186 111.613C44.023 111.417 43.9131 111.151 43.9131 110.873V106.16Z" fill="#1D1D1B"/>
</svg>
