<svg width="21" height="21" viewBox="0 0 21 21" fill="none" xmlns="http://www.w3.org/2000/svg">
<path fill-rule="evenodd" clip-rule="evenodd" d="M10.4437 20.2198H19.119C21.0987 20.2198 21.1193 18.1093 20.9171 17.0678C20.807 16.3671 19.6198 16.3781 19.4891 17.0678V17.8803C19.4887 18.0595 19.4176 18.2312 19.2912 18.3579C19.1649 18.4845 18.9936 18.5559 18.815 18.5562H2.18523C2.00655 18.5559 1.8353 18.4845 1.70896 18.3579C1.58262 18.2312 1.51149 18.0595 1.51112 17.8803V17.0678C1.38043 16.3781 0.193179 16.3671 0.0831209 17.0678C-0.11911 18.1093 -0.0984746 20.2198 1.88119 20.2198H10.4437ZM4.31209 0H17.6869C18.6265 0 19.3955 0.816629 19.3955 1.81396V2.68025C19.3955 3.9052 17.7447 3.89968 17.7447 2.68853V2.21676C17.7447 2.07042 17.6867 1.93007 17.5835 1.8266C17.4803 1.72312 17.3403 1.66498 17.1944 1.66498H3.79207C3.64613 1.66498 3.50616 1.72312 3.40296 1.8266C3.29976 1.93007 3.24178 2.07042 3.24178 2.21676V2.68025C3.24178 3.8983 1.6652 3.89002 1.6652 2.70646V1.81534C1.66933 0.818008 2.43698 0 3.3766 0H4.31209Z" fill="#3D73B9"/>
<path fill-rule="evenodd" clip-rule="evenodd" d="M19.059 9.96073C19.5182 10.1664 19.9094 10.4991 20.1867 10.9198C20.464 11.3406 20.6159 11.8319 20.6245 12.3361C20.6245 13.7956 19.3534 14.9902 17.8002 14.9902H13.4433C13.2543 14.9958 13.0706 14.9266 12.9321 14.7975C12.7936 14.6684 12.7114 14.4899 12.7031 14.3005V5.98519C12.7039 5.792 12.7808 5.60696 12.9172 5.47049C13.0535 5.33402 13.2382 5.25721 13.4309 5.25684H17.0587C17.6026 5.25558 18.1349 5.41495 18.589 5.71508C19.0432 6.01522 19.3992 6.44281 19.6125 6.94451C19.8259 7.44621 19.8871 7.9998 19.7887 8.5362C19.6903 9.0726 19.4365 9.56805 19.059 9.96073ZM15.8081 9.28481H17.1907V9.26963C17.501 9.22081 17.7838 9.06282 17.9885 8.82396C18.1932 8.58511 18.3064 8.28098 18.3078 7.96606V7.96606C18.3067 7.61665 18.1678 7.28185 17.9214 7.03478C17.675 6.7877 17.3411 6.64841 16.9926 6.64732H14.2068V13.5445H17.7383C17.9203 13.5503 18.1017 13.5194 18.2715 13.4536C18.4414 13.3877 18.5964 13.2883 18.7272 13.1612C18.858 13.0342 18.962 12.882 19.0331 12.7139C19.1041 12.5457 19.1407 12.3649 19.1407 12.1823C19.1407 11.9997 19.1041 11.8189 19.0331 11.6508C18.962 11.4826 18.858 11.3305 18.7272 11.2034C18.5964 11.0763 18.4414 10.9769 18.2715 10.9111C18.1017 10.8453 17.9203 10.8143 17.7383 10.8201H17.188H15.8081C15.7079 10.8201 15.6086 10.8003 15.5159 10.7618C15.4233 10.7234 15.3391 10.667 15.2682 10.5959C15.1973 10.5248 15.1411 10.4404 15.1027 10.3475C15.0644 10.2546 15.0446 10.1551 15.0446 10.0545C15.0446 9.954 15.0644 9.85444 15.1027 9.76156C15.1411 9.66867 15.1973 9.58427 15.2682 9.51318C15.3391 9.44209 15.4233 9.3857 15.5159 9.34722C15.6086 9.30875 15.7079 9.28895 15.8081 9.28895" fill="#1D1D1B"/>
<path d="M12.0121 14.1616C12.029 14.2784 12.0221 14.3974 11.992 14.5115C11.9619 14.6256 11.9092 14.7324 11.8369 14.8256C11.7647 14.9188 11.6745 14.9964 11.5716 15.0538C11.4688 15.1112 11.3554 15.1471 11.2384 15.1596C11.1214 15.172 11.003 15.1607 10.8905 15.1262C10.7779 15.0917 10.6734 15.0348 10.5833 14.9589C10.4932 14.8829 10.4193 14.7896 10.366 14.6844C10.3127 14.5791 10.2812 14.4642 10.2732 14.3465L9.55369 7.73756L7.02099 14.2002V14.2168V14.2306V14.2444V14.2527V14.2651V14.2789C6.96544 14.3763 6.89108 14.4616 6.80225 14.5299L6.78849 14.541C6.74243 14.5826 6.69164 14.6188 6.63716 14.6486V14.6486L6.62065 14.6568L6.60552 14.6651H6.59589H6.58488H6.57525H6.56425H6.55599H6.54636H6.53811H6.52986H6.51885C6.43661 14.6946 6.35026 14.7109 6.26296 14.7134H6.19968C6.10157 14.7106 6.00471 14.6905 5.91353 14.6541H5.90115H5.88877H5.87776H5.86951H5.8585H5.84887H5.84199L5.82686 14.6458L5.8131 14.6375H5.80485C5.75602 14.6114 5.70993 14.5804 5.66728 14.5451V14.5451L5.63839 14.5189L5.61637 14.4982L5.5641 14.4844L5.53796 14.4554C5.5027 14.4127 5.47182 14.3664 5.44578 14.3175V14.3092L5.43753 14.2954L5.42928 14.2802V14.2706V14.2595V14.2513V14.2389V14.2278V14.2154L2.84979 7.73756L2.13304 14.3465C2.1086 14.5775 1.99362 14.7893 1.81341 14.9354C1.6332 15.0814 1.40251 15.1497 1.1721 15.1251C0.941688 15.1006 0.730424 14.9853 0.584784 14.8047C0.439144 14.624 0.371058 14.3926 0.395504 14.1616L1.2402 6.37053C1.2606 6.18704 1.31569 6.00914 1.40253 5.84634C1.51092 5.64295 1.666 5.46832 1.85497 5.33688C2.04395 5.20544 2.26139 5.12096 2.48935 5.09041H2.53613C2.60986 5.08492 2.68389 5.08492 2.75762 5.09041V5.09041C2.8466 5.09396 2.93504 5.10597 3.02176 5.12627C3.24997 5.17868 3.46192 5.28627 3.63913 5.43968C3.81634 5.59308 3.95342 5.78763 4.03842 6.00636L6.20381 11.4938L8.36507 5.98843C8.4667 5.72747 8.64197 5.50187 8.86943 5.3392C9.0969 5.17653 9.36671 5.08385 9.64587 5.07248V5.07248C9.7196 5.06699 9.79363 5.06699 9.86736 5.07248H9.91413C10.142 5.10324 10.3594 5.18781 10.5483 5.31923C10.7373 5.45064 10.8924 5.62516 11.001 5.82841C11.0431 5.90996 11.0786 5.99486 11.1069 6.08223C11.1347 6.1721 11.1536 6.26451 11.1633 6.35812V6.35812L12.0121 14.1616Z" fill="#1D1D1B"/>
</svg>
