<svg width="21" height="21" viewBox="0 0 21 21" fill="none" xmlns="http://www.w3.org/2000/svg">
<path d="M5.58144 11.7996C6.34913 11.7996 6.97147 11.1773 6.97147 10.4096C6.97147 9.64187 6.34913 9.01953 5.58144 9.01953C4.81374 9.01953 4.19141 9.64187 4.19141 10.4096C4.19141 11.1773 4.81374 11.7996 5.58144 11.7996Z" fill="#D83E3E"/>
<path d="M15.3119 11.7996C16.0796 11.7996 16.7019 11.1773 16.7019 10.4096C16.7019 9.64187 16.0796 9.01953 15.3119 9.01953C14.5442 9.01953 13.9219 9.64187 13.9219 10.4096C13.9219 11.1773 14.5442 11.7996 15.3119 11.7996Z" fill="#D83E3E"/>
<path d="M10.4447 11.7996C11.2124 11.7996 11.8348 11.1773 11.8348 10.4096C11.8348 9.64187 11.2124 9.01953 10.4447 9.01953C9.67703 9.01953 9.05469 9.64187 9.05469 10.4096C9.05469 11.1773 9.67703 11.7996 10.4447 11.7996Z" fill="#D83E3E"/>
<path d="M10.4451 20.1401C8.52061 20.1401 6.63937 19.5695 5.03925 18.5003C3.43912 17.4311 2.19197 15.9115 1.45552 14.1335C0.71906 12.3555 0.526369 10.3991 0.901812 8.51164C1.27725 6.62416 2.20397 4.8904 3.56476 3.52961C4.92556 2.16881 6.65932 1.2421 8.5468 0.866655C10.4343 0.491213 12.3907 0.683903 14.1687 1.42036C15.9466 2.15682 17.4663 3.40396 18.5355 5.00409C19.6046 6.60422 20.1753 8.48546 20.1753 10.4099C20.1723 12.9896 19.1463 15.4628 17.3221 17.287C15.498 19.1111 13.0248 20.1372 10.4451 20.1401ZM10.4451 2.06972C8.79554 2.06972 7.18305 2.55887 5.81151 3.4753C4.43997 4.39173 3.37099 5.69429 2.73974 7.21826C2.10849 8.74223 1.94333 10.4192 2.26513 12.037C2.58694 13.6548 3.38127 15.1409 4.54766 16.3073C5.71406 17.4737 7.20014 18.268 8.81798 18.5898C10.4358 18.9117 12.1128 18.7465 13.6367 18.1152C15.1607 17.484 16.4633 16.415 17.3797 15.0435C18.2961 13.6719 18.7853 12.0594 18.7853 10.4099C18.7827 8.19875 17.9032 6.07888 16.3396 4.51535C14.7761 2.95182 12.6562 2.0723 10.4451 2.06972Z" fill="#D83E3E"/>
</svg>
