<svg width="50" height="32" viewBox="0 0 50 32" fill="none" xmlns="http://www.w3.org/2000/svg">
<rect width="50" height="32" rx="3" fill="#306FC8"/>
<mask id="mask0_19_3463" style="mask-type:alpha" maskUnits="userSpaceOnUse" x="0" y="0" width="50" height="32">
<rect width="50" height="32" rx="3" fill="url(#paint0_linear_19_3463)"/>
</mask>
<g mask="url(#mask0_19_3463)">
<path d="M21.6395 23.4348V18.7764L19.4858 21.0706L21.6395 23.4348Z" fill="white"/>
<path d="M12.6134 19.3608V20.4095L15.6928 20.4031V21.6042H12.6134V22.7545H16.0657L17.6729 21.0513L16.13 19.3608H12.6134Z" fill="white"/>
<path d="M25.6962 10.5336C25.8762 10.4319 25.9855 10.2286 25.9855 9.98073C25.9855 9.73287 25.8697 9.55492 25.6962 9.45959C25.529 9.36427 25.2783 9.35791 25.0275 9.35791H23.2917V10.6544H25.0083C25.2783 10.6544 25.5033 10.6417 25.6962 10.5336Z" fill="white"/>
<path d="M2.58435 11.4486H4.50659L3.54225 9.13525L2.58435 11.4486Z" fill="white"/>
<path d="M24.8797 19.3608H23.0475V20.8225H24.8669C25.4005 20.8225 25.7348 20.5683 25.7348 20.0663C25.7283 19.5642 25.3812 19.3608 24.8797 19.3608Z" fill="white"/>
<path d="M2.94431 13.8065H4.15294L4.69939 15.1093H9.42463V14.1179L9.84893 15.1093H12.2919L12.7162 14.1052V15.1093H24.4554V12.9867H24.6868C24.854 12.9867 24.899 13.0057 24.899 13.2663V15.1093H30.9678V14.6072C31.45 14.8678 32.2086 15.1093 33.2244 15.1093H35.7766L36.3295 13.8065H37.5382L38.0846 15.1093H42.9898V13.8764L43.742 15.1093H47.6829V7H43.787V7.95329L43.2277 7H39.2225V7.95329L38.7339 7H33.3208C32.4079 7 31.6043 7.12075 30.9678 7.46393V7H27.2391V7.46393C26.8019 7.11439 26.2555 7 25.6383 7H11.9898L11.064 9.09088L10.1382 7H5.84374V7.95329L5.35514 7H1.69068L-0.00012207 10.8449V15.1093H2.39785L2.94431 13.8065ZM31.2314 8.82396C31.6814 8.36003 32.4015 8.14395 33.3722 8.14395H34.7159V9.38958H33.3979C32.8772 9.38958 32.5879 9.46584 32.3115 9.73912C32.0672 9.98062 31.9 10.4446 31.9 11.0547C31.9 11.6775 32.0222 12.116 32.2986 12.421C32.5043 12.6498 32.8965 12.7197 33.2758 12.7197H33.9058L35.8859 8.14395H37.9817L40.3669 13.6476V8.14395H42.5141L44.9828 12.1922V8.14395H46.4293V13.9654H44.4235L41.7684 9.60566V13.9654H38.9075L38.3675 12.6625H35.4423L34.9023 13.9654H33.2694C32.5815 13.9654 31.7136 13.8065 31.225 13.3171C30.73 12.8214 30.4792 12.1541 30.4792 11.0991C30.4792 10.2348 30.6335 9.44677 31.2314 8.82396ZM28.3513 8.14395H29.7913V13.9654H28.3513V8.14395ZM21.8902 8.14395H25.1304C25.844 8.14395 26.3712 8.16937 26.8212 8.42358C27.2712 8.68414 27.5477 9.06546 27.5477 9.7137C27.5477 10.6352 26.9176 11.1119 26.5448 11.258C26.8533 11.3724 27.1169 11.5821 27.2391 11.7537C27.4384 12.0334 27.4705 12.3003 27.4705 12.8087V13.9654H26.0562V13.2282C26.0562 12.885 26.0883 12.3765 25.8247 12.1033C25.6254 11.8935 25.3168 11.8491 24.8025 11.8491H23.2917V13.9654H21.8838V8.14395H21.8902ZM16.22 8.14395H20.913V9.3578H17.6215V10.4064H20.8295V11.6012H17.6215V12.7515L20.913 12.7452V13.959H16.22V8.14395ZM1.54281 13.9654H0.0127357L2.52643 8.14395H4.62225L7.00736 13.6476V8.14395H9.30891L11.1411 12.0906L12.8319 8.14395H15.1721V13.9654H13.732V9.40864L11.694 13.9654H10.4597L8.41529 9.40229V13.9654H5.54801L5.00798 12.6625H2.08284L1.54281 13.9654Z" fill="white"/>
<path d="M36.9016 9.13525L35.9437 11.4486H37.8595L36.9016 9.13525Z" fill="white"/>
<path d="M46.8857 19.4943C46.7379 19.5896 46.6736 19.7294 46.6736 19.9137C46.6736 20.1298 46.8022 20.2823 46.9822 20.3459C47.1236 20.3967 47.2843 20.4094 47.5222 20.4094L48.2744 20.4285C49.0523 20.4476 49.5666 20.5747 49.8816 20.8988C49.9266 20.9433 49.9652 20.9877 49.9973 21.0322V19.3926H47.4451C47.1943 19.3926 47.0207 19.4053 46.8857 19.4943Z" fill="white"/>
<path d="M48.1009 23.9619H45.3879V22.7163H48.088C48.3516 22.7163 48.538 22.6782 48.6538 22.5765C48.7502 22.4875 48.8209 22.3604 48.8209 22.1952C48.8209 22.0236 48.7502 21.8901 48.6473 21.8075C48.5445 21.7185 48.3966 21.6804 48.1587 21.6804C46.8472 21.6423 45.195 21.7249 45.195 19.8755C45.195 19.043 45.7286 18.1469 47.2073 18.1469H50.0038V17.0029H47.4001C46.6222 17.0029 46.0372 17.1809 45.6386 17.4669V17.0029H41.8006C41.1898 17.0029 40.4569 17.1491 40.1162 17.4669V17.0029H33.2437V17.4669C32.6973 17.0855 31.7779 17.0029 31.3408 17.0029H26.8084V17.4669C26.3777 17.0538 25.4262 17.0029 24.8412 17.0029H19.7623L18.5987 18.2486L17.5187 17.0029H9.94543V25.1122H17.3837L18.573 23.8475L19.7045 25.1059L24.2819 25.1122V23.1993H24.7383C25.3426 23.1993 26.0627 23.1866 26.6863 22.9197V25.1122H30.4793V22.9896H30.6657C30.8972 22.9896 30.9165 23.0086 30.9165 23.2247V25.1122H42.392C43.1121 25.1122 43.89 24.9279 44.3143 24.5975V25.1122H47.953C48.7052 25.1122 49.4509 25.0042 50.0167 24.7373V23.2311C49.6502 23.7268 49.0074 23.9619 48.1009 23.9619ZM24.7897 22.0172H23.0411V23.9619H20.3024L18.5794 22.049L16.7793 23.9683H11.2055V18.1469H16.8629L18.5859 20.0598L20.3795 18.1469H24.8797C25.9855 18.1469 27.2391 18.4646 27.2391 20.0725C27.2327 21.6804 26.0177 22.0172 24.7897 22.0172ZM33.2502 21.7567C33.4494 22.0363 33.4816 22.3032 33.488 22.8116V23.9619H32.0737V23.2247C32.0737 22.8815 32.1058 22.3731 31.8422 22.0998C31.6365 21.8901 31.3343 21.8456 30.82 21.8456H29.3092V23.9619H27.9013V18.1405H31.1415C31.8551 18.1405 32.3758 18.1659 32.8323 18.4265C33.2823 18.6871 33.5587 19.0684 33.5587 19.7166C33.5587 20.6381 32.9287 21.1148 32.5623 21.261C32.8708 21.3753 33.1344 21.5851 33.2502 21.7567ZM39.0297 19.3607H35.7446V20.4093H38.959V21.6105H35.7446V22.7608H39.0362V23.9683H34.3431V18.1469H39.0362V19.3607H39.0297ZM42.6042 23.9619H39.8655V22.7163H42.5913C42.8549 22.7163 43.0413 22.6782 43.1571 22.5765C43.2535 22.4875 43.3242 22.3604 43.3242 22.1952C43.3242 22.0236 43.2535 21.8901 43.1506 21.8075C43.0478 21.7185 42.8999 21.6804 42.662 21.6804C41.3505 21.6423 39.6983 21.7249 39.6983 19.8755C39.6983 19.0366 40.2319 18.1469 41.7106 18.1469H44.5264V19.3925H41.9484C41.6913 19.3925 41.5241 19.3989 41.3827 19.4878C41.2348 19.5832 41.177 19.723 41.177 19.9073C41.177 20.1234 41.3055 20.2759 41.4856 20.3394C41.6334 20.3903 41.7877 20.403 42.0256 20.403L42.7778 20.4221C43.5557 20.4411 44.07 20.5682 44.385 20.8923C44.6614 21.1847 44.8093 21.5215 44.8093 22.1253C44.8157 23.3709 44.0314 23.9619 42.6042 23.9619Z" fill="white"/>
<path d="M31.7136 19.4562C31.5465 19.3672 31.2893 19.3608 31.045 19.3608H29.3092V20.6573H31.0257C31.2957 20.6573 31.5272 20.651 31.7136 20.5429C31.8936 20.4412 32.0029 20.2379 32.0029 19.99C31.9965 19.7358 31.8872 19.5579 31.7136 19.4562Z" fill="white"/>
</g>
<defs>
<linearGradient id="paint0_linear_19_3463" x1="25" y1="0" x2="25" y2="32" gradientUnits="userSpaceOnUse">
<stop stop-color="#1B8ABA"/>
<stop offset="1" stop-color="#005D9C"/>
</linearGradient>
</defs>
</svg>
