<svg width="29" height="21" viewBox="0 0 29 21" fill="none" xmlns="http://www.w3.org/2000/svg">
<path fill-rule="evenodd" clip-rule="evenodd" d="M0.780762 3.53796C0.780762 2.61475 1.1475 1.72936 1.80031 1.07655C2.45311 0.423749 3.33851 0.0570068 4.26171 0.0570068H25.1474C26.0706 0.0570068 26.956 0.423749 27.6088 1.07655C28.2616 1.72936 28.6284 2.61475 28.6284 3.53796V17.4618C28.6284 18.385 28.2616 19.2704 27.6088 19.9232C26.956 20.576 26.0706 20.9427 25.1474 20.9427H4.26171C3.33851 20.9427 2.45311 20.576 1.80031 19.9232C1.1475 19.2704 0.780762 18.385 0.780762 17.4618V3.53796ZM4.26171 1.79748C3.80011 1.79748 3.35741 1.98085 3.03101 2.30726C2.70461 2.63366 2.52124 3.07636 2.52124 3.53796V5.27844H26.8879V3.53796C26.8879 3.07636 26.7045 2.63366 26.3781 2.30726C26.0517 1.98085 25.609 1.79748 25.1474 1.79748H4.26171ZM26.8879 8.75939H2.52124V17.4618C2.52124 17.9234 2.70461 18.3661 3.03101 18.6925C3.35741 19.0189 3.80011 19.2022 4.26171 19.2022H25.1474C25.609 19.2022 26.0517 19.0189 26.3781 18.6925C26.7045 18.3661 26.8879 17.9234 26.8879 17.4618V8.75939Z" fill="#165957"/>
<path d="M4.26196 13.9807C4.26196 13.5191 4.44533 13.0764 4.77174 12.75C5.09814 12.4236 5.54084 12.2402 6.00244 12.2402H7.74292C8.20452 12.2402 8.64721 12.4236 8.97362 12.75C9.30002 13.0764 9.48339 13.5191 9.48339 13.9807V15.7212C9.48339 16.1828 9.30002 16.6255 8.97362 16.9519C8.64721 17.2783 8.20452 17.4616 7.74292 17.4616H6.00244C5.54084 17.4616 5.09814 17.2783 4.77174 16.9519C4.44533 16.6255 4.26196 16.1828 4.26196 15.7212V13.9807Z" fill="#165957"/>
</svg>
