<svg width="29" height="22" viewBox="0 0 29 22" fill="none" xmlns="http://www.w3.org/2000/svg">
<path fill-rule="evenodd" clip-rule="evenodd" d="M25.0963 1.82322H3.90348C3.43509 1.82322 2.98588 2.00928 2.65468 2.34049C2.32348 2.67169 2.13741 3.1209 2.13741 3.58929V17.7179C2.13741 18.1862 2.32348 18.6355 2.65468 18.9667C2.98588 19.2979 3.43509 19.4839 3.90348 19.4839H25.0963C25.5647 19.4839 26.0139 19.2979 26.3451 18.9667C26.6763 18.6355 26.8624 18.1862 26.8624 17.7179V3.58929C26.8624 3.1209 26.6763 2.67169 26.3451 2.34049C26.0139 2.00928 25.5647 1.82322 25.0963 1.82322V1.82322ZM3.90348 0.0571442C2.9667 0.0571442 2.06828 0.429279 1.40588 1.09168C0.743473 1.75409 0.371338 2.6525 0.371338 3.58929L0.371338 17.7179C0.371338 18.6546 0.743473 19.5531 1.40588 20.2155C2.06828 20.8779 2.9667 21.25 3.90348 21.25H25.0963C26.0331 21.25 26.9315 20.8779 27.5939 20.2155C28.2563 19.5531 28.6285 18.6546 28.6285 17.7179V3.58929C28.6285 2.6525 28.2563 1.75409 27.5939 1.09168C26.9315 0.429279 26.0331 0.0571442 25.0963 0.0571442H3.90348Z" fill="#165957"/>
<path d="M19.7984 6.23841C19.7984 6.00421 19.8914 5.77961 20.057 5.614C20.2226 5.4484 20.4473 5.35537 20.6814 5.35537H24.2136C24.4478 5.35537 24.6724 5.4484 24.838 5.614C25.0036 5.77961 25.0966 6.00421 25.0966 6.23841V8.00448C25.0966 8.23867 25.0036 8.46328 24.838 8.62888C24.6724 8.79448 24.4478 8.88751 24.2136 8.88751H20.6814C20.4473 8.88751 20.2226 8.79448 20.057 8.62888C19.8914 8.46328 19.7984 8.23867 19.7984 8.00448V6.23841ZM2.1377 12.4197H26.8627V15.9518H2.1377V12.4197Z" fill="#165957"/>
</svg>
