<svg width="50" height="32" viewBox="0 0 50 32" fill="none" xmlns="http://www.w3.org/2000/svg">
<rect width="50" height="32" rx="3" fill="#0069AA"/>
<path fill-rule="evenodd" clip-rule="evenodd" d="M8.4082 19.2599C8.4082 18.6024 8.06467 18.6456 7.73605 18.6387V18.4486C8.02099 18.4625 8.31316 18.4625 8.59886 18.4625C8.90579 18.4625 9.32251 18.4486 9.86393 18.4486C11.7573 18.4486 12.7886 19.7129 12.7886 21.0077C12.7886 21.7322 12.3645 23.5524 9.77597 23.5524C9.40338 23.5524 9.05925 23.5379 8.71573 23.5379C8.38696 23.5379 8.06467 23.5447 7.73605 23.5524V23.3622C8.17431 23.3179 8.38696 23.3036 8.4082 22.8065V19.2599ZM9.12479 22.6891C9.12479 23.2524 9.52735 23.3179 9.88548 23.3179C11.4653 23.3179 11.9837 22.1263 11.9837 21.037C11.9837 19.6697 11.1064 18.6828 9.69542 18.6828C9.39497 18.6828 9.25672 18.7042 9.12479 18.712V22.6891Z" fill="white"/>
<path fill-rule="evenodd" clip-rule="evenodd" d="M13.0446 23.3623H13.1832C13.3879 23.3623 13.5343 23.3623 13.5343 23.1204V21.139C13.5343 20.8178 13.4248 20.7734 13.1538 20.6276V20.5109C13.4975 20.4076 13.9073 20.2696 13.9362 20.2476C13.9877 20.2183 14.0309 20.2104 14.0681 20.2104C14.104 20.2104 14.1191 20.2544 14.1191 20.3134V23.1204C14.1191 23.3623 14.2802 23.3623 14.4852 23.3623H14.609V23.5525C14.3603 23.5525 14.104 23.538 13.8416 23.538C13.5784 23.538 13.315 23.5448 13.0446 23.5525V23.3623ZM13.8269 19.0848C13.6364 19.0848 13.4686 18.9094 13.4686 18.7193C13.4686 18.5362 13.6443 18.3677 13.8269 18.3677C14.0166 18.3677 14.1853 18.5217 14.1853 18.7193C14.1853 18.9171 14.024 19.0848 13.8269 19.0848Z" fill="white"/>
<path fill-rule="evenodd" clip-rule="evenodd" d="M15.3038 21.1829C15.3038 20.9129 15.2231 20.8398 14.88 20.7007V20.5618C15.1939 20.4596 15.4934 20.3641 15.8448 20.2103C15.8669 20.2103 15.8881 20.2249 15.8881 20.2834V20.7588C16.3056 20.4596 16.6639 20.2103 17.1546 20.2103C17.7752 20.2103 17.9945 20.6638 17.9945 21.2341V23.1203C17.9945 23.3622 18.1558 23.3622 18.3603 23.3622H18.4922V23.5524C18.2354 23.5524 17.9799 23.5379 17.7169 23.5379C17.4535 23.5379 17.1901 23.5447 16.9268 23.5524V23.3622H17.0588C17.2636 23.3622 17.4092 23.3622 17.4092 23.1203V21.2274C17.4092 20.81 17.1546 20.6055 16.7372 20.6055C16.503 20.6055 16.1302 20.7953 15.8881 20.9569V23.1203C15.8881 23.3622 16.0497 23.3622 16.2545 23.3622H16.3859V23.5524C16.1302 23.5524 15.8741 23.5379 15.6104 23.5379C15.3478 23.5379 15.0842 23.5447 14.8213 23.5524V23.3622H14.9532C15.1577 23.3622 15.3038 23.3622 15.3038 23.1203V21.1829Z" fill="white"/>
<path fill-rule="evenodd" clip-rule="evenodd" d="M19.048 21.5344C19.033 21.6002 19.033 21.7097 19.048 21.9585C19.091 22.653 19.538 23.223 20.1224 23.223C20.5251 23.223 20.8397 23.0036 21.1097 22.7335L21.2118 22.8359C20.8754 23.2819 20.4588 23.6623 19.8597 23.6623C18.6967 23.6623 18.4629 22.5356 18.4629 22.068C18.4629 20.6347 19.4278 20.2103 19.9391 20.2103C20.532 20.2103 21.1686 20.5832 21.1754 21.3585C21.1754 21.403 21.1754 21.4463 21.1686 21.4903L21.1025 21.5344H19.048ZM20.3427 21.3003C20.5251 21.3003 20.5465 21.2051 20.5465 21.117C20.5465 20.7447 20.32 20.4448 19.9104 20.4448C19.4647 20.4448 19.1575 20.7733 19.0698 21.3003H20.3427Z" fill="white"/>
<path fill-rule="evenodd" clip-rule="evenodd" d="M21.3441 23.3622H21.5417C21.7456 23.3622 21.892 23.3622 21.892 23.1203V21.0661C21.892 20.8398 21.6216 20.7953 21.5119 20.7368V20.6275C22.0456 20.4007 22.3382 20.2103 22.4051 20.2103C22.4479 20.2103 22.4698 20.2323 22.4698 20.3058V20.9639H22.4852C22.6674 20.6789 22.9751 20.2103 23.4209 20.2103C23.6036 20.2103 23.8373 20.3346 23.8373 20.598C23.8373 20.7953 23.6991 20.9716 23.4944 20.9716C23.267 20.9716 23.267 20.7953 23.0108 20.7953C22.8867 20.7953 22.4772 20.9639 22.4772 21.403V23.1203C22.4772 23.3622 22.6233 23.3622 22.8281 23.3622H23.2372V23.5524C22.8351 23.5447 22.529 23.5379 22.2143 23.5379C21.9144 23.5379 21.6072 23.5447 21.3441 23.5524V23.3622Z" fill="white"/>
<path fill-rule="evenodd" clip-rule="evenodd" d="M24.1587 22.5357C24.2541 23.0183 24.5459 23.4284 25.0807 23.4284C25.5114 23.4284 25.6721 23.1648 25.6721 22.9091C25.6721 22.0458 24.0786 22.324 24.0786 21.1469C24.0786 20.7369 24.4078 20.2106 25.2122 20.2106C25.4458 20.2106 25.7601 20.2768 26.045 20.4232L26.0964 21.1684H25.9283C25.8553 20.708 25.5997 20.4449 25.1312 20.4449C24.8387 20.4449 24.5611 20.6128 24.5611 20.9273C24.5611 21.7833 26.2571 21.5196 26.2571 22.6677C26.2571 23.1499 25.87 23.6624 24.9995 23.6624C24.7074 23.6624 24.3631 23.5598 24.108 23.4136L24.0271 22.5726L24.1587 22.5357Z" fill="white"/>
<path fill-rule="evenodd" clip-rule="evenodd" d="M32.8597 19.7717H32.6773C32.5382 18.917 31.9312 18.5729 31.1129 18.5729C30.271 18.5729 29.0503 19.1355 29.0503 20.8904C29.0503 22.3679 30.1037 23.4283 31.2294 23.4283C31.9526 23.4283 32.5535 22.9309 32.6995 22.1626L32.8677 22.2063L32.6995 23.2742C32.3924 23.4646 31.5659 23.6624 31.0827 23.6624C29.3725 23.6624 28.2904 22.558 28.2904 20.9129C28.2904 19.4135 29.6285 18.3384 31.0617 18.3384C31.6537 18.3384 32.2239 18.529 32.787 18.7266L32.8597 19.7717Z" fill="white"/>
<path fill-rule="evenodd" clip-rule="evenodd" d="M33.1236 23.3622H33.262C33.4675 23.3622 33.6134 23.3622 33.6134 23.1203V19.0486C33.6134 18.5728 33.5039 18.5584 33.2257 18.4778V18.3606C33.5181 18.2658 33.8254 18.1344 33.9794 18.046C34.0587 18.0028 34.1178 17.9655 34.1393 17.9655C34.184 17.9655 34.1985 18.0099 34.1985 18.0686V23.1203C34.1985 23.3622 34.3595 23.3622 34.564 23.3622H34.6878V23.5524C34.4399 23.5524 34.184 23.5379 33.9206 23.5379C33.6575 23.5379 33.3946 23.5447 33.1236 23.5524V23.3622Z" fill="white"/>
<path fill-rule="evenodd" clip-rule="evenodd" d="M37.8184 23.1498C37.8184 23.2819 37.8984 23.2888 38.0223 23.2888C38.1106 23.2888 38.2198 23.2819 38.3155 23.2819V23.4358C38.0009 23.4647 37.4011 23.6183 37.2619 23.6623L37.2255 23.64V23.0477C36.7872 23.4058 36.4505 23.6623 35.9306 23.6623C35.5359 23.6623 35.1267 23.4058 35.1267 22.7924V20.92C35.1267 20.7296 35.0976 20.5468 34.6887 20.5108V20.3715C34.9521 20.3642 35.5359 20.3206 35.6312 20.3206C35.7124 20.3206 35.7124 20.3715 35.7124 20.5326V22.4189C35.7124 22.6385 35.7124 23.2667 36.3484 23.2667C36.5966 23.2667 36.9256 23.077 37.2326 22.8215V20.854C37.2326 20.7079 36.8818 20.6275 36.619 20.5547V20.4233C37.2764 20.3787 37.6863 20.3206 37.7594 20.3206C37.8184 20.3206 37.8184 20.3715 37.8184 20.4522V23.1498Z" fill="white"/>
<path fill-rule="evenodd" clip-rule="evenodd" d="M39.2731 20.7369C39.5655 20.4888 39.9605 20.2103 40.3626 20.2103C41.2109 20.2103 41.7228 20.9497 41.7228 21.7465C41.7228 22.704 41.0206 23.6623 39.9745 23.6623C39.434 23.6623 39.1487 23.4863 38.9582 23.4058L38.7395 23.5741L38.5862 23.4939C38.6516 23.0626 38.6885 22.6385 38.6885 22.1923V19.0486C38.6885 18.5728 38.5784 18.5584 38.3005 18.4778V18.3606C38.5933 18.2658 38.9001 18.1344 39.0536 18.046C39.1343 18.0028 39.1926 17.9655 39.2148 17.9655C39.2584 17.9655 39.2731 18.01 39.2731 18.0686V20.7369ZM39.2731 22.7259C39.2731 23.0036 39.5365 23.472 40.0263 23.472C40.8085 23.472 41.1374 22.704 41.1374 22.053C41.1374 21.2635 40.5385 20.6055 39.9683 20.6055C39.6966 20.6055 39.4704 20.7813 39.2731 20.9496V22.7259Z" fill="white"/>
<path fill-rule="evenodd" clip-rule="evenodd" d="M7.72781 27.8039H7.78369C7.92676 27.8039 8.07797 27.7844 8.07797 27.5773V25.4929C8.07797 25.2855 7.92676 25.2658 7.78369 25.2658H7.72781V25.1462C7.88294 25.1462 8.12164 25.1621 8.31712 25.1621C8.51592 25.1621 8.75433 25.1462 8.94137 25.1462V25.2658H8.8852C8.74273 25.2658 8.59122 25.2855 8.59122 25.4929V27.5773C8.59122 27.7844 8.74273 27.8039 8.8852 27.8039H8.94137V27.9235C8.75056 27.9235 8.51125 27.9082 8.31306 27.9082C8.11773 27.9082 7.88294 27.9235 7.72781 27.9235V27.8039Z" fill="white"/>
<path fill-rule="evenodd" clip-rule="evenodd" d="M8.94139 27.9405C8.74892 27.9405 8.51082 27.9246 8.31277 27.9246C8.11804 27.9246 7.88401 27.9405 7.72783 27.9405H7.71051V27.7868H7.7834C7.92783 27.7833 8.05916 27.7717 8.06036 27.5773V25.4929C8.05916 25.2982 7.92783 25.2855 7.7834 25.283H7.71051V25.1289H7.72783C7.88401 25.1289 8.12256 25.1444 8.31714 25.1444C8.51503 25.1444 8.75329 25.1289 8.94139 25.1289H8.95916V25.283H8.88597C8.74139 25.2855 8.60931 25.2982 8.60856 25.4929V27.5773C8.60931 27.7717 8.74139 27.7833 8.88597 27.7868H8.95916V27.9405H8.94139ZM8.92489 27.9072L8.92504 27.8225H8.88664C8.74432 27.8225 8.57519 27.7975 8.57428 27.578V25.4936C8.57519 25.2736 8.74432 25.249 8.88664 25.249H8.92489V25.1641C8.7413 25.1642 8.51073 25.1802 8.31781 25.1802C8.1288 25.1802 7.90003 25.1653 7.74597 25.1641V25.249H7.78407C7.92594 25.249 8.09537 25.2736 8.09537 25.4936V27.578C8.09537 27.7975 7.92594 27.8225 7.78407 27.8225H7.74597V27.9072C7.90003 27.9058 8.12473 27.8912 8.31344 27.8912C8.50727 27.8912 8.73724 27.9061 8.92489 27.9072Z" fill="white"/>
<path fill-rule="evenodd" clip-rule="evenodd" d="M11.6746 27.1393L11.6826 27.1315V25.6399C11.6826 25.3134 11.4555 25.2657 11.3362 25.2657H11.2486V25.1462C11.4359 25.1462 11.6189 25.1621 11.8056 25.1621C11.9687 25.1621 12.1326 25.1462 12.2951 25.1462V25.2657H12.2359C12.0683 25.2657 11.8812 25.2974 11.8812 25.7709V27.5812C11.8812 27.7207 11.8852 27.8598 11.9047 27.9833H11.7535L9.70488 25.6991V27.3387C9.70488 27.6851 9.7722 27.8039 10.0785 27.8039H10.1463V27.9235C9.97521 27.9235 9.80427 27.908 9.63319 27.908C9.45457 27.908 9.27129 27.9235 9.09207 27.9235V27.8039H9.14795C9.42234 27.8039 9.50593 27.6169 9.50593 27.2996V25.6232C9.50593 25.4006 9.32234 25.2657 9.14403 25.2657H9.09207V25.1462C9.24298 25.1462 9.3984 25.1621 9.5493 25.1621C9.66903 25.1621 9.78439 25.1462 9.90367 25.1462L11.6746 27.1393Z" fill="white"/>
<path fill-rule="evenodd" clip-rule="evenodd" d="M11.9048 28L11.741 27.9944L9.72182 25.744V27.3387C9.72664 27.6846 9.7792 27.783 10.0787 27.7868H10.164V27.9405H10.1464C9.97423 27.9405 9.80299 27.9246 9.63326 27.9246C9.4551 27.9246 9.27227 27.9405 9.09199 27.9405H9.07452V27.7868H9.14802C9.41097 27.7852 9.48612 27.6163 9.48898 27.2994V25.6238C9.48823 25.4119 9.31443 25.283 9.14425 25.283H9.07452V25.1289H9.09199C9.2441 25.1289 9.39983 25.1444 9.54907 25.1444C9.66775 25.1444 9.78266 25.1289 9.91685 25.1351L11.6654 27.1033V25.6399C11.6634 25.3239 11.4522 25.2855 11.3364 25.283H11.2312V25.1289H11.2488C11.4367 25.1289 11.6199 25.1444 11.8057 25.1444C11.9676 25.1444 12.1307 25.1289 12.2952 25.1289H12.3126V25.283H12.236C12.0717 25.2872 11.9032 25.3016 11.8983 25.7709V27.5812C11.8983 27.7205 11.9027 27.8593 11.9218 27.9801L11.9254 28H11.9048ZM11.7545 27.9661H11.8861C11.8683 27.8463 11.8651 27.7143 11.8651 27.5819V25.7716C11.8651 25.2941 12.0653 25.249 12.2367 25.2487H12.2786V25.1641C12.1218 25.1653 11.9647 25.1798 11.8064 25.1798C11.6242 25.1798 11.4471 25.1653 11.2673 25.1641L11.2668 25.2487H11.3371C11.4594 25.249 11.7005 25.3034 11.7005 25.6406L11.6953 27.1447L11.6874 27.1524L11.6739 27.1652L9.90444 25.1641C9.78622 25.1641 9.67116 25.1798 9.54977 25.1798C9.40399 25.1798 9.25459 25.1653 9.11031 25.1641L9.10956 25.2487H9.14495C9.33155 25.249 9.52357 25.3915 9.52357 25.6245V27.3001C9.52357 27.6185 9.43486 27.8218 9.14872 27.8228L9.11031 27.8218V27.9072C9.2826 27.9058 9.46016 27.8912 9.63396 27.8912C9.79992 27.8912 9.96559 27.9058 10.1297 27.9072V27.8228H10.0794C9.76634 27.8218 9.68878 27.6853 9.68848 27.3394V25.6552L11.7545 27.9661ZM11.6748 27.1393L11.6873 27.1279L11.6748 27.1393ZM11.6653 27.1315V27.13L11.6622 27.1274L11.6653 27.1315Z" fill="white"/>
<path fill-rule="evenodd" clip-rule="evenodd" d="M12.8914 25.3452C12.5926 25.3452 12.581 25.4172 12.5213 25.7073H12.4019C12.4176 25.5958 12.4373 25.4845 12.4497 25.3692C12.4656 25.2573 12.4736 25.1463 12.4736 25.0312H12.5689C12.601 25.1507 12.7004 25.1463 12.8084 25.1463H14.8605C14.9685 25.1463 15.0677 25.1424 15.0759 25.0229L15.1709 25.0392C15.1555 25.1463 15.1393 25.2538 15.1277 25.3615C15.1199 25.4689 15.1199 25.576 15.1199 25.6833L15.0003 25.7276C14.9921 25.5806 14.9724 25.3452 14.7058 25.3452H14.0533V27.462C14.0533 27.7689 14.1927 27.804 14.3834 27.804H14.4593V27.9236C14.304 27.9236 14.0254 27.9082 13.811 27.9082C13.572 27.9082 13.2932 27.9236 13.1379 27.9236V27.804H13.2138C13.4331 27.804 13.5439 27.7844 13.5439 27.4703V25.3452H12.8914Z" fill="white"/>
<path fill-rule="evenodd" clip-rule="evenodd" d="M14.4595 27.9405C14.3027 27.9405 14.0244 27.9247 13.8109 27.9247C13.5721 27.9247 13.2938 27.9405 13.1378 27.9405H13.1208V27.7867H13.2137C13.433 27.7816 13.5211 27.7788 13.5261 27.4702V25.3622H12.8913V25.3274H13.5605V27.4702C13.5605 27.7896 13.4318 27.8218 13.2137 27.8221H13.1548V27.9062C13.3118 27.9051 13.5798 27.8905 13.8109 27.8905C14.0179 27.8905 14.2837 27.9051 14.4414 27.9062V27.8221H14.3833C14.1908 27.8218 14.036 27.7745 14.036 27.4619V25.3274H14.7057C14.9726 25.3284 15.008 25.5552 15.0163 25.7033L15.1024 25.6715C15.1024 25.5676 15.1029 25.4635 15.11 25.359C15.1217 25.2562 15.1362 25.1551 15.1511 25.0531L15.0907 25.043C15.0722 25.1589 14.96 25.165 14.8603 25.1635H12.7875C12.6938 25.1637 12.5919 25.1592 12.556 25.0482H12.4904C12.4898 25.1581 12.4822 25.2649 12.4672 25.3709C12.4553 25.4802 12.437 25.5852 12.4226 25.6906H12.5075C12.5598 25.4131 12.5938 25.3235 12.8913 25.3274V25.3622C12.5965 25.368 12.603 25.4173 12.5381 25.7113L12.5352 25.7248H12.3819L12.384 25.7042C12.4003 25.5932 12.4205 25.4815 12.4321 25.3659C12.4486 25.2555 12.4562 25.1452 12.4562 25.0311V25.0135H12.5825L12.5855 25.026C12.6124 25.1263 12.686 25.1271 12.7875 25.1289H14.8603C14.9711 25.1271 15.0518 25.1256 15.0586 25.0215L15.06 25.0027L15.078 25.0063L15.1905 25.0241L15.1877 25.0417C15.1719 25.1485 15.1563 25.2555 15.1443 25.3622C15.1369 25.4688 15.1369 25.5757 15.1369 25.6833V25.6953L15.1253 25.7L14.9845 25.7515L14.9836 25.7284C14.9726 25.5787 14.9572 25.3622 14.7057 25.3622H14.0706V27.4619C14.0746 27.7619 14.1935 27.783 14.3833 27.7867H14.4764V27.9405H14.4595Z" fill="white"/>
<path fill-rule="evenodd" clip-rule="evenodd" d="M15.298 27.8039H15.3541C15.4968 27.8039 15.6485 27.7844 15.6485 27.5773V25.4929C15.6485 25.2855 15.4968 25.2658 15.3541 25.2658H15.298V25.1462C15.5399 25.1462 15.9547 25.1621 16.2883 25.1621C16.623 25.1621 17.0363 25.1462 17.3068 25.1462C17.2999 25.3173 17.3036 25.5806 17.3154 25.7553L17.1955 25.7869C17.1764 25.5282 17.1286 25.3218 16.7107 25.3218H16.1583V26.3636H16.6309C16.8696 26.3636 16.9215 26.2288 16.9452 26.0137H17.0645C17.0565 26.1691 17.0523 26.3243 17.0523 26.4792C17.0523 26.6307 17.0565 26.7818 17.0645 26.9327L16.9452 26.9565C16.9215 26.7181 16.9096 26.563 16.6348 26.563H16.1583V27.4895C16.1583 27.7485 16.3881 27.7485 16.6429 27.7485C17.1205 27.7485 17.3312 27.7164 17.4506 27.2634L17.5616 27.2908C17.5099 27.5021 17.4625 27.7124 17.4268 27.9235C17.1718 27.9235 16.7143 27.9082 16.3569 27.9082C15.998 27.9082 15.525 27.9235 15.298 27.9235V27.8039Z" fill="white"/>
<path fill-rule="evenodd" clip-rule="evenodd" d="M17.4266 27.9405C17.1713 27.9405 16.7135 27.924 16.3566 27.924C15.9981 27.924 15.5252 27.9405 15.298 27.9405H15.2812V27.7868H15.354C15.498 27.7843 15.629 27.7717 15.6308 27.5773V25.4929C15.629 25.2985 15.498 25.2855 15.354 25.283H15.2812V25.1289H15.298C15.541 25.1289 15.9549 25.1444 16.2883 25.1444C16.6228 25.1444 17.0359 25.1289 17.3069 25.1289H17.3245L17.3239 25.1473C17.3213 25.2068 17.3197 25.2776 17.3197 25.3524C17.3197 25.4899 17.3239 25.6407 17.3317 25.7539L17.3325 25.7681L17.3191 25.7721L17.1792 25.8087L17.1785 25.7882C17.1551 25.5301 17.1204 25.3423 16.7108 25.3384H16.1745L16.1742 26.3461H16.6308C16.8602 26.3437 16.9011 26.2265 16.9282 26.0119L16.9292 25.9959H17.0822L17.0819 26.0142C17.0742 26.1696 17.0695 26.3242 17.0695 26.4792C17.0695 26.6297 17.0742 26.7807 17.0819 26.9319L17.0822 26.9464L17.0677 26.9497L16.9292 26.9773L16.9282 26.9586C16.9007 26.7157 16.8989 26.5825 16.6349 26.5797H16.1745V27.4895C16.1751 27.7313 16.3835 27.73 16.6429 27.7313C17.1219 27.7285 17.3138 27.705 17.4337 27.2587L17.4377 27.2426L17.4545 27.2453L17.582 27.2785L17.5784 27.2949C17.5267 27.5054 17.4793 27.7158 17.4433 27.9264L17.4403 27.9405H17.4266ZM17.4125 27.9069C17.4473 27.7057 17.4927 27.5048 17.5414 27.3045L17.4631 27.2847C17.344 27.7298 17.1131 27.7695 16.6436 27.7665C16.3928 27.7665 16.1422 27.7665 16.1408 27.4902V26.5463H16.6356C16.9134 26.5435 16.9414 26.7109 16.9613 26.9373L17.0472 26.9197C17.0395 26.773 17.0356 26.6257 17.0356 26.4799C17.0356 26.3305 17.0395 26.1814 17.0472 26.0313H16.9613C16.9389 26.2391 16.874 26.3841 16.6315 26.3816H16.1408V25.3046H16.7115C17.1252 25.3013 17.1937 25.5155 17.2118 25.7658L17.2975 25.7424C17.2905 25.6302 17.2859 25.4859 17.2859 25.3531C17.2859 25.285 17.2877 25.2204 17.2899 25.1641C17.0196 25.1653 16.6161 25.1798 16.289 25.1798C15.9621 25.1798 15.5597 25.1653 15.3161 25.1641V25.2487H15.3547C15.4963 25.249 15.6655 25.2736 15.6664 25.4936V27.578C15.6655 27.7975 15.4963 27.8218 15.3547 27.8228H15.3161V27.9069C15.5478 27.9061 16.0077 27.8912 16.3573 27.8912C16.7085 27.8912 17.1561 27.9061 17.4125 27.9069Z" fill="white"/>
<path fill-rule="evenodd" clip-rule="evenodd" d="M18.0989 25.5676C18.0989 25.2776 17.9396 25.2657 17.8161 25.2657H17.7443V25.1462C17.8717 25.1462 18.1184 25.1621 18.3613 25.1621C18.5995 25.1621 18.7908 25.1462 19.0016 25.1462C19.5023 25.1462 19.9488 25.2813 19.9488 25.8467C19.9488 26.2045 19.7099 26.4231 19.3958 26.5472L20.0758 27.5651C20.1875 27.7335 20.2664 27.7806 20.4619 27.8039V27.9235C20.3303 27.9235 20.203 27.9082 20.0721 27.9082C19.9488 27.9082 19.8209 27.9235 19.6982 27.9235C19.3916 27.5219 19.1288 27.0923 18.8703 26.634H18.6081V27.486C18.6081 27.7923 18.751 27.8039 18.9334 27.8039H19.0056V27.9235C18.7783 27.9235 18.5485 27.9082 18.3212 27.9082C18.1303 27.9082 17.9432 27.9235 17.7443 27.9235V27.8039H17.8161C17.9638 27.8039 18.0989 27.7366 18.0989 27.5896V25.5676ZM18.6082 26.4905H18.8026C19.2009 26.4905 19.4154 26.3397 19.4154 25.87C19.4154 25.5162 19.1886 25.2894 18.8341 25.2894C18.7146 25.2894 18.6637 25.3016 18.6082 25.3055V26.4905Z" fill="white"/>
<path fill-rule="evenodd" clip-rule="evenodd" d="M20.4619 27.9405C20.3285 27.9405 20.202 27.9246 20.0711 27.9246C19.9499 27.9246 19.8226 27.9405 19.6841 27.9339C19.3788 27.5333 19.1172 27.1062 18.8603 26.652H18.6252V27.4852C18.6296 27.7848 18.7496 27.7825 18.9335 27.7868H19.0228V27.9405H19.0052C18.7777 27.9405 18.5466 27.9246 18.3211 27.9246C18.1311 27.9246 17.9442 27.9405 17.7443 27.9405H17.727V27.7868H17.8161C17.9592 27.7857 18.0802 27.7233 18.0808 27.5896V25.5676C18.0777 25.2855 17.9396 25.2869 17.8161 25.283H17.727V25.1289H17.7443C17.8731 25.1289 18.1187 25.1444 18.3613 25.1444C18.5988 25.1444 18.7896 25.1289 19.0017 25.1289C19.5034 25.13 19.965 25.2681 19.9662 25.8461C19.9662 26.2051 19.7288 26.4295 19.422 26.5547L20.0901 27.5556C20.2014 27.7206 20.2707 27.7619 20.4642 27.7868L20.4787 27.789V27.9405H20.4619ZM18.6087 26.6176H18.8805L18.8855 26.6265C19.1445 27.0835 19.406 27.5132 19.6989 27.9072C19.82 27.9072 19.9479 27.8912 20.0718 27.8912C20.1988 27.8912 20.3217 27.9051 20.4452 27.9069V27.8195C20.2587 27.7968 20.1711 27.7405 20.0625 27.5756L19.3698 26.5399L19.3894 26.5319C19.701 26.4091 19.9319 26.1966 19.932 25.8468C19.9319 25.2948 19.5025 25.1668 19.0024 25.1641C18.7929 25.1641 18.6016 25.1802 18.362 25.1802C18.1283 25.1802 17.8921 25.1653 17.762 25.1641V25.2487H17.8168C17.9403 25.249 18.1161 25.2695 18.1161 25.5683V27.5903C18.1161 27.75 17.9665 27.8225 17.8168 27.8228H17.762V27.9069C17.9533 27.9061 18.1349 27.8912 18.3218 27.8912C18.5439 27.8912 18.7686 27.9061 18.9887 27.9069V27.8228H18.9341C18.753 27.8225 18.5911 27.8001 18.5911 27.4859V26.6176H18.6087ZM18.608 26.5077H18.5904V25.2895L18.6056 25.2883C18.6601 25.2839 18.7137 25.2729 18.8341 25.2729C19.1964 25.2729 19.4324 25.5083 19.4327 25.8711C19.4316 26.3461 19.2039 26.5075 18.8026 26.5077H18.608ZM18.8026 26.4738C19.1964 26.4699 19.3949 26.3333 19.3988 25.8711C19.3964 25.5235 19.1806 25.3078 18.834 25.3063C18.7267 25.3063 18.6759 25.3162 18.6252 25.3212V26.4738H18.8026Z" fill="white"/>
<path fill-rule="evenodd" clip-rule="evenodd" d="M23.1631 27.1393L23.17 27.1315V25.6399C23.17 25.3134 22.9439 25.2657 22.8245 25.2657H22.7373V25.1462C22.9243 25.1462 23.1067 25.1621 23.2942 25.1621C23.4578 25.1621 23.6197 25.1462 23.784 25.1462V25.2657H23.7241C23.5569 25.2657 23.37 25.2974 23.37 25.7709V27.5812C23.37 27.7207 23.3739 27.8598 23.3935 27.9833H23.2429L21.1941 25.6991V27.3387C21.1941 27.6851 21.2612 27.8039 21.5676 27.8039H21.6353V27.9235C21.4644 27.9235 21.293 27.908 21.1221 27.908C20.9424 27.908 20.7597 27.9235 20.5808 27.9235V27.8039H20.6361C20.9108 27.8039 20.9948 27.6169 20.9948 27.2996V25.6232C20.9948 25.4006 20.8115 25.2657 20.6326 25.2657H20.5808V25.1462C20.7314 25.1462 20.8877 25.1621 21.0386 25.1621C21.1569 25.1621 21.2728 25.1462 21.3924 25.1462L23.1631 27.1393Z" fill="white"/>
<path fill-rule="evenodd" clip-rule="evenodd" d="M23.3934 28L23.23 27.9944L21.2106 25.7443V27.3386C21.2153 27.6851 21.2677 27.783 21.5677 27.7868H21.652V27.9405H21.6347C21.4627 27.9405 21.2919 27.924 21.1214 27.924C20.9439 27.924 20.76 27.9405 20.5808 27.9405H20.563V27.7868H20.6362C20.899 27.7857 20.9743 27.6163 20.9768 27.2985V25.6232C20.9764 25.4111 20.8029 25.283 20.6327 25.283H20.563V25.1289H20.5808C20.7327 25.1289 20.8884 25.1444 21.0386 25.1444C21.1555 25.1444 21.2707 25.1289 21.4041 25.134L23.1532 27.1033V25.6399C23.1522 25.3239 22.9403 25.2848 22.8246 25.283H22.7196V25.1289H22.7369C22.9249 25.1289 23.1083 25.1444 23.2943 25.1444C23.4564 25.1444 23.6193 25.1289 23.7833 25.1289H23.801V25.283H23.7241C23.56 25.2869 23.3909 25.3016 23.3869 25.7709V27.5812C23.3869 27.7205 23.3904 27.8584 23.4107 27.9804L23.4127 28H23.3934ZM23.2435 27.9661H23.3739C23.3564 27.8471 23.353 27.7143 23.353 27.5819V25.7716C23.3533 25.2941 23.5545 25.2498 23.7248 25.2487H23.7667V25.1641C23.61 25.1653 23.4528 25.1798 23.295 25.1798C23.1121 25.1798 22.9349 25.1653 22.7549 25.1641V25.2487H22.8252C22.9478 25.2498 23.1888 25.3034 23.1888 25.6406L23.1831 27.1447L23.1758 27.1524L23.1633 27.1655L21.3932 25.1641C21.2748 25.1641 21.1594 25.1798 21.0392 25.1798C20.8916 25.1798 20.743 25.1653 20.5984 25.1641V25.2487H20.6334C20.8206 25.2498 21.012 25.3909 21.012 25.6239V27.2992C21.012 27.6185 20.9221 27.8218 20.6368 27.8228L20.5984 27.8225V27.907C20.7703 27.9058 20.9475 27.8912 21.1221 27.8912C21.2889 27.8912 21.4543 27.9058 21.6188 27.907V27.8228H21.5683C21.2552 27.8225 21.1772 27.6858 21.1763 27.3393V25.6558L23.2435 27.9661ZM23.1627 27.1393L23.1757 27.1279L23.1627 27.1393ZM23.1532 27.1315V27.1305L23.1503 27.1274L23.1532 27.1315Z" fill="white"/>
<path fill-rule="evenodd" clip-rule="evenodd" d="M24.4237 27.3547C24.3837 27.4894 24.3356 27.594 24.3356 27.6646C24.3356 27.7843 24.5032 27.8041 24.6341 27.8041H24.6785V27.9235C24.5187 27.9149 24.3564 27.9081 24.1963 27.9081C24.0531 27.9081 23.9106 27.9149 23.7669 27.9235V27.8041H23.7912C23.946 27.8041 24.0778 27.7123 24.1368 27.5452L24.7734 25.7196C24.8254 25.572 24.8971 25.3732 24.9213 25.2256C25.0478 25.1821 25.2076 25.103 25.2829 25.0546C25.2953 25.0506 25.3026 25.0465 25.3147 25.0465C25.3267 25.0465 25.3341 25.0465 25.3428 25.059C25.3546 25.0905 25.3662 25.1263 25.3785 25.1581L26.1109 27.2393C26.1587 27.3781 26.206 27.5253 26.2569 27.6453C26.3054 27.7569 26.3889 27.8041 26.5207 27.8041H26.5445V27.9235C26.3653 27.9149 26.1858 27.9081 25.9957 27.9081C25.8007 27.9081 25.6011 27.9149 25.3983 27.9235V27.8041H25.4421C25.5331 27.8041 25.6892 27.7882 25.6892 27.6887C25.6892 27.6373 25.6532 27.5298 25.6088 27.4019L25.4538 26.9406H24.5508L24.4237 27.3547ZM25.0046 25.5919H24.9963L24.6266 26.718H25.37L25.0046 25.5919Z" fill="white"/>
<path fill-rule="evenodd" clip-rule="evenodd" d="M26.5432 27.9405C26.3644 27.9328 26.185 27.9239 25.9956 27.9239C25.8005 27.9239 25.6021 27.9328 25.399 27.9405L25.3807 27.9414V27.786H25.442C25.5341 27.786 25.6709 27.7654 25.6712 27.6887C25.6721 27.6434 25.6364 27.5343 25.5926 27.4078L25.4411 26.9577H24.5635L24.4397 27.3598C24.3996 27.495 24.3513 27.6001 24.352 27.6649C24.3534 27.762 24.5019 27.786 24.634 27.786H24.6951V27.9414L24.677 27.9405C24.518 27.9328 24.3557 27.9239 24.1965 27.9239C24.0545 27.9239 23.9106 27.9328 23.7682 27.9405L23.7496 27.9414V27.786H23.7909C23.9388 27.7857 24.0623 27.7012 24.1198 27.5396L24.757 25.7134C24.8084 25.5661 24.8807 25.3682 24.915 25.2092C25.0399 25.1668 25.1999 25.0866 25.2763 25.0385C25.2874 25.0346 25.2984 25.0295 25.3144 25.0295C25.3242 25.0289 25.3456 25.0315 25.3585 25.0522C25.3698 25.0849 25.3825 25.1206 25.3945 25.1527L26.1271 27.2336C26.1739 27.3729 26.2215 27.5199 26.2736 27.6378C26.3197 27.7438 26.3927 27.7857 26.5206 27.786H26.5608V27.9414L26.5432 27.9405ZM25.4162 27.9058C25.613 27.8989 25.8062 27.8912 25.9963 27.8912C26.1808 27.8912 26.3543 27.8989 26.5272 27.9058V27.8225H26.5213C26.3848 27.8234 26.291 27.7698 26.2422 27.6525C26.1904 27.5323 26.1421 27.3846 26.0951 27.2453L25.3625 25.1642C25.3505 25.1325 25.3392 25.0969 25.3288 25.0686C25.3249 25.0647 25.3258 25.0647 25.3226 25.0647H25.3151C25.3071 25.0647 25.3023 25.0671 25.2921 25.0696C25.2156 25.1193 25.0561 25.1978 24.9377 25.2288C24.9135 25.3796 24.8418 25.5784 24.7901 25.7258L24.1535 27.5516C24.093 27.7245 23.9531 27.8228 23.7916 27.8225H23.785V27.9058C23.9214 27.8989 24.0591 27.8912 24.1972 27.8912C24.3511 27.8912 24.508 27.8989 24.6603 27.9058V27.8225H24.6347C24.5047 27.8207 24.3237 27.8066 24.3192 27.6656C24.3195 27.5867 24.3683 27.4849 24.4073 27.3504L24.4241 27.3554L24.4073 27.3499L24.5383 26.9248H25.466L25.6254 27.3972C25.6701 27.5252 25.7062 27.6313 25.7062 27.6894C25.7004 27.8112 25.5329 27.8203 25.4427 27.8225H25.4162V27.9058ZM24.6022 26.7353L24.9831 25.5744H25.0045V25.5921L25.0002 25.5933L25.0045 25.5921V25.5744H25.0164L25.3945 26.7353H24.6022ZM24.6498 26.7004H25.3463L25.0001 25.6343L24.6498 26.7004ZM24.9871 25.5971L24.9963 25.5942L24.9871 25.5971Z" fill="white"/>
<path fill-rule="evenodd" clip-rule="evenodd" d="M26.7193 25.3452C26.421 25.3452 26.409 25.4172 26.349 25.7073H26.2294C26.2451 25.5958 26.2654 25.4845 26.2778 25.3692C26.2933 25.2573 26.301 25.1463 26.301 25.0312H26.3972C26.4284 25.1507 26.5281 25.1463 26.6355 25.1463H28.6888C28.7957 25.1463 28.8951 25.1424 28.9029 25.0229L28.9981 25.0392C28.9834 25.1463 28.9675 25.2538 28.955 25.3615C28.9463 25.4689 28.9463 25.576 28.9463 25.6833L28.8275 25.7276C28.8204 25.5806 28.8004 25.3452 28.5332 25.3452H27.8808V27.462C27.8808 27.7689 28.0203 27.804 28.2109 27.804H28.287V27.9236C28.1315 27.9236 27.8535 27.9082 27.6382 27.9082C27.3999 27.9082 27.1207 27.9236 26.9656 27.9236V27.804H27.0413C27.2606 27.804 27.3716 27.7844 27.3716 27.4703V25.3452H26.7193Z" fill="white"/>
<path fill-rule="evenodd" clip-rule="evenodd" d="M28.287 27.9405C28.1307 27.9405 27.8518 27.9247 27.6379 27.9247C27.4003 27.9247 27.1216 27.9405 26.9658 27.9405H26.9482V27.7867H27.0414C27.2608 27.7816 27.3488 27.7788 27.354 27.4702L27.3537 25.3622H26.7194V25.3274H27.3888V27.4702C27.3888 27.7896 27.2599 27.8211 27.0414 27.8218H26.9828V27.9065C27.14 27.9051 27.4073 27.8905 27.6379 27.8905C27.8459 27.8905 28.1122 27.9051 28.2692 27.9065V27.8218H28.2108C28.0191 27.8211 27.8641 27.775 27.8638 27.4619V25.3274H28.5332C28.8006 25.3284 28.8354 25.5552 28.843 25.7033L28.9295 25.6715C28.9295 25.5676 28.9301 25.4635 28.9382 25.3595C28.9489 25.2569 28.964 25.1551 28.9784 25.0536L28.9183 25.043C28.9001 25.1589 28.7878 25.1653 28.6888 25.1635H26.6152C26.5213 25.1646 26.4198 25.1592 26.3837 25.0479H26.3186C26.3177 25.158 26.3099 25.2649 26.2942 25.3709C26.2834 25.4807 26.2643 25.586 26.2491 25.6906H26.3346C26.3869 25.4131 26.4213 25.323 26.7194 25.3274V25.3622C26.4244 25.3673 26.4308 25.4173 26.3659 25.7113L26.3631 25.7248H26.2094L26.2119 25.7051C26.2286 25.5932 26.2481 25.4815 26.2597 25.3668C26.276 25.2555 26.2834 25.1452 26.2834 25.0311V25.0135H26.4097L26.4131 25.026C26.4409 25.1263 26.5134 25.1271 26.6152 25.1289H28.6888C28.7989 25.1271 28.8792 25.1256 28.8863 25.0218L28.8869 25.0027L28.9054 25.0063L29.0183 25.0241L29.0156 25.0417C28.9992 25.1485 28.9842 25.2555 28.9721 25.3622C28.964 25.4688 28.964 25.5759 28.964 25.6833V25.6953L28.9524 25.7L28.8116 25.7515L28.811 25.7284C28.8006 25.5787 28.7848 25.3622 28.5332 25.3622H27.898V27.4619C27.9021 27.7619 28.0212 27.783 28.2108 27.7867H28.3036V27.9405H28.287Z" fill="white"/>
<path fill-rule="evenodd" clip-rule="evenodd" d="M29.1455 27.8039H29.2012C29.3446 27.8039 29.4952 27.7844 29.4952 27.5773V25.4929C29.4952 25.2855 29.3446 25.2658 29.2012 25.2658H29.1455V25.1462C29.3008 25.1462 29.539 25.1621 29.7338 25.1621C29.9332 25.1621 30.172 25.1462 30.3594 25.1462V25.2658H30.3035C30.1597 25.2658 30.0085 25.2855 30.0085 25.4929V27.5773C30.0085 27.7844 30.1597 27.8039 30.3035 27.8039H30.3594V27.9235C30.1683 27.9235 29.9292 27.9082 29.7306 27.9082C29.5353 27.9082 29.3008 27.9235 29.1455 27.9235V27.8039Z" fill="white"/>
<path fill-rule="evenodd" clip-rule="evenodd" d="M30.3594 27.9405C30.167 27.9405 29.9291 27.924 29.7306 27.924C29.5359 27.924 29.3009 27.9405 29.1455 27.9405H29.1285V27.7868H29.2014C29.3447 27.7843 29.477 27.7717 29.4779 27.5773V25.4929C29.477 25.2985 29.3447 25.2855 29.2014 25.283H29.1285V25.1289H29.1455C29.3009 25.1289 29.5402 25.1444 29.7338 25.1444C29.9321 25.1444 30.1708 25.1289 30.3594 25.1289H30.3759V25.283H30.3036C30.158 25.2855 30.0271 25.2985 30.0258 25.4929V27.5773C30.0271 27.7717 30.158 27.7843 30.3036 27.7868H30.3759V27.9405H30.3594ZM30.3419 27.9069V27.8225H30.3043C30.1615 27.8225 29.9927 27.7975 29.9927 27.578V25.4936C29.9927 25.2736 30.1615 25.249 30.3043 25.2487H30.3419V25.1641C30.1585 25.1653 29.9281 25.1798 29.7344 25.1798C29.5455 25.1798 29.3178 25.1653 29.1635 25.1641V25.2487H29.202C29.3433 25.249 29.5129 25.2736 29.5133 25.4936V27.578C29.5129 27.7975 29.3433 27.8225 29.202 27.8225H29.1635V27.9069C29.3168 27.9051 29.5418 27.8912 29.7312 27.8912C29.9242 27.8912 30.1543 27.9058 30.3419 27.9069Z" fill="white"/>
<path fill-rule="evenodd" clip-rule="evenodd" d="M31.9457 25.0867C32.7939 25.0867 33.47 25.6124 33.47 26.4599C33.47 27.3751 32.8134 27.9834 31.9662 27.9834C31.1224 27.9834 30.4781 27.4103 30.4781 26.5547C30.4781 25.7276 31.1185 25.0867 31.9457 25.0867ZM32.0059 27.8081C32.778 27.8081 32.9126 27.1272 32.9126 26.5471C32.9126 25.9656 32.5991 25.2617 31.9382 25.2617C31.2422 25.2617 31.0351 25.8825 31.0351 26.4152C31.0351 27.1272 31.3616 27.8081 32.0059 27.8081Z" fill="white"/>
<path fill-rule="evenodd" clip-rule="evenodd" d="M30.4603 26.5546C30.462 25.7179 31.1097 25.0706 31.9455 25.0692V25.104C31.1276 25.104 30.4949 25.7362 30.494 26.5546C30.4957 27.4006 31.1306 27.965 31.9663 27.9653C32.8049 27.965 33.452 27.3655 33.4531 26.4591C33.4523 25.6222 32.787 25.1048 31.9455 25.104V25.0692C32.7998 25.0701 33.4855 25.601 33.487 26.4591C33.4861 27.3838 32.8216 27.9984 31.9663 28C31.1153 27.9984 30.462 27.4197 30.4603 26.5546ZM31.0175 26.4152C31.0187 25.8798 31.2276 25.244 31.938 25.244C32.6136 25.2455 32.9287 25.9625 32.93 26.5471C32.9287 27.1273 32.7922 27.8244 32.0059 27.8244V27.7907C32.7624 27.7901 32.8939 27.1273 32.8951 26.5471C32.8951 25.9708 32.5847 25.2801 31.938 25.279C31.2555 25.2798 31.0538 25.8852 31.052 26.4152C31.0523 27.1239 31.3758 27.7896 32.0059 27.7907V27.8244C31.3455 27.8238 31.0187 27.1315 31.0175 26.4152Z" fill="white"/>
<path fill-rule="evenodd" clip-rule="evenodd" d="M36.151 27.1393L36.1593 27.1315V25.6399C36.1593 25.3134 35.9317 25.2657 35.8124 25.2657H35.7258V25.1462C35.9123 25.1462 36.0957 25.1621 36.2821 25.1621C36.4457 25.1621 36.6088 25.1462 36.7721 25.1462V25.2657H36.7123C36.5455 25.2657 36.3577 25.2974 36.3577 25.7709V27.5812C36.3577 27.7207 36.362 27.8598 36.3821 27.9833H36.2308L34.1814 25.6991V27.3387C34.1814 27.6851 34.2493 27.8039 34.555 27.8039H34.6232V27.9235C34.452 27.9235 34.2812 27.908 34.1101 27.908C33.9309 27.908 33.7478 27.9235 33.5687 27.9235V27.8039H33.6246C33.8996 27.8039 33.9826 27.6169 33.9826 27.2996V25.6232C33.9826 25.4006 33.8002 25.2657 33.6202 25.2657H33.5687V25.1462C33.7199 25.1462 33.8749 25.1621 34.0264 25.1621C34.1455 25.1621 34.2603 25.1462 34.3802 25.1462L36.151 27.1393Z" fill="white"/>
<path fill-rule="evenodd" clip-rule="evenodd" d="M36.3823 28L36.2176 27.9944L34.1985 25.7443V27.3387C34.2032 27.6851 34.2557 27.7825 34.5545 27.786H34.6402V27.9405H34.6234C34.4511 27.9405 34.2803 27.9246 34.1101 27.9246C33.9318 27.9246 33.7487 27.9405 33.5682 27.9405H33.552V27.786H33.6244C33.8866 27.7852 33.9622 27.6163 33.9654 27.2994V25.6232C33.9652 25.4111 33.7913 25.283 33.6203 25.283H33.552V25.1289H33.5682C33.7208 25.1289 33.8759 25.1444 34.0262 25.1444C34.1443 25.1444 34.2586 25.1289 34.3935 25.1351L36.1417 27.1033V25.6399C36.1404 25.3239 35.9285 25.2855 35.8124 25.283H35.7076V25.1289H35.7258C35.9127 25.1289 36.0963 25.1444 36.2817 25.1444C36.4445 25.1444 36.6068 25.1289 36.7722 25.1289H36.7889V25.283H36.7121C36.5481 25.2872 36.3788 25.3023 36.3755 25.7709V27.5812C36.3755 27.7205 36.3786 27.8593 36.3979 27.9804L36.4014 28H36.3823ZM36.2314 27.9661H36.3618C36.3449 27.8463 36.341 27.7143 36.341 27.5819V25.7716C36.341 25.2933 36.5419 25.2498 36.7127 25.2487H36.7558V25.1641C36.5978 25.1653 36.4413 25.1798 36.2823 25.1798C36.1011 25.1798 35.9232 25.1653 35.7431 25.1641V25.2487H35.813C35.9359 25.2498 36.1761 25.3042 36.1761 25.6406L36.1719 27.1447L36.1642 27.1524L36.1516 27.1655L34.3809 25.1641C34.2631 25.1641 34.1473 25.1798 34.0269 25.1798C33.8802 25.1798 33.7308 25.1653 33.586 25.1641V25.2487H33.621C33.808 25.2498 34.0002 25.3909 34.0002 25.6239V27.3001C34.0002 27.6185 33.9113 27.8218 33.625 27.8228L33.586 27.8225V27.907C33.7588 27.9058 33.9359 27.8912 34.1107 27.8912C34.2767 27.8912 34.4416 27.9058 34.6065 27.907V27.8228H34.5552C34.243 27.8225 34.1647 27.6858 34.1647 27.3394V25.6552L36.2314 27.9661ZM36.1509 27.1393L36.1636 27.1279L36.1509 27.1393ZM36.1418 27.1315V27.1305L36.1386 27.1274L36.1418 27.1315Z" fill="white"/>
<path fill-rule="evenodd" clip-rule="evenodd" d="M37.4113 27.3547C37.3723 27.4894 37.3243 27.594 37.3243 27.6646C37.3243 27.7843 37.4919 27.8041 37.6223 27.8041H37.6667V27.9235C37.5074 27.9149 37.3441 27.9081 37.1848 27.9081C37.0416 27.9081 36.8985 27.9149 36.7559 27.9235V27.8041H36.7785C36.9345 27.8041 37.0663 27.7123 37.1244 27.5452L37.7624 25.7196C37.8137 25.572 37.8857 25.3732 37.9086 25.2256C38.0365 25.1821 38.1952 25.103 38.2719 25.0546C38.283 25.0506 38.291 25.0465 38.3033 25.0465C38.3149 25.0465 38.3225 25.0465 38.3306 25.059C38.3426 25.0905 38.3545 25.1263 38.3666 25.1581L39.0987 27.2393C39.1461 27.3781 39.1942 27.5253 39.2461 27.6453C39.2939 27.7569 39.3773 27.8041 39.5085 27.8041H39.533V27.9235C39.3536 27.9149 39.1744 27.9081 38.9833 27.9081C38.7887 27.9081 38.5895 27.9149 38.3863 27.9235V27.8041H38.4304C38.5214 27.8041 38.6774 27.7882 38.6774 27.6887C38.6774 27.6373 38.6417 27.5298 38.5973 27.4019L38.4422 26.9406H37.5392L37.4113 27.3547ZM37.9931 25.5919H37.9851L37.6142 26.718H38.3594L37.9931 25.5919Z" fill="white"/>
<path fill-rule="evenodd" clip-rule="evenodd" d="M39.5313 27.9405C39.3519 27.9334 39.1733 27.9246 38.9835 27.9246C38.7894 27.9246 38.59 27.9334 38.3873 27.9405L38.3696 27.9414V27.7868H38.4302C38.5227 27.7868 38.6597 27.7654 38.6599 27.6887C38.6609 27.6434 38.6249 27.5348 38.5802 27.4078L38.4293 26.9577H37.551L37.4281 27.3598C37.388 27.4961 37.341 27.6002 37.3415 27.6646C37.3415 27.7621 37.4907 27.7868 37.6222 27.7868H37.683V27.9414L37.6651 27.9405C37.5062 27.9334 37.3433 27.9246 37.1849 27.9246C37.0422 27.9246 36.8995 27.9334 36.7559 27.9405L36.7386 27.9414V27.7868H36.7785C36.9269 27.786 37.051 27.7011 37.1093 27.5396L37.7455 25.7134C37.7966 25.5661 37.8684 25.3682 37.9034 25.2098C38.0284 25.1664 38.1882 25.0866 38.2656 25.0386C38.2758 25.0346 38.287 25.0298 38.3032 25.0298C38.3135 25.0289 38.3344 25.0315 38.3466 25.0532C38.3587 25.0845 38.3704 25.1206 38.3834 25.1527L39.115 27.2336C39.1629 27.3729 39.2103 27.5199 39.262 27.6386C39.3088 27.7438 39.3808 27.7857 39.5081 27.7868H39.5492V27.9414L39.5313 27.9405ZM38.404 27.9061C38.6008 27.8989 38.7944 27.8912 38.9841 27.8912C39.1691 27.8912 39.3421 27.8989 39.5158 27.9058L39.5153 27.8225H39.5087C39.3739 27.8228 39.2801 27.7698 39.2304 27.6525C39.178 27.5323 39.1307 27.3846 39.0829 27.2457L38.3508 25.1642C38.3391 25.1325 38.3264 25.0969 38.3171 25.0693C38.3138 25.0647 38.3141 25.0647 38.3117 25.0647H38.3039C38.2953 25.0647 38.2909 25.0674 38.2814 25.0701C38.2036 25.1187 38.0444 25.1986 37.9269 25.2288C37.9022 25.3796 37.8299 25.5781 37.7787 25.7258L37.1415 27.5516C37.081 27.7245 36.942 27.8228 36.7791 27.8225H36.7733V27.9058C36.9103 27.8989 37.0471 27.8912 37.1855 27.8912C37.3395 27.8912 37.4969 27.8989 37.6498 27.9058V27.8225H37.6228C37.4935 27.8207 37.3121 27.807 37.307 27.6653C37.3081 27.5867 37.357 27.4852 37.396 27.3504L37.412 27.3554L37.396 27.3499L37.5269 26.9248H38.4543L38.6141 27.3972C38.6579 27.5252 38.6942 27.6313 38.6942 27.6894C38.6885 27.8112 38.5212 27.8203 38.4308 27.8225H38.404V27.9061ZM37.5904 26.7351L37.9725 25.5744H37.9932V25.5921L37.9886 25.5933L37.9932 25.5921V25.5744H38.0052L38.3814 26.7351H37.5904ZM37.6385 26.7004H38.3346L37.9885 25.6349L37.6385 26.7004ZM37.9766 25.5971L37.9844 25.5942L37.9766 25.5971Z" fill="white"/>
<path fill-rule="evenodd" clip-rule="evenodd" d="M40.5351 27.5333C40.5351 27.6932 40.6457 27.7404 40.7734 27.7569C40.9362 27.7688 41.1154 27.7688 41.299 27.7485C41.4659 27.7285 41.6091 27.6336 41.6805 27.5333C41.7437 27.446 41.7796 27.3345 41.804 27.2472H41.919C41.8752 27.474 41.8196 27.697 41.7719 27.9235C41.4225 27.9235 41.0713 27.9082 40.7217 27.9082C40.3713 27.9082 40.0214 27.9235 39.6714 27.9235V27.8039H39.7265C39.8701 27.8039 40.0258 27.7844 40.0258 27.5377V25.4929C40.0258 25.2855 39.8701 25.2657 39.7265 25.2657H39.6714V25.1462C39.882 25.1462 40.0892 25.1621 40.2997 25.1621C40.503 25.1621 40.7015 25.1462 40.905 25.1462V25.2657H40.805C40.6538 25.2657 40.5351 25.2699 40.5351 25.4807V27.5333Z" fill="white"/>
<path fill-rule="evenodd" clip-rule="evenodd" d="M41.772 27.9405C41.4211 27.9405 41.0706 27.9246 40.7217 27.9246C40.3717 27.9246 40.0215 27.9405 39.6706 27.9405H39.6539V27.7868H39.7265C39.8703 27.7833 40.0069 27.7732 40.0086 27.5377V25.4922C40.0069 25.2985 39.8709 25.2855 39.7265 25.283H39.6539V25.1289H39.6706C39.8825 25.1289 40.0896 25.1444 40.2994 25.1444C40.5019 25.1444 40.7001 25.1289 40.905 25.1289H40.9209V25.283H40.805C40.6506 25.2869 40.5548 25.28 40.5513 25.4807V27.5333C40.5524 27.6821 40.6498 27.7218 40.7742 27.7396C40.8443 27.7444 40.9184 27.747 40.9949 27.747C41.0922 27.747 41.1932 27.7425 41.2961 27.7316C41.4581 27.7124 41.5976 27.6187 41.6664 27.5238C41.7279 27.4387 41.7625 27.3297 41.7866 27.2431L41.7899 27.23H41.9399L41.9364 27.2509C41.8914 27.4783 41.8366 27.7003 41.7884 27.9271L41.7852 27.9405H41.772ZM41.758 27.9069C41.8041 27.6908 41.8561 27.4795 41.8991 27.2649H41.817C41.7926 27.3515 41.7571 27.4582 41.6948 27.5448C41.6204 27.6478 41.4731 27.7451 41.3005 27.7665C41.1964 27.7771 41.0929 27.7825 40.9955 27.7825C40.9184 27.7825 40.844 27.779 40.7716 27.7739C40.6422 27.7597 40.517 27.7042 40.5172 27.534V25.4814C40.5172 25.2602 40.6571 25.2487 40.8056 25.2487H40.8875V25.1641C40.6916 25.1653 40.4981 25.1802 40.3 25.1802C40.0944 25.1802 39.8928 25.1653 39.6892 25.1641V25.2487H39.7271C39.869 25.2487 40.0426 25.2736 40.0426 25.4929V27.5384C40.0426 27.7959 39.8697 27.8225 39.7271 27.8225H39.6892V27.9069C40.0329 27.9061 40.3768 27.8912 40.7223 27.8912C41.0682 27.8912 41.4136 27.9061 41.758 27.9069Z" fill="white"/>
<path fill-rule="evenodd" clip-rule="evenodd" d="M41.8704 25.0334C42.1104 25.0334 42.2895 25.2178 42.2895 25.4533C42.2895 25.6887 42.1104 25.8711 41.8704 25.8711C41.6309 25.8711 41.4515 25.6887 41.4515 25.4533C41.4515 25.2178 41.6309 25.0334 41.8704 25.0334ZM41.8703 25.7932C42.0583 25.7932 42.2018 25.6334 42.2018 25.4533C42.2018 25.2729 42.06 25.1119 41.8703 25.1119C41.6818 25.1119 41.5384 25.2729 41.5384 25.4533C41.5384 25.6334 41.6818 25.7932 41.8703 25.7932ZM41.6621 25.6742V25.6539C41.7133 25.6465 41.7229 25.6479 41.7229 25.6165V25.306C41.7229 25.2623 41.7185 25.2473 41.6637 25.2497V25.2283H41.8782C41.9518 25.2283 42.0197 25.2635 42.0197 25.3397C42.0197 25.4019 41.9788 25.4482 41.9206 25.4661L41.9896 25.5622C42.0217 25.6055 42.0583 25.6465 42.0818 25.661V25.6742H42.0003C41.9612 25.6742 41.9265 25.592 41.8497 25.4816H41.8033V25.6205C41.8033 25.6479 41.813 25.6465 41.8645 25.6539V25.6742H41.6621ZM41.8033 25.4532H41.8527C41.9068 25.4532 41.9318 25.4124 41.9318 25.3463C41.9318 25.2797 41.8932 25.2561 41.85 25.2561H41.8033V25.4532Z" fill="white"/>
<path fill-rule="evenodd" clip-rule="evenodd" d="M17.0201 11.0999C17.0201 7.37833 20.037 4.36145 23.7584 4.36145C27.48 4.36145 30.4968 7.37833 30.4968 11.0999C30.4968 14.8214 27.48 17.8385 23.7584 17.8385C20.037 17.8385 17.0201 14.8214 17.0201 11.0999Z" fill="#0069AA"/>
<path fill-rule="evenodd" clip-rule="evenodd" d="M27.8335 10.9672C27.8308 9.24157 26.7522 7.76987 25.2323 7.18704V14.747C26.7522 14.1634 27.8308 12.6931 27.8335 10.9672ZM22.3329 14.7455V7.18781C20.8143 7.77245 19.7374 9.24204 19.7333 10.9672C19.7374 12.6919 20.8143 14.1613 22.3329 14.7455ZM23.7833 4.57725C20.2544 4.57861 17.3954 7.43826 17.3948 10.9672C17.3954 14.4957 20.2544 17.3549 23.7833 17.3555C27.3123 17.3549 30.1719 14.4957 30.1728 10.9672C30.1719 7.43826 27.3123 4.57861 23.7833 4.57725ZM23.7677 17.9585C19.9061 17.9769 16.7277 14.8484 16.7277 11.0401C16.7277 6.87803 19.9061 3.99925 23.7677 4H25.5773C29.3933 3.99925 32.876 6.87667 32.876 11.0401C32.876 14.847 29.3933 17.9585 25.5773 17.9585H23.7677Z" fill="white"/>
</svg>
