<svg width="50" height="32" viewBox="0 0 50 32" fill="none" xmlns="http://www.w3.org/2000/svg">
<rect width="50" height="32" rx="3" fill="#1D2970"/>
<path fill-rule="evenodd" clip-rule="evenodd" d="M37.9801 21.962C37.9801 24.1918 36.1729 26 33.9421 26H12.0198V10.0386C12.0198 7.80814 13.8274 6.00002 16.0581 6.00002L37.9801 6V21.962H37.9801Z" fill="white"/>
<path fill-rule="evenodd" clip-rule="evenodd" d="M30.833 16.3507H30.8474H30.8752H30.903H30.9309H30.9587H30.9866H31.0144H31.0422H31.0701H31.0979H31.1257H31.1536H31.1814H31.2093H31.2371H31.2649H31.2928H31.3206H31.3485H31.3763H31.4041H31.432H31.4598H31.4877H31.5155H31.5433H31.5712H31.599H31.6268H31.6547H31.6825H31.7104H31.7382H31.766H31.7939H31.8217H31.8495H31.8774H31.9052H31.933H31.9609H31.9887H32.0166H32.0444H32.0722H32.1001H32.1279H32.1558H32.1836H32.2114H32.2393H32.2671H32.295H32.3228H32.3506H32.3785H32.4063H32.4341H32.462H32.4898H32.513L32.5177 16.3508C32.5262 16.351 32.5356 16.3514 32.5455 16.3519C32.5544 16.3524 32.5638 16.3531 32.5733 16.3538C32.5825 16.3544 32.5918 16.3552 32.6012 16.3561C32.6105 16.3569 32.6199 16.3579 32.629 16.3589C32.6386 16.36 32.648 16.3611 32.6568 16.3623C32.6668 16.3636 32.6762 16.365 32.6847 16.3665C32.6908 16.3675 32.6965 16.3686 32.7015 16.3696L32.7125 16.3721C32.7218 16.3743 32.7311 16.3767 32.7403 16.3792C32.7497 16.3818 32.759 16.3845 32.7682 16.3875C32.7775 16.3905 32.7868 16.3936 32.796 16.397C32.8054 16.4004 32.8147 16.4039 32.8239 16.4077C32.8332 16.4115 32.8425 16.4156 32.8517 16.4198C32.8611 16.4241 32.8704 16.4285 32.8795 16.4332C32.8889 16.438 32.8982 16.4429 32.9074 16.4481C32.9168 16.4534 32.9261 16.4589 32.9352 16.4646C32.9446 16.4705 32.9539 16.4765 32.9631 16.4828C32.9725 16.4893 32.9818 16.4959 32.9909 16.5028C33.0003 16.5099 33.0096 16.5173 33.0187 16.5249C33.0282 16.5328 33.0375 16.5409 33.0466 16.5493C33.0561 16.558 33.0654 16.5669 33.0744 16.5762C33.084 16.5859 33.0932 16.5959 33.1023 16.6062C33.1118 16.6171 33.1211 16.6283 33.1301 16.6398C33.1398 16.6522 33.149 16.6649 33.1579 16.678C33.1677 16.6923 33.177 16.707 33.1858 16.722C33.1957 16.739 33.205 16.7565 33.2136 16.7745C33.2238 16.7958 33.2332 16.8177 33.2415 16.8402C33.2526 16.8705 33.2619 16.9019 33.2693 16.9343C33.282 16.9905 33.2889 17.0497 33.2889 17.1115C33.2889 17.1736 33.282 17.2331 33.2693 17.2894C33.2619 17.322 33.2526 17.3535 33.2415 17.3838C33.2331 17.4064 33.2238 17.4284 33.2136 17.4497C33.205 17.4677 33.1957 17.4852 33.1858 17.5022C33.177 17.5173 33.1677 17.532 33.1579 17.5463C33.149 17.5593 33.1397 17.5721 33.1301 17.5845C33.1211 17.596 33.1118 17.6072 33.1023 17.6181C33.0932 17.6283 33.084 17.6384 33.0744 17.6481C33.0654 17.6573 33.0561 17.6662 33.0466 17.675C33.0375 17.6833 33.0282 17.6914 33.0187 17.6992C33.0096 17.7068 33.0004 17.7142 32.9909 17.7213C32.9818 17.7281 32.9725 17.7347 32.9631 17.7412C32.9539 17.7474 32.9446 17.7535 32.9352 17.7593C32.9261 17.765 32.9168 17.7704 32.9074 17.7757C32.8982 17.7809 32.8889 17.7858 32.8795 17.7905C32.8704 17.7952 32.8611 17.7996 32.8517 17.8039C32.8425 17.8081 32.8332 17.812 32.8239 17.8158C32.8147 17.8196 32.8054 17.8231 32.796 17.8265C32.7868 17.8298 32.7775 17.8329 32.7682 17.8358C32.759 17.8387 32.7497 17.8414 32.7403 17.844C32.7311 17.8465 32.7218 17.8488 32.7125 17.8509L32.7015 17.8534C32.6965 17.8546 32.6908 17.8557 32.6847 17.8568C32.6762 17.8583 32.6668 17.8597 32.6568 17.8611C32.648 17.8623 32.6386 17.8634 32.629 17.8645C32.6199 17.8655 32.6105 17.8664 32.6012 17.8673C32.5918 17.8681 32.5825 17.8689 32.5733 17.8695C32.5638 17.8702 32.5544 17.8708 32.5455 17.8713C32.5356 17.8718 32.5262 17.8721 32.5177 17.8724L32.5027 17.8725H32.4898H32.462H32.4341H32.4063H32.3785H32.3506H32.3228H32.295H32.2671H32.2393H32.2114H32.1836H32.1558H32.1279H32.1001H32.0722H32.0444H32.0166H31.9887H31.9609H31.933H31.9052H31.8774H31.8495H31.8217H31.7939H31.766H31.7382H31.7104H31.6825H31.6547H31.6268H31.599H31.5712H31.5433H31.5155H31.4877H31.4598H31.432H31.4041H31.3763H31.3485H31.3206H31.2928H31.2649H31.2371H31.2093H31.1814H31.1536H31.1257H31.0979H31.0701H31.0422H31.0144H30.9866H30.9587H30.9309H30.903H30.8752H30.8474H30.833V16.3507ZM33.0745 14.6283C33.0857 14.6794 33.0917 14.7335 33.0917 14.7905C33.0917 14.8474 33.0857 14.9014 33.0745 14.9525C33.0673 14.9853 33.058 15.0168 33.0467 15.047C33.0384 15.0691 33.0291 15.0904 33.0188 15.111C33.0102 15.1283 33.0009 15.1451 32.991 15.1613C32.9822 15.1757 32.9729 15.1896 32.9632 15.2031C32.9542 15.2154 32.945 15.2274 32.9353 15.239C32.9263 15.2498 32.9171 15.2603 32.9075 15.2705C32.8985 15.28 32.8892 15.2893 32.8797 15.2982C32.8706 15.3068 32.8613 15.3151 32.8518 15.3231C32.8427 15.3307 32.8334 15.3381 32.824 15.3453C32.8149 15.3522 32.8056 15.3589 32.7961 15.3654C32.787 15.3716 32.7777 15.3776 32.7683 15.3834C32.7591 15.389 32.7499 15.3944 32.7405 15.3996C32.7313 15.4047 32.722 15.4096 32.7126 15.4143C32.7035 15.4188 32.6942 15.4232 32.6848 15.4274C32.6756 15.4315 32.6663 15.4353 32.657 15.439C32.6477 15.4427 32.6385 15.4461 32.6291 15.4493C32.6199 15.4525 32.6106 15.4556 32.6013 15.4584C32.5921 15.4612 32.5828 15.4638 32.5734 15.4662C32.5642 15.4686 32.555 15.4708 32.5456 15.4729C32.5364 15.4749 32.5271 15.4767 32.5178 15.4784L32.511 15.4796C32.5056 15.4805 32.4984 15.4816 32.4899 15.4827C32.4817 15.4837 32.4723 15.4848 32.4621 15.4858C32.4533 15.4867 32.4439 15.4876 32.4343 15.4884C32.4252 15.4892 32.4158 15.4898 32.4064 15.4904C32.3971 15.491 32.3877 15.4915 32.3786 15.4919C32.3689 15.4923 32.3596 15.4925 32.3508 15.4926L32.3463 15.4926H32.3229H32.2951H32.2672H32.2394H32.2116H32.1837H32.1559H32.1281H32.1002H32.0724H32.0446H32.0167H31.9889H31.961H31.9332H31.9054H31.8775H31.8497H31.8218H31.794H31.7662H31.7383H31.7105H31.6827H31.6548H31.627H31.5992H31.5713H31.5435H31.5156H31.4878H31.46H31.4321H31.4043H31.3765H31.3486H31.3208H31.293H31.2651H31.2373H31.2094H31.1816H31.1538H31.1259H31.0981H31.0702H31.0424H31.0146H30.9867H30.9589H30.9311H30.9032H30.8754H30.8476H30.833V14.0883H30.8476H30.8754H30.9032H30.9311H30.9589H30.9867H31.0146H31.0424H31.0702H31.0981H31.1259H31.1538H31.1816H31.2094H31.2373H31.2651H31.293H31.3208H31.3486H31.3765H31.4043H31.4321H31.46H31.4878H31.5156H31.5435H31.5713H31.5992H31.627H31.6548H31.6827H31.7105H31.7383H31.7662H31.794H31.8218H31.8497H31.8775H31.9054H31.9332H31.961H31.9889H32.0167H32.0446H32.0724H32.1002H32.1281H32.1559H32.1837H32.2116H32.2394H32.2672H32.2951H32.3229H32.3508H32.3625L32.3786 14.0888C32.3877 14.0892 32.3971 14.0897 32.4064 14.0903C32.4158 14.0909 32.4252 14.0916 32.4343 14.0923C32.4439 14.0931 32.4533 14.094 32.4621 14.0949C32.4723 14.0958 32.4817 14.0968 32.4899 14.0978C32.4984 14.0988 32.5056 14.0997 32.511 14.1004L32.5178 14.1017C32.5271 14.1033 32.5364 14.1052 32.5456 14.1073C32.555 14.1093 32.5642 14.1116 32.5734 14.114C32.5828 14.1165 32.5921 14.1191 32.6013 14.1219C32.6106 14.1247 32.6199 14.1278 32.6291 14.131C32.6385 14.1343 32.6477 14.1377 32.657 14.1414C32.6663 14.1451 32.6756 14.149 32.6848 14.1531C32.6942 14.1573 32.7035 14.1617 32.7126 14.1662C32.722 14.1709 32.7313 14.1758 32.7405 14.1809C32.7499 14.1861 32.7591 14.1915 32.7683 14.1972C32.7777 14.2029 32.787 14.2089 32.7961 14.2152C32.8056 14.2216 32.8149 14.2284 32.824 14.2353C32.8334 14.2425 32.8427 14.2499 32.8518 14.2575C32.8613 14.2656 32.8706 14.2739 32.8797 14.2824C32.8892 14.2914 32.8985 14.3006 32.9075 14.3102C32.9171 14.3203 32.9263 14.3308 32.9353 14.3416C32.945 14.3532 32.9542 14.3652 32.9632 14.3775C32.9729 14.3911 32.9822 14.405 32.991 14.4194C33.0009 14.4356 33.0102 14.4524 33.0188 14.4696C33.0291 14.4902 33.0384 14.5116 33.0467 14.5337C33.058 14.5639 33.0673 14.5955 33.0745 14.6283ZM36.5268 7.34619H36.5382L36.5382 21.7693C36.5382 21.8555 36.5342 21.9407 36.5268 22.025C36.5203 22.0991 36.511 22.1725 36.4989 22.2449C36.4909 22.2936 36.4816 22.3418 36.4711 22.3896C36.4626 22.4285 36.4533 22.4671 36.4433 22.5054C36.4346 22.5385 36.4253 22.5712 36.4154 22.6038C36.4066 22.6332 36.3974 22.6626 36.3876 22.6916C36.3787 22.7179 36.3694 22.7441 36.3598 22.7701C36.3508 22.7943 36.3415 22.8183 36.3319 22.8422C36.3229 22.8647 36.3136 22.887 36.3041 22.9091C36.295 22.9301 36.2857 22.951 36.2762 22.9718C36.2671 22.9915 36.2579 23.0112 36.2484 23.0307C36.2393 23.0494 36.23 23.068 36.2205 23.0865C36.2114 23.1042 36.2021 23.1218 36.1927 23.1393C36.1836 23.1561 36.1743 23.1727 36.1648 23.1893C36.1557 23.2054 36.1464 23.2214 36.137 23.2373C36.1279 23.2527 36.1186 23.2681 36.1092 23.2834C36.1 23.2982 36.0908 23.3131 36.0813 23.3278C36.0722 23.342 36.0628 23.3561 36.0535 23.3701C36.0443 23.3838 36.035 23.3973 36.0256 23.4109C36.0164 23.4241 36.0072 23.4373 35.9978 23.4504C35.9886 23.4632 35.9793 23.476 35.9699 23.4886C35.9608 23.5009 35.9514 23.5131 35.9421 23.5253C35.9329 23.5372 35.9236 23.5492 35.9143 23.561C35.9051 23.5726 35.8958 23.5841 35.8864 23.5956C35.8772 23.6068 35.8679 23.6179 35.8586 23.6289C35.8493 23.6399 35.8401 23.6508 35.8307 23.6616C35.8215 23.6722 35.8122 23.6826 35.8029 23.693C35.7937 23.7033 35.7844 23.7135 35.775 23.7237C35.7658 23.7337 35.7566 23.7437 35.7472 23.7536C35.738 23.7632 35.7287 23.7728 35.7194 23.7824C35.7101 23.7919 35.7009 23.8014 35.6915 23.8108C35.6823 23.8199 35.673 23.8289 35.6637 23.838C35.6544 23.8469 35.6452 23.8559 35.6358 23.8648C35.6266 23.8735 35.6173 23.8821 35.608 23.8907C35.5988 23.8992 35.5895 23.9077 35.5801 23.9161C35.5709 23.9243 35.5617 23.9326 35.5523 23.9408C35.5431 23.9488 35.5338 23.9568 35.5245 23.9648C35.5152 23.9727 35.506 23.9805 35.4966 23.9883C35.4874 23.996 35.4781 24.0035 35.4688 24.0111C35.4595 24.0186 35.4503 24.0261 35.4409 24.0335C35.4317 24.0408 35.4224 24.0479 35.4131 24.0551C35.4038 24.0622 35.3946 24.0694 35.3853 24.0764C35.3761 24.0833 35.3667 24.0901 35.3574 24.0969C35.3481 24.1037 35.3389 24.1106 35.3296 24.1173C35.3203 24.1239 35.311 24.1303 35.3017 24.1368C35.2924 24.1432 35.2832 24.1497 35.2739 24.1561C35.2646 24.1624 35.2553 24.1685 35.246 24.1747C35.2368 24.1808 35.2275 24.187 35.2182 24.193C35.209 24.199 35.1997 24.2048 35.1904 24.2107C35.1811 24.2165 35.1718 24.2224 35.1625 24.2281C35.1533 24.2338 35.144 24.2394 35.1347 24.245L35.1068 24.2614C35.0976 24.2668 35.0883 24.2722 35.079 24.2776C35.0698 24.2828 35.0604 24.288 35.0511 24.2931C35.0419 24.2983 35.0326 24.3035 35.0233 24.3085C35.0141 24.3135 35.0048 24.3183 34.9955 24.3232C34.9862 24.3281 34.977 24.3331 34.9676 24.3379C34.9584 24.3426 34.9491 24.3471 34.9398 24.3518C34.9305 24.3564 34.9213 24.3611 34.9119 24.3656C34.9027 24.3701 34.8934 24.3744 34.8841 24.3788L34.8562 24.3918L34.8284 24.4045C34.8192 24.4086 34.8099 24.4126 34.8006 24.4167C34.7913 24.4207 34.782 24.4248 34.7727 24.4287C34.7635 24.4326 34.7542 24.4363 34.7449 24.4401C34.7356 24.4439 34.7264 24.4478 34.717 24.4515C34.7078 24.4551 34.6985 24.4586 34.6892 24.4622C34.6799 24.4658 34.6707 24.4693 34.6614 24.4728L34.6335 24.483C34.6243 24.4864 34.6149 24.4896 34.6057 24.4929C34.5964 24.4961 34.5872 24.4995 34.5778 24.5026C34.5686 24.5058 34.5592 24.5087 34.55 24.5117L34.5221 24.5207C34.5129 24.5236 34.5036 24.5265 34.4943 24.5293L34.4665 24.5376C34.4572 24.5403 34.4479 24.5431 34.4386 24.5457C34.4294 24.5483 34.4201 24.5508 34.4108 24.5533C34.4015 24.5558 34.3922 24.5584 34.3829 24.5608L34.3551 24.5678L34.3272 24.5746L34.2994 24.5812C34.2902 24.5834 34.2809 24.5853 34.2716 24.5873C34.2623 24.5893 34.253 24.5914 34.2437 24.5934L34.2159 24.5989L34.188 24.6043C34.1787 24.606 34.1695 24.6079 34.1602 24.6095C34.1509 24.6111 34.1416 24.6126 34.1323 24.6141L34.1045 24.6187L34.0767 24.6229L34.0488 24.6268C34.0395 24.6281 34.0303 24.6295 34.021 24.6307C34.0117 24.6319 34.0024 24.6328 33.9931 24.6339C33.9839 24.635 33.9746 24.6361 33.9653 24.6371C33.956 24.6381 33.9468 24.6391 33.9375 24.64C33.9282 24.6409 33.9189 24.6416 33.9096 24.6425C33.9003 24.6433 33.891 24.6442 33.8817 24.6449C33.8725 24.6456 33.8632 24.6462 33.8539 24.6469L33.8261 24.6486C33.8168 24.6492 33.8075 24.6498 33.7982 24.6503C33.789 24.6508 33.7797 24.651 33.7704 24.6514L33.7426 24.6524L33.7147 24.6531C33.7054 24.6533 33.6961 24.6534 33.6869 24.6535L33.659 24.6539L33.6533 24.6539H33.6312H33.6033H33.5755H33.5477H33.5198H33.492H33.4641H33.4363H33.4084H33.3806H33.3527H33.3249H33.2971H33.2692H33.2414H33.2135H33.1857H33.1578H33.13H33.1022H33.0743H33.0465H33.0187H32.9908H32.963H32.9351H32.9073H32.8794H32.8516H32.8237H32.7959H32.7681H32.7402H32.7124H32.6845H32.6567H32.6288H32.601H32.5732H32.5453H32.5175H32.4896H32.4618H32.4339H32.4061H32.3783H32.3504H32.3226H32.2947H32.2669H32.2391H32.2112H32.1834H32.1555H32.1277H32.0998H32.072H32.0442H32.0163H31.9885H31.9606H31.9328H31.9049H31.8771H31.8493H31.8214H31.7936H31.7657H31.7379H31.71H31.6822H31.6544H31.6265H31.5987H31.5708H31.543H31.5152H31.4873H31.4595H31.4316H31.4038H31.3759H31.3481H31.3203H31.2924H31.2646H31.2367H31.2089H31.181H31.1532H31.1254H31.0975H31.0697H31.0418H31.014H30.9861H30.9583H30.9305H30.9026H30.8748H30.8469H30.8191H30.7913H30.7634H30.7356H30.7077H30.6799H30.652H30.6242H30.5964H30.5685H30.5407H30.5128H30.485H30.4571H30.4293H30.4014H30.3736H30.3458H30.3179H30.2901H30.2622H30.2344H30.2065H30.1787H30.1509H30.123H30.0952H30.0674H30.0395H30.0117H29.9838H29.956H29.9281H29.9003H29.8724H29.8446H29.8168H29.7889H29.7611H29.7332H29.7054H29.6775H29.6497H29.6219H29.594H29.5662H29.5383H29.5105H29.4826H29.4226V18.7731H29.4826H29.5105H29.5383H29.5662H29.594H29.6219H29.6497H29.6775H29.7054H29.7332H29.7611H29.7889H29.8168H29.8446H29.8724H29.9003H29.9281H29.956H29.9838H30.0117H30.0395H30.0674H30.0952H30.123H30.1509H30.1787H30.2065H30.2344H30.2622H30.2901H30.3179H30.3458H30.3736H30.4014H30.4293H30.4571H30.485H30.5128H30.5407H30.5685H30.5964H30.6242H30.652H30.6799H30.7077H30.7356H30.7634H30.7913H30.8191H30.8469H30.8748H30.9026H30.9305H30.9583H30.9861H31.014H31.0418H31.0697H31.0975H31.1254H31.1532H31.181H31.2089H31.2367H31.2646H31.2924H31.3203H31.3481H31.3759H31.4038H31.4316H31.4595H31.4873H31.5152H31.543H31.5708H31.5987H31.6265H31.6544H31.6822H31.71H31.7379H31.7657H31.7936H31.8214H31.8493H31.8771H31.9049H31.9328H31.9606H31.9885H32.0163H32.0442H32.072H32.0998H32.1277H32.1555H32.1834H32.2112H32.2391H32.2669H32.2947H32.3226H32.3504H32.3783H32.4061H32.4339H32.4618H32.4896H32.5175H32.5453H32.5732H32.601H32.6288H32.6567H32.6845H32.7124H32.7402H32.7681H32.7959H32.8237H32.8516H32.8794H32.9073H32.9351H32.963H32.9908H33.0187H33.0465H33.0743H33.1022H33.13H33.1578H33.1857H33.2135H33.2414H33.2692H33.2971H33.3249H33.3527H33.3806H33.4084H33.4363H33.4641H33.492H33.5198H33.5477H33.5755H33.6033H33.6312H33.659H33.6869H33.7147H33.7426H33.7704H33.7982H33.8261H33.8539H33.8817H33.8965L33.9096 18.773L33.9375 18.7728L33.9653 18.7722C33.9746 18.772 33.9839 18.7718 33.9931 18.7715C34.0025 18.7712 34.0117 18.7707 34.021 18.7703L34.0488 18.769L34.0767 18.7673L34.1045 18.7654L34.1323 18.7633L34.1602 18.7607C34.1695 18.7598 34.1788 18.759 34.188 18.758C34.1973 18.757 34.2066 18.7559 34.2159 18.7548L34.2437 18.7514C34.253 18.7502 34.2623 18.7491 34.2716 18.7478C34.2809 18.7465 34.2901 18.7451 34.2994 18.7437C34.3087 18.7423 34.318 18.7409 34.3272 18.7394L34.3551 18.7347L34.3829 18.7297C34.3922 18.728 34.4015 18.7263 34.4108 18.7245C34.4201 18.7226 34.4294 18.7206 34.4386 18.7187L34.4665 18.7127C34.4758 18.7106 34.4851 18.7085 34.4943 18.7064C34.5036 18.7042 34.5129 18.7018 34.5221 18.6995C34.5314 18.6972 34.5407 18.6949 34.55 18.6924C34.5593 18.69 34.5686 18.6875 34.5778 18.685C34.5871 18.6824 34.5964 18.6797 34.6057 18.677C34.615 18.6743 34.6243 18.6716 34.6335 18.6688L34.6614 18.66C34.6707 18.6571 34.6799 18.654 34.6892 18.6509C34.6985 18.6477 34.7078 18.6446 34.717 18.6413C34.7264 18.638 34.7357 18.6348 34.7449 18.6314C34.7542 18.6279 34.7635 18.6243 34.7727 18.6208C34.782 18.6172 34.7913 18.6135 34.8006 18.6098C34.8099 18.6061 34.8192 18.6023 34.8284 18.5985C34.8378 18.5945 34.847 18.5905 34.8562 18.5865C34.8656 18.5823 34.8749 18.5781 34.8841 18.5739C34.8934 18.5696 34.9027 18.5653 34.9119 18.5609C34.9212 18.5564 34.9306 18.5519 34.9398 18.5473C34.9491 18.5427 34.9584 18.5379 34.9676 18.5331C34.977 18.5282 34.9862 18.5232 34.9955 18.5182C35.0048 18.5131 35.0141 18.5079 35.0233 18.5027C35.0327 18.4974 35.042 18.492 35.0511 18.4865C35.0605 18.481 35.0698 18.4754 35.079 18.4697C35.0884 18.4639 35.0976 18.458 35.1068 18.452C35.1162 18.4459 35.1255 18.4397 35.1347 18.4335C35.144 18.4271 35.1533 18.4206 35.1625 18.4141C35.1719 18.4074 35.1812 18.4007 35.1904 18.3939C35.1998 18.3869 35.209 18.3798 35.2182 18.3727C35.2276 18.3654 35.2369 18.358 35.246 18.3505C35.2554 18.3428 35.2647 18.335 35.2739 18.3271C35.2833 18.3191 35.2926 18.3109 35.3017 18.3026C35.3111 18.2941 35.3204 18.2854 35.3296 18.2767C35.339 18.2677 35.3483 18.2586 35.3574 18.2493C35.3669 18.2398 35.3761 18.2301 35.3853 18.2203C35.3947 18.2102 35.404 18.2 35.4131 18.1896C35.4226 18.1788 35.4319 18.1679 35.4409 18.1569C35.4504 18.1453 35.4597 18.1337 35.4688 18.1219C35.4783 18.1095 35.4876 18.0971 35.4966 18.0844C35.5062 18.071 35.5154 18.0573 35.5245 18.0435C35.534 18.0289 35.5433 18.014 35.5523 17.999C35.562 17.9829 35.5712 17.9666 35.5801 17.95C35.5898 17.932 35.5992 17.9137 35.608 17.8952C35.6178 17.8745 35.6271 17.8535 35.6358 17.8321C35.6458 17.8077 35.6552 17.7829 35.6637 17.7576C35.6742 17.7265 35.6834 17.6948 35.6915 17.6625C35.7034 17.6153 35.7127 17.5669 35.7194 17.5173C35.7274 17.4571 35.7317 17.3952 35.7317 17.3316C35.7317 17.2697 35.7275 17.2096 35.7194 17.1512C35.7127 17.1032 35.7034 17.0564 35.6915 17.0109C35.6834 16.9799 35.6741 16.9494 35.6637 16.9196C35.6551 16.8951 35.6459 16.8709 35.6358 16.8473C35.6271 16.8267 35.6178 16.8065 35.608 16.7866C35.5992 16.7687 35.5899 16.7511 35.5801 16.7337C35.5712 16.7177 35.562 16.7018 35.5523 16.6863C35.5434 16.6718 35.534 16.6575 35.5245 16.6434C35.5154 16.6302 35.5062 16.617 35.4966 16.604C35.4876 16.5918 35.4783 16.5798 35.4688 16.5679C35.4597 16.5565 35.4504 16.5452 35.4409 16.5341C35.4318 16.5234 35.4226 16.5129 35.4131 16.5025C35.404 16.4924 35.3947 16.4825 35.3853 16.4728C35.3761 16.4634 35.3668 16.4541 35.3574 16.4449C35.3483 16.436 35.339 16.4272 35.3296 16.4185C35.3204 16.4101 35.3111 16.4018 35.3017 16.3936C35.2926 16.3856 35.2833 16.3777 35.2739 16.3699C35.2647 16.3622 35.2554 16.3547 35.246 16.3473C35.2369 16.34 35.2276 16.3329 35.2182 16.3258C35.209 16.3189 35.1997 16.3121 35.1904 16.3053C35.1812 16.2987 35.1719 16.2922 35.1625 16.2857C35.1533 16.2794 35.144 16.2732 35.1347 16.267C35.1255 16.261 35.1162 16.255 35.1068 16.2491C35.0976 16.2434 35.0884 16.2376 35.079 16.232C35.0698 16.2265 35.0605 16.221 35.0511 16.2157C35.0419 16.2104 35.0327 16.2052 35.0233 16.2C35.0141 16.1949 35.0048 16.19 34.9955 16.185C34.9863 16.1802 34.977 16.1754 34.9676 16.1706C34.9584 16.166 34.9491 16.1613 34.9398 16.1568C34.9305 16.1523 34.9213 16.1478 34.9119 16.1435C34.9027 16.1392 34.8934 16.135 34.8841 16.1309C34.8749 16.1267 34.8656 16.1227 34.8562 16.1187C34.847 16.1148 34.8377 16.1109 34.8284 16.1071C34.8192 16.1033 34.8099 16.0995 34.8006 16.0958C34.7913 16.0922 34.782 16.0886 34.7727 16.0851C34.7635 16.0817 34.7542 16.0783 34.7449 16.0749C34.7356 16.0716 34.7264 16.0684 34.717 16.0652C34.7078 16.062 34.6985 16.0588 34.6892 16.0557C34.68 16.0527 34.6707 16.0497 34.6614 16.0468C34.6521 16.0439 34.6428 16.041 34.6335 16.0382L34.6057 16.0301C34.5964 16.0274 34.5871 16.0248 34.5778 16.0222C34.5686 16.0197 34.5593 16.0173 34.55 16.0149C34.5407 16.0125 34.5315 16.0102 34.5221 16.0079C34.5129 16.0056 34.5036 16.0033 34.4943 16.0012C34.4851 15.999 34.4758 15.9969 34.4665 15.9948C34.4572 15.9928 34.4479 15.9908 34.4386 15.9889C34.4294 15.987 34.4201 15.985 34.4108 15.9832L34.3829 15.9779L34.3551 15.9729C34.3458 15.9713 34.3366 15.9697 34.3272 15.9682L34.2994 15.9638C34.2902 15.9624 34.2809 15.9611 34.2716 15.9598L34.2437 15.956L34.2159 15.9525L34.188 15.9493L34.1602 15.9464L34.1323 15.9438L34.1045 15.9415L34.0788 15.9395L34.0788 15.9061L34.1045 15.9021L34.1323 15.8975C34.1417 15.8959 34.151 15.8943 34.1602 15.8927L34.188 15.8873C34.1974 15.8855 34.2066 15.8835 34.2159 15.8816L34.2437 15.8755C34.253 15.8734 34.2623 15.8713 34.2716 15.8691C34.2809 15.8668 34.2902 15.8645 34.2994 15.8621C34.3088 15.8597 34.318 15.8572 34.3272 15.8547C34.3366 15.8522 34.3459 15.8496 34.3551 15.847C34.3644 15.8443 34.3737 15.8416 34.3829 15.8388C34.3922 15.836 34.4016 15.8331 34.4108 15.8301C34.4201 15.8271 34.4294 15.824 34.4386 15.8209C34.448 15.8178 34.4572 15.8145 34.4665 15.8112C34.4758 15.8079 34.4851 15.8045 34.4943 15.8011C34.5036 15.7976 34.5129 15.794 34.5221 15.7904C34.5315 15.7867 34.5408 15.783 34.55 15.7791C34.5593 15.7753 34.5686 15.7713 34.5778 15.7673C34.5872 15.7632 34.5964 15.7591 34.6057 15.7549C34.615 15.7506 34.6243 15.7462 34.6335 15.7418C34.6429 15.7373 34.6522 15.7327 34.6614 15.7281C34.6707 15.7233 34.68 15.7185 34.6892 15.7137C34.6986 15.7087 34.7079 15.7036 34.717 15.6985C34.7264 15.6933 34.7357 15.688 34.7449 15.6827C34.7542 15.6772 34.7635 15.6717 34.7727 15.666C34.7821 15.6603 34.7914 15.6545 34.8006 15.6486C34.8099 15.6425 34.8192 15.6364 34.8284 15.6302C34.8378 15.6238 34.8471 15.6174 34.8562 15.6109C34.8657 15.6042 34.8749 15.5974 34.8841 15.5905C34.8935 15.5835 34.9028 15.5764 34.9119 15.5692C34.9213 15.5617 34.9306 15.5543 34.9398 15.5467C34.9492 15.5388 34.9585 15.5308 34.9676 15.5228C34.9771 15.5145 34.9863 15.5061 34.9955 15.4975C35.0049 15.4888 35.0142 15.4798 35.0233 15.4708C35.0327 15.4615 35.042 15.4521 35.0511 15.4426C35.0606 15.4326 35.0699 15.4226 35.079 15.4124C35.0885 15.4017 35.0978 15.391 35.1068 15.3801C35.1163 15.3687 35.1256 15.3572 35.1347 15.3455C35.1442 15.3332 35.1535 15.3208 35.1625 15.3082C35.1721 15.2948 35.1814 15.2813 35.1904 15.2676C35.2 15.253 35.2093 15.2383 35.2182 15.2234C35.2279 15.2072 35.2372 15.1908 35.246 15.1743C35.2558 15.1561 35.2651 15.1377 35.2739 15.1191C35.2838 15.0981 35.293 15.0768 35.3017 15.0554C35.3118 15.0304 35.3211 15.005 35.3296 14.9793C35.3402 14.947 35.3495 14.9142 35.3574 14.881C35.3703 14.8271 35.3795 14.7721 35.3853 14.7161C35.3898 14.6719 35.3921 14.6271 35.3921 14.5819C35.3921 14.5342 35.3898 14.4876 35.3853 14.4422C35.3795 14.3842 35.3702 14.3282 35.3574 14.2741C35.3494 14.2403 35.3401 14.2073 35.3296 14.1751C35.3211 14.1493 35.3118 14.124 35.3017 14.0993C35.293 14.0779 35.2838 14.0569 35.2739 14.0364C35.2651 14.018 35.2558 13.9999 35.246 13.9822C35.2371 13.9659 35.2278 13.9499 35.2182 13.9341C35.2092 13.9194 35.2 13.905 35.1904 13.8908C35.1814 13.8775 35.1721 13.8643 35.1625 13.8514C35.1535 13.8392 35.1442 13.8271 35.1347 13.8152C35.1256 13.8039 35.1164 13.7926 35.1068 13.7816C35.0978 13.7711 35.0885 13.7608 35.079 13.7506C35.0699 13.7407 35.0606 13.731 35.0511 13.7215C35.042 13.7122 35.0327 13.7031 35.0233 13.6942C35.0142 13.6855 35.0049 13.6769 34.9955 13.6684C34.9863 13.6602 34.977 13.6521 34.9676 13.6441C34.9584 13.6364 34.9492 13.6287 34.9398 13.6212C34.9306 13.6138 34.9213 13.6066 34.9119 13.5994C34.9028 13.5925 34.8935 13.5856 34.8841 13.5788C34.8749 13.5722 34.8656 13.5657 34.8562 13.5593C34.8471 13.553 34.8378 13.5468 34.8284 13.5407C34.8192 13.5347 34.8099 13.5288 34.8006 13.523C34.7914 13.5173 34.7821 13.5117 34.7727 13.5061C34.7635 13.5007 34.7542 13.4953 34.7449 13.49C34.7357 13.4849 34.7264 13.4797 34.717 13.4747C34.7078 13.4697 34.6986 13.4649 34.6892 13.4601C34.68 13.4553 34.6707 13.4507 34.6614 13.4461C34.6521 13.4416 34.6429 13.4371 34.6335 13.4327C34.6243 13.4284 34.615 13.4241 34.6057 13.42C34.5964 13.4159 34.5872 13.4119 34.5778 13.4079C34.5686 13.404 34.5593 13.4001 34.55 13.3963C34.5408 13.3926 34.5315 13.3889 34.5221 13.3853C34.5129 13.3817 34.5036 13.3781 34.4943 13.3747C34.4851 13.3713 34.4758 13.3679 34.4665 13.3646C34.4572 13.3614 34.4479 13.3582 34.4386 13.3551C34.4294 13.352 34.4201 13.3489 34.4108 13.346C34.4015 13.343 34.3923 13.3401 34.3829 13.3373C34.3737 13.3344 34.3644 13.3316 34.3551 13.3289C34.3459 13.3263 34.3366 13.3237 34.3272 13.3212C34.318 13.3186 34.3087 13.3162 34.2994 13.3138L34.2716 13.3067C34.2623 13.3044 34.253 13.3022 34.2437 13.3C34.2345 13.2978 34.2252 13.2958 34.2159 13.2937L34.188 13.2878C34.1788 13.2859 34.1695 13.284 34.1602 13.2822C34.151 13.2804 34.1416 13.2787 34.1323 13.277L34.1045 13.2721C34.0953 13.2705 34.086 13.2689 34.0767 13.2675L34.0488 13.2632L34.021 13.2593L33.9931 13.2556L33.9653 13.2523L33.9375 13.2493L33.9096 13.2465L33.8817 13.2441L33.8539 13.2419L33.8261 13.2399L33.7982 13.2384L33.7872 13.2377L33.7704 13.2367L33.7426 13.2351L33.7147 13.2335L33.6869 13.2321L33.659 13.2307L33.6312 13.2295L33.6033 13.2285L33.5755 13.2276L33.5477 13.227L33.5198 13.2267L33.5045 13.2266H33.492H33.4641H33.4363H33.4084H33.3806H33.3527H33.3249H33.2971H33.2692H33.2414H33.2135H33.1857H33.1578H33.13H33.1022H33.0743H33.0465H33.0187H32.9908H32.963H32.9351H32.9073H32.8794H32.8516H32.8237H32.7959H32.7681H32.7402H32.7124H32.6845H32.6567H32.6288H32.601H32.5732H32.5453H32.5175H32.4896H32.4618H32.4339H32.4061H32.3783H32.3504H32.3226H32.2947H32.2669H32.2391H32.2112H32.1834H32.1555H32.1277H32.0998H32.072H32.0442H32.0163H31.9885H31.9606H31.9328H31.9049H31.8771H31.8493H31.8214H31.7936H31.7657H31.7379H31.71H31.6822H31.6544H31.6265H31.5987H31.5708H31.543H31.5152H31.4873H31.4595H31.4316H31.4038H31.3759H31.3481H31.3203H31.2924H31.2646H31.2367H31.2089H31.181H31.1532H31.1254H31.0975H31.0697H31.0418H31.014H30.9861H30.9583H30.9305H30.9026H30.8748H30.8469H30.8191H30.7913H30.7634H30.7356H30.7077H30.6799H30.652H30.6242H30.5964H30.5685H30.5407H30.5128H30.485H30.4571H30.4293H30.4014H30.3736H30.3458H30.3179H30.2901H30.2622H30.2344H30.2065H30.1787H30.1509H30.123H30.0952H30.0674H30.0395H30.0117H29.9838H29.956H29.9281H29.9003H29.8724H29.8446H29.8168H29.7889H29.7611H29.7332H29.7054H29.6775H29.6497H29.6219H29.594H29.5662H29.5383H29.5105H29.4826H29.4226V10.2311C29.4226 10.0295 29.4433 9.83287 29.4826 9.643C29.4911 9.60234 29.5004 9.56202 29.5105 9.52203C29.5192 9.48781 29.5285 9.45384 29.5383 9.42013C29.5471 9.39001 29.5564 9.36011 29.5662 9.33041C29.5751 9.30327 29.5843 9.27627 29.594 9.2495C29.603 9.22467 29.6122 9.19998 29.6219 9.17547C29.6309 9.15258 29.6401 9.1298 29.6497 9.10721C29.6588 9.08589 29.668 9.06466 29.6775 9.04359C29.6866 9.02358 29.6959 9.00372 29.7054 8.98396C29.7144 8.96511 29.7238 8.94639 29.7332 8.92777C29.7423 8.90986 29.7516 8.8921 29.7611 8.8744C29.7702 8.85734 29.7795 8.8404 29.7889 8.82356C29.7981 8.80722 29.8073 8.79102 29.8168 8.77489C29.8259 8.75925 29.8352 8.74367 29.8446 8.72823C29.8538 8.71325 29.863 8.69839 29.8724 8.6836C29.8816 8.66927 29.8909 8.65508 29.9003 8.64093C29.9095 8.62709 29.9187 8.61329 29.9281 8.5996C29.9373 8.5862 29.9465 8.57279 29.956 8.55954C29.9651 8.54671 29.9745 8.53404 29.9838 8.52138C29.993 8.50891 30.0023 8.49654 30.0117 8.48425C30.0209 8.47213 30.0301 8.45997 30.0395 8.44802C30.0487 8.43639 30.058 8.42494 30.0674 8.41345C30.0765 8.40212 30.0858 8.39088 30.0952 8.37971C30.1044 8.36868 30.1136 8.35765 30.123 8.34676C30.1322 8.33614 30.1415 8.32571 30.1509 8.31523C30.1601 8.30485 30.1693 8.29444 30.1787 8.2842C30.1879 8.27416 30.1972 8.26421 30.2065 8.25429C30.2158 8.24451 30.2251 8.23479 30.2344 8.22512C30.2436 8.21559 30.2529 8.20606 30.2622 8.19665C30.2714 8.18739 30.2808 8.17828 30.2901 8.16916C30.2993 8.16009 30.3085 8.15093 30.3179 8.142C30.3271 8.13325 30.3365 8.12472 30.3458 8.11609C30.355 8.1075 30.3643 8.09889 30.3736 8.09043C30.3828 8.08209 30.3922 8.07393 30.4014 8.06573C30.4107 8.05759 30.42 8.04944 30.4293 8.04141C30.4385 8.0335 30.4478 8.0257 30.4571 8.0179C30.4664 8.01017 30.4756 8.00246 30.485 7.99484C30.4942 7.9873 30.5035 7.97984 30.5128 7.97244L30.5407 7.95054L30.5685 7.92921C30.5778 7.92222 30.587 7.91528 30.5964 7.9084C30.6056 7.90159 30.6149 7.89481 30.6242 7.88809L30.652 7.86832C30.6613 7.86183 30.6705 7.85539 30.6799 7.84902L30.7077 7.83017L30.7356 7.81182C30.7448 7.8058 30.7541 7.7998 30.7634 7.79389L30.7913 7.7765C30.8005 7.77075 30.8098 7.765 30.8191 7.75937C30.8283 7.75379 30.8376 7.74837 30.8469 7.7429C30.8562 7.73743 30.8654 7.73191 30.8748 7.72656C30.884 7.72127 30.8933 7.71617 30.9026 7.71098C30.9119 7.70579 30.9211 7.7005 30.9305 7.69543C30.9397 7.69042 30.949 7.68557 30.9583 7.68066C30.9676 7.67574 30.9768 7.67081 30.9861 7.66598C30.9954 7.66121 31.0047 7.65657 31.014 7.65191C31.0232 7.64727 31.0325 7.64261 31.0418 7.63806L31.0697 7.62461C31.0789 7.6202 31.0882 7.61591 31.0975 7.61159C31.1068 7.6073 31.116 7.60294 31.1254 7.59874C31.1346 7.59458 31.1439 7.59062 31.1532 7.58655C31.1625 7.58249 31.1717 7.57836 31.181 7.57439C31.1903 7.57047 31.1996 7.56673 31.2089 7.5629C31.2181 7.55909 31.2274 7.55524 31.2367 7.55152L31.2646 7.54056L31.2924 7.52997C31.3017 7.52646 31.3109 7.52291 31.3203 7.51952C31.3295 7.51615 31.3388 7.51299 31.3481 7.50971C31.3574 7.50643 31.3666 7.50309 31.3759 7.4999C31.3852 7.49674 31.3945 7.49376 31.4038 7.4907L31.4316 7.48167C31.4409 7.47872 31.4502 7.47574 31.4595 7.47288C31.4687 7.47004 31.478 7.46737 31.4873 7.46462C31.4966 7.46185 31.5058 7.45899 31.5152 7.45633C31.5244 7.4537 31.5337 7.45126 31.543 7.44872C31.5523 7.44618 31.5615 7.44362 31.5708 7.44117L31.5987 7.43397C31.6079 7.43164 31.6172 7.42943 31.6265 7.42719C31.6358 7.42495 31.645 7.42255 31.6544 7.4204C31.6636 7.41828 31.6729 7.41634 31.6822 7.41429L31.71 7.40822L31.7379 7.40247C31.7471 7.40063 31.7564 7.3989 31.7657 7.39714C31.775 7.39537 31.7843 7.39347 31.7936 7.39179C31.8028 7.39011 31.8122 7.38867 31.8214 7.38711L31.8493 7.38249C31.8585 7.38101 31.8678 7.37949 31.8771 7.37811C31.8864 7.37672 31.8957 7.3755 31.9049 7.37421C31.9142 7.37291 31.9235 7.37151 31.9328 7.37031C31.942 7.36911 31.9513 7.36804 31.9606 7.36694L31.9885 7.36375C31.9978 7.36274 32.007 7.36161 32.0163 7.36068C32.0256 7.35976 32.0349 7.35904 32.0442 7.35821L32.072 7.35574L32.0998 7.35365C32.1091 7.35298 32.1184 7.35245 32.1277 7.35187C32.137 7.35131 32.1462 7.3506 32.1555 7.35011C32.1648 7.34963 32.1741 7.34935 32.1834 7.34896L32.2112 7.34792C32.2205 7.34762 32.2298 7.34723 32.2391 7.34702C32.2483 7.34681 32.2576 7.34679 32.2669 7.34665C32.2762 7.34651 32.2854 7.34635 32.2947 7.34631L32.3017 7.34621H32.3226H32.3504H32.3783H32.4061H32.4339H32.4618H32.4896H32.5175H32.5453H32.5732H32.601H32.6288H32.6567H32.6845H32.7124H32.7402H32.7681H32.7959H32.8237H32.8516H32.8794H32.9073H32.9351H32.963H32.9908H33.0187H33.0465H33.0743H33.1022H33.13H33.1578H33.1857H33.2135H33.2414H33.2692H33.2971H33.3249H33.3527H33.3806H33.4084H33.4363H33.4641H33.492H33.5198H33.5477H33.5755H33.6033H33.6312H33.659H33.6869H33.7147H33.7426H33.7704H33.7982H33.8261H33.8539H33.8817H33.9096H33.9375H33.9653H33.9931H34.021H34.0488H34.0767H34.1045H34.1323H34.1602H34.188H34.2159H34.2437H34.2716H34.2994H34.3272H34.3551H34.3829H34.4108H34.4386H34.4665H34.4943H34.5221H34.55H34.5778H34.6057H34.6335H34.6614H34.6892H34.717H34.7449H34.7727H34.8006H34.8284H34.8562H34.8841H34.9119H34.9398H34.9676H34.9955H35.0233H35.0511H35.079H35.1068H35.1347H35.1625H35.1904H35.2182H35.246H35.2739H35.3017H35.3296H35.3574H35.3853H35.4131H35.4409H35.4688H35.4966H35.5245H35.5523H35.5801H35.608H35.6358H35.6637H35.6915H35.7194H35.7472H35.775H35.8029H35.8307H35.8586H35.8864H35.9143H35.9421H35.9699H35.9978H36.0256H36.0535H36.0813H36.1092H36.137H36.1648H36.1927H36.2205H36.2484H36.2762H36.3041H36.3319H36.3598H36.3876H36.4154H36.4433H36.4711H36.4989H36.5268V7.34619Z" fill="url(#paint0_linear_19_3066)"/>
<path fill-rule="evenodd" clip-rule="evenodd" d="M13.5216 17.3837C13.5017 17.3743 13.4818 17.3647 13.4619 17.3551V10.231C13.4619 10.0301 13.4825 9.83393 13.5216 9.64457C13.53 9.60391 13.5393 9.56362 13.5494 9.5236C13.558 9.48933 13.5673 9.45534 13.5772 9.42158C13.586 9.39149 13.5952 9.36163 13.605 9.33195C13.6139 9.30479 13.6231 9.27775 13.6328 9.25093C13.6417 9.22613 13.6509 9.20146 13.6605 9.17697C13.6695 9.15408 13.6788 9.13126 13.6884 9.10864C13.6974 9.08732 13.7066 9.06614 13.7161 9.04509C13.7252 9.02508 13.7345 9.00524 13.7439 8.98549C13.753 8.96661 13.7623 8.94787 13.7717 8.92923C13.7808 8.91132 13.7901 8.89355 13.7995 8.87587C13.8086 8.85882 13.8179 8.84188 13.8273 8.82504C13.8364 8.80872 13.8457 8.7925 13.8551 8.77639C13.8642 8.76075 13.8734 8.74515 13.8829 8.72968C13.892 8.71473 13.9013 8.69989 13.9107 8.68512C13.9198 8.67082 13.9291 8.6566 13.9385 8.64246C13.9476 8.62861 13.9569 8.61481 13.9663 8.60113C13.9755 8.5877 13.9846 8.57429 13.9941 8.56102C14.0032 8.54821 14.0125 8.53557 14.0219 8.5229C14.031 8.51044 14.0403 8.49807 14.0497 8.48577C14.0589 8.47368 14.0681 8.46149 14.0774 8.44954C14.0866 8.43793 14.0959 8.42651 14.1052 8.41504C14.1144 8.40371 14.1237 8.39242 14.133 8.38123C14.1422 8.37023 14.1514 8.35924 14.1608 8.34837C14.17 8.33773 14.1793 8.32728 14.1886 8.31678C14.1978 8.30637 14.207 8.29599 14.2164 8.28574C14.2256 8.2757 14.2349 8.26581 14.2442 8.25591C14.2534 8.2461 14.2627 8.23638 14.272 8.22671C14.2812 8.21718 14.2904 8.20765 14.2998 8.19824C14.309 8.18898 14.3183 8.17987 14.3276 8.17075C14.3368 8.16168 14.346 8.15255 14.3554 8.14362C14.3645 8.13487 14.3739 8.12633 14.3832 8.1177C14.3924 8.10909 14.4016 8.10046 14.411 8.09199C14.4202 8.08369 14.4295 8.07554 14.4387 8.06735C14.448 8.0592 14.4572 8.05103 14.4666 8.043C14.4758 8.03509 14.485 8.02731 14.4943 8.01951C14.5035 8.01178 14.5128 8.00405 14.5221 7.99644C14.5313 7.98891 14.5406 7.98146 14.5499 7.97403C14.5592 7.96667 14.5684 7.95937 14.5777 7.95213C14.5869 7.94495 14.5962 7.93787 14.6055 7.93081C14.6148 7.92381 14.624 7.91685 14.6333 7.90997L14.6611 7.88971C14.6703 7.88304 14.6796 7.87642 14.6889 7.86986C14.6981 7.86338 14.7074 7.85696 14.7167 7.85059C14.7259 7.84425 14.7352 7.83795 14.7445 7.83172C14.7537 7.82556 14.763 7.81949 14.7723 7.81342C14.7815 7.80739 14.7907 7.80133 14.8001 7.79539C14.8093 7.78953 14.8186 7.78381 14.8279 7.77804C14.8371 7.7723 14.8463 7.76648 14.8556 7.76085C14.8648 7.75529 14.8742 7.74989 14.8834 7.74442C14.8927 7.73895 14.9019 7.73339 14.9112 7.72801C14.9204 7.72273 14.9298 7.71767 14.939 7.71248C14.9483 7.70729 14.9575 7.70203 14.9668 7.69693C14.976 7.6919 14.9853 7.68705 14.9946 7.68214C15.0039 7.67722 15.0131 7.67228 15.0224 7.66746C15.0316 7.66268 15.0409 7.658 15.0502 7.65331L15.078 7.63951C15.0872 7.63497 15.0965 7.63042 15.1058 7.62599C15.115 7.62158 15.1243 7.61731 15.1336 7.613C15.1429 7.60868 15.152 7.60428 15.1614 7.60008C15.1706 7.5959 15.1799 7.59198 15.1892 7.58792C15.1984 7.58385 15.2077 7.57972 15.217 7.57575C15.2262 7.57183 15.2355 7.56805 15.2448 7.56422L15.2725 7.55286L15.3003 7.54183L15.3281 7.53126C15.3374 7.52776 15.3466 7.52413 15.3559 7.52072C15.3651 7.51735 15.3745 7.51421 15.3837 7.51093C15.393 7.50766 15.4022 7.50433 15.4115 7.50115L15.4393 7.49185L15.4671 7.48283C15.4764 7.47987 15.4856 7.47685 15.4949 7.47399C15.5041 7.47115 15.5134 7.46845 15.5227 7.4657C15.5319 7.46293 15.5412 7.46012 15.5505 7.45744C15.5597 7.45479 15.569 7.45232 15.5783 7.44976L15.6061 7.44221C15.6153 7.43977 15.6245 7.43727 15.6338 7.43492C15.6431 7.43257 15.6524 7.43042 15.6616 7.42816C15.6709 7.4259 15.6801 7.42354 15.6894 7.42137C15.6987 7.41923 15.708 7.41722 15.7172 7.41517L15.745 7.40912C15.7543 7.40714 15.7635 7.40513 15.7728 7.40326C15.782 7.40141 15.7913 7.39971 15.8006 7.39793C15.8099 7.39615 15.8191 7.39431 15.8284 7.39262C15.8377 7.39094 15.8469 7.38941 15.8562 7.38782L15.884 7.38321C15.8932 7.38173 15.9025 7.38014 15.9118 7.37873C15.921 7.37732 15.9303 7.37614 15.9396 7.37483C15.9488 7.37354 15.9581 7.37215 15.9674 7.37093L15.9952 7.36744L16.023 7.36428C16.0322 7.36324 16.0414 7.36204 16.0507 7.3611C16.06 7.36015 16.0693 7.35946 16.0785 7.35861L16.1063 7.35616C16.1156 7.35538 16.1248 7.35461 16.1341 7.35395C16.1434 7.35328 16.1526 7.35275 16.1619 7.35217C16.1712 7.35159 16.1804 7.35092 16.1897 7.35041C16.1989 7.34991 16.2082 7.34956 16.2175 7.34915L16.2453 7.34808C16.2546 7.34776 16.2638 7.34728 16.2731 7.34705C16.2823 7.34681 16.2916 7.34684 16.3009 7.3467C16.3101 7.34656 16.3194 7.3464 16.3287 7.34635L16.341 7.34619H16.3565H16.3843H16.4121H16.4398H16.4676H16.4954H16.5232H16.551H16.5788H16.6066H16.6344H16.6622H16.69H16.7178H16.7456H16.7734H16.8012H16.8289H16.8567H16.8845H16.9123H16.9401H16.9679H16.9957H17.0235H17.0513H17.0791H17.1069H17.1347H17.1625H17.1903H17.2181H17.2458H17.2736H17.3014H17.3292H17.357H17.3848H17.4126H17.4404H17.4682H17.496H17.5238H17.5516H17.5794H17.6071H17.6349H17.6627H17.6905H17.7183H17.7461H17.7739H17.8017H17.8295H17.8573H17.8851H17.9129H17.9407H17.9685H17.9962H18.024H18.0518H18.0796H18.1074H18.1352H18.163H18.1908H18.2186H18.2464H18.2742H18.302H18.3298H18.3576H18.3854H18.4131H18.4409H18.4687H18.4965H18.5243H18.5521H18.5799H18.6077H18.6355H18.6633H18.6911H18.7189H18.7467H18.7744H18.8022H18.83H18.8578H18.8856H18.9134H18.9412H18.969H18.9968H19.0246H19.0524H19.0802H19.108H19.1358H19.1636H19.1913H19.2191H19.2469H19.2747H19.3025H19.3303H19.3581H19.3859H19.4137H19.4415H19.4693H19.4971H19.5249H19.5527H19.5805H19.6082H19.636H19.6638H19.6916H19.7194H19.7472H19.775H19.8028H19.8306H19.8584H19.8862H19.914H19.9418H19.9695H19.9973H20.0251H20.0529H20.0807H20.1085H20.1363H20.1641H20.1919H20.2197H20.2475H20.2753H20.3031H20.3309H20.3587H20.3864H20.4142H20.442H20.4698H20.4976H20.5254H20.5532H20.5768V21.7693C20.5768 21.8948 20.5687 22.0184 20.5532 22.1396C20.5457 22.198 20.5363 22.2558 20.5254 22.313C20.5171 22.3565 20.5079 22.3997 20.4976 22.4425C20.489 22.4786 20.4798 22.5144 20.4698 22.5499C20.4611 22.5811 20.4518 22.6121 20.442 22.6428C20.4332 22.6706 20.4239 22.6982 20.4142 22.7257C20.4053 22.7511 20.3961 22.7764 20.3864 22.8015C20.3775 22.8249 20.3682 22.8481 20.3587 22.8713C20.3497 22.893 20.3404 22.9147 20.3309 22.9362C20.3218 22.9566 20.3125 22.9768 20.3031 22.997C20.294 23.0162 20.2847 23.0353 20.2753 23.0543C20.2662 23.0725 20.2569 23.0906 20.2475 23.1086C20.2384 23.126 20.2291 23.1432 20.2197 23.1603C20.2105 23.1769 20.2014 23.1934 20.1919 23.2098C20.1828 23.2255 20.1735 23.2412 20.1641 23.2568C20.155 23.2719 20.1457 23.2869 20.1363 23.3018C20.1272 23.3163 20.1179 23.3308 20.1085 23.3452C20.0993 23.3592 20.0901 23.3733 20.0807 23.3871C20.0716 23.4006 20.0623 23.4139 20.0529 23.4272C20.0438 23.4402 20.0345 23.4531 20.0251 23.466C20.0159 23.4786 20.0067 23.4912 19.9973 23.5036C19.9882 23.5158 19.9789 23.5279 19.9695 23.5399C19.9604 23.5517 19.9511 23.5633 19.9418 23.5749C19.9325 23.5864 19.9233 23.5978 19.914 23.6091C19.9048 23.6202 19.8955 23.6311 19.8862 23.642C19.877 23.6528 19.8677 23.6634 19.8584 23.6741C19.8492 23.6845 19.84 23.6951 19.8306 23.7054C19.8214 23.7155 19.8121 23.7254 19.8028 23.7354C19.7936 23.7453 19.7844 23.7552 19.775 23.765C19.7658 23.7746 19.7565 23.784 19.7472 23.7935C19.738 23.8028 19.7288 23.8121 19.7194 23.8213C19.7102 23.8304 19.701 23.8395 19.6916 23.8485C19.6824 23.8573 19.6731 23.8661 19.6638 23.8748C19.6546 23.8834 19.6454 23.8921 19.636 23.9006C19.6269 23.909 19.6175 23.9172 19.6082 23.9255C19.599 23.9337 19.5898 23.942 19.5805 23.9501C19.5713 23.9581 19.5619 23.9658 19.5527 23.9737C19.5434 23.9815 19.5342 23.9894 19.5249 23.9971C19.5157 24.0047 19.5064 24.0121 19.4971 24.0195C19.4878 24.0269 19.4786 24.0344 19.4693 24.0417C19.4601 24.0489 19.4508 24.0559 19.4415 24.063C19.4322 24.0701 19.423 24.0772 19.4137 24.0841C19.4045 24.091 19.3952 24.0977 19.3859 24.1044C19.3766 24.1111 19.3675 24.1179 19.3581 24.1246C19.3489 24.1311 19.3396 24.1374 19.3303 24.1438C19.321 24.1502 19.3119 24.1567 19.3025 24.163C19.2933 24.1692 19.284 24.1752 19.2747 24.1813C19.2655 24.1874 19.2563 24.1936 19.2469 24.1996C19.2377 24.2055 19.2284 24.2112 19.2191 24.217C19.2099 24.2227 19.2007 24.2286 19.1913 24.2343C19.1821 24.2399 19.1728 24.2454 19.1636 24.2509C19.1543 24.2563 19.1451 24.2619 19.1358 24.2673C19.1265 24.2726 19.1173 24.2778 19.108 24.2831C19.0987 24.2883 19.0895 24.2935 19.0802 24.2986C19.0709 24.3037 19.0617 24.3087 19.0524 24.3137L19.0246 24.3283C19.0153 24.3332 19.0061 24.338 18.9968 24.3427C18.9876 24.3474 18.9783 24.3519 18.969 24.3565C18.9597 24.3611 18.9505 24.3658 18.9412 24.3703C18.932 24.3747 18.9227 24.3789 18.9134 24.3833C18.9042 24.3876 18.8949 24.392 18.8856 24.3963C18.8764 24.4005 18.8671 24.4045 18.8578 24.4086L18.83 24.4208L18.8022 24.4326C18.793 24.4364 18.7837 24.4401 18.7744 24.4439C18.7652 24.4477 18.756 24.4515 18.7467 24.4552C18.7374 24.4588 18.7281 24.4622 18.7189 24.4657C18.7096 24.4692 18.7004 24.4728 18.6911 24.4763C18.6818 24.4797 18.6726 24.483 18.6633 24.4863L18.6355 24.4961L18.6077 24.5056C18.5985 24.5087 18.5892 24.5116 18.5799 24.5146C18.5706 24.5176 18.5614 24.5207 18.5521 24.5236C18.5429 24.5265 18.5336 24.5292 18.5243 24.532L18.4965 24.5402L18.4687 24.5481C18.4595 24.5507 18.4502 24.5532 18.4409 24.5557C18.4317 24.5582 18.4224 24.5608 18.4131 24.5632C18.4039 24.5655 18.3946 24.5677 18.3854 24.57C18.3761 24.5722 18.3668 24.5745 18.3576 24.5767L18.3298 24.5831L18.302 24.5892C18.2927 24.5912 18.2835 24.5933 18.2742 24.5953C18.2649 24.5972 18.2556 24.5988 18.2464 24.6006C18.2371 24.6024 18.2279 24.6042 18.2186 24.6059L18.1908 24.6109C18.1816 24.6125 18.1723 24.614 18.163 24.6155C18.1537 24.617 18.1445 24.6187 18.1352 24.6201C18.126 24.6215 18.1167 24.6227 18.1074 24.6241L18.0796 24.628C18.0704 24.6292 18.0611 24.6305 18.0518 24.6317C18.0426 24.6328 18.0333 24.6338 18.024 24.6348C18.0148 24.6359 18.0055 24.6371 17.9962 24.638C17.987 24.639 17.9777 24.6398 17.9685 24.6407L17.9407 24.6432C17.9314 24.644 17.9222 24.6449 17.9129 24.6456C17.9036 24.6463 17.8943 24.6468 17.8851 24.6474L17.8573 24.6491L17.8295 24.6506C17.8203 24.651 17.811 24.6513 17.8017 24.6517C17.7924 24.652 17.7832 24.6524 17.7739 24.6527C17.7647 24.653 17.7554 24.6531 17.7461 24.6533L17.7183 24.6536C17.7097 24.6537 17.7012 24.6539 17.6926 24.6539H17.6905H17.6627H17.6349H17.6071H17.5794H17.5516H17.5238H17.496H17.4682H17.4404H17.4126H17.3848H17.357H17.3292H17.3014H17.2736H17.2458H17.2181H17.1903H17.1625H17.1347H17.1069H17.0791H17.0513H17.0235H16.9957H16.9679H16.9401H16.9123H16.8845H16.8567H16.8289H16.8012H16.7734H16.7456H16.7178H16.69H16.6622H16.6344H16.6066H16.5788H16.551H16.5232H16.4954H16.4676H16.4398H16.4121H16.3843H16.3565H16.3287H16.3009H16.2731H16.2453H16.2175H16.1897H16.1619H16.1341H16.1063H16.0785H16.0507H16.023H15.9952H15.9674H15.9396H15.9118H15.884H15.8562H15.8284H15.8006H15.7728H15.745H15.7172H15.6894H15.6616H15.6338H15.6061H15.5783H15.5505H15.5227H15.4949H15.4671H15.4393H15.4115H15.3837H15.3559H15.3281H15.3003H15.2725H15.2448H15.217H15.1892H15.1614H15.1336H15.1058H15.078H15.0502H15.0224H14.9946H14.9668H14.939H14.9112H14.8834H14.8556H14.8279H14.8001H14.7723H14.7445H14.7167H14.6889H14.6611H14.6333H14.6055H14.5777H14.5499H14.5221H14.4943H14.4666H14.4387H14.411H14.3832H14.3554H14.3276H14.2998H14.272H14.2442H14.2164H14.1886H14.1608H14.133H14.1052H14.0774H14.0497H14.0219H13.9941H13.9663H13.9385H13.9107H13.8829H13.8551H13.8273H13.7995H13.7717H13.7439H13.7161H13.6884H13.6605H13.6328H13.605H13.5772H13.5494H13.5216H13.4619V18.5747C13.4619 18.5747 13.4824 18.5804 13.5216 18.5903L13.5494 18.5972L13.5772 18.604L13.605 18.6107L13.6328 18.6172L13.6605 18.6237L13.6884 18.6301L13.7161 18.6363L13.7439 18.6425L13.7717 18.6486L13.7995 18.6546L13.8273 18.6606L13.8551 18.6664L13.8829 18.6722L13.9107 18.6779L13.9385 18.6835L13.9663 18.6891L13.9941 18.6946L14.0219 18.7L14.0497 18.7054L14.0774 18.7106L14.1052 18.7158L14.133 18.721L14.1608 18.7261L14.1886 18.7311L14.2164 18.736L14.2442 18.7409L14.272 18.7457L14.2998 18.7505L14.3276 18.7551L14.3554 18.7598L14.3832 18.7643L14.411 18.7688L14.4387 18.7733L14.4666 18.7776L14.4943 18.782L14.5221 18.7862L14.5499 18.7904L14.5777 18.7945L14.6055 18.7986L14.6333 18.8026L14.6611 18.8066L14.6889 18.8105L14.7167 18.8143L14.7445 18.818L14.7723 18.8217L14.8001 18.8254L14.8279 18.829L14.8556 18.8325L14.8834 18.836L14.9112 18.8394L14.939 18.8427L14.9668 18.846L14.9946 18.8492L15.0224 18.8524L15.0502 18.8555L15.078 18.8586L15.1058 18.8615L15.1336 18.8645L15.1614 18.8673L15.1892 18.8702L15.217 18.8729L15.2448 18.8756L15.2725 18.8783L15.3003 18.8808L15.3281 18.8834L15.3559 18.8857L15.3837 18.8882L15.4115 18.8905L15.4393 18.8927L15.4671 18.895L15.4949 18.8971L15.5227 18.8992L15.5505 18.9012L15.5783 18.9032L15.6061 18.9051L15.6338 18.9069L15.6616 18.9087L15.6894 18.9104L15.7172 18.9121L15.745 18.9137L15.7728 18.9152L15.8006 18.9167L15.8284 18.9181L15.8562 18.9194L15.884 18.9208L15.9118 18.922L15.9396 18.9231L15.9674 18.9243L15.9952 18.9252L16.023 18.9262L16.0507 18.9271L16.0785 18.928L16.1063 18.9288L16.1341 18.9295L16.1619 18.9301L16.1897 18.9307L16.2175 18.9312L16.2453 18.9317L16.2731 18.9321L16.3009 18.9324L16.3287 18.9327L16.3565 18.9329L16.3843 18.933L16.4121 18.933L16.4228 18.9331L16.4398 18.933L16.4676 18.9328L16.4954 18.9326L16.5232 18.9325L16.551 18.9323L16.5788 18.9318L16.6066 18.9313L16.6344 18.9308L16.6622 18.9303L16.69 18.9296L16.7178 18.9287L16.7456 18.9279L16.7734 18.927L16.8012 18.9261L16.8289 18.9249L16.8567 18.9236L16.8845 18.9224L16.9123 18.9212L16.9401 18.9196L16.9679 18.918L16.9957 18.9164L17.0235 18.9148L17.0513 18.913L17.0791 18.9109L17.1069 18.909L17.1347 18.907L17.1625 18.9047L17.1903 18.9023L17.2181 18.8999L17.2458 18.8975L17.2736 18.8949L17.3014 18.8921L17.3292 18.8893L17.357 18.8864L17.3848 18.8833L17.4126 18.8801L17.4404 18.8768L17.4682 18.8735L17.496 18.8699L17.5238 18.8662L17.5516 18.8625L17.5794 18.8587C17.5887 18.8574 17.5978 18.8559 17.6071 18.8545L17.6349 18.8504L17.6627 18.8462L17.6905 18.8417C17.6999 18.8402 17.709 18.8386 17.7183 18.8371L17.7461 18.8324C17.7553 18.8308 17.7648 18.8293 17.7739 18.8277C17.7833 18.8261 17.7924 18.8243 17.8017 18.8226L17.8295 18.8174L17.8573 18.8122L17.8851 18.8067C17.8944 18.8049 17.9036 18.8029 17.9129 18.801L17.9407 18.7953L17.9685 18.7895C17.9778 18.7875 17.9869 18.7853 17.9962 18.7832L18.024 18.7769C18.0333 18.7748 18.0427 18.7728 18.0518 18.7707C18.0612 18.7685 18.0703 18.7661 18.0796 18.7639L18.1074 18.7571C18.1167 18.7548 18.1261 18.7526 18.1352 18.7502C18.1446 18.7478 18.1538 18.7454 18.163 18.7429L18.1908 18.7355C18.2 18.733 18.2094 18.7306 18.2186 18.728C18.2279 18.7255 18.2371 18.7228 18.2464 18.7202L18.2742 18.7121C18.2834 18.7094 18.2928 18.7068 18.302 18.704L18.3298 18.6955L18.3576 18.6868C18.3668 18.6839 18.3762 18.6811 18.3854 18.6781L18.4131 18.6688L18.4409 18.6594C18.4502 18.6563 18.4596 18.6532 18.4687 18.65C18.4781 18.6467 18.4872 18.6433 18.4965 18.6399L18.5243 18.6298C18.5336 18.6263 18.5429 18.623 18.5521 18.6195C18.5615 18.6159 18.5706 18.6123 18.5799 18.6086C18.5892 18.605 18.5985 18.6014 18.6077 18.5977L18.6355 18.5864L18.6633 18.5748C18.6725 18.5709 18.682 18.5671 18.6911 18.5631C18.7005 18.559 18.7096 18.5547 18.7189 18.5506L18.7467 18.5381L18.7744 18.5252C18.7838 18.5208 18.793 18.5163 18.8022 18.5118C18.8115 18.5073 18.8209 18.5029 18.83 18.4983C18.8394 18.4936 18.8486 18.4888 18.8578 18.484C18.8671 18.4793 18.8765 18.4746 18.8856 18.4698C18.895 18.4648 18.9042 18.4598 18.9134 18.4547C18.9228 18.4497 18.932 18.4446 18.9412 18.4395C18.9506 18.4343 18.9598 18.429 18.969 18.4237C18.9784 18.4183 18.9876 18.4129 18.9968 18.4074C19.0061 18.4019 19.0154 18.3964 19.0246 18.3908C19.034 18.385 19.0432 18.3792 19.0524 18.3734C19.0617 18.3676 19.071 18.3617 19.0802 18.3558C19.0896 18.3497 19.0987 18.3435 19.108 18.3373C19.1173 18.331 19.1266 18.3248 19.1358 18.3185C19.1452 18.312 19.1543 18.3054 19.1636 18.2988C19.1729 18.2921 19.1822 18.2855 19.1913 18.2787C19.2008 18.2718 19.2099 18.2647 19.2191 18.2577C19.2285 18.2506 19.2378 18.2434 19.2469 18.2362C19.2563 18.2288 19.2656 18.2213 19.2747 18.2137C19.2841 18.2061 19.2934 18.1983 19.3025 18.1905C19.3119 18.1826 19.3212 18.1747 19.3303 18.1666C19.3398 18.1583 19.3489 18.1498 19.3581 18.1414C19.3674 18.1329 19.3768 18.1244 19.3859 18.1157C19.3953 18.1067 19.4045 18.0977 19.4137 18.0886C19.4231 18.0793 19.4323 18.0698 19.4415 18.0604C19.4508 18.0508 19.4602 18.0411 19.4693 18.0314C19.4787 18.0211 19.4879 18.0108 19.4971 18.0005C19.5065 17.9898 19.5157 17.9791 19.5249 17.9683C19.5343 17.9572 19.5436 17.9461 19.5527 17.9348C19.5621 17.9231 19.5714 17.9114 19.5805 17.8996C19.5899 17.8872 19.5991 17.8747 19.6082 17.8621C19.6177 17.8491 19.6269 17.8359 19.636 17.8227C19.6455 17.8089 19.6548 17.795 19.6638 17.7809C19.6733 17.7663 19.6826 17.7515 19.6916 17.7366C19.7011 17.7208 19.7104 17.705 19.7194 17.6891C19.729 17.6721 19.7382 17.6551 19.7472 17.6379C19.7568 17.6196 19.7661 17.6011 19.775 17.5825C19.7847 17.5624 19.7939 17.5422 19.8028 17.5219C19.8125 17.4998 19.8218 17.4775 19.8306 17.4551C19.8403 17.4303 19.8496 17.4054 19.8584 17.3802C19.8683 17.3516 19.8775 17.3227 19.8862 17.2936C19.8963 17.2596 19.9055 17.2253 19.914 17.1906C19.9244 17.1476 19.9337 17.104 19.9418 17.06C19.9537 16.9945 19.9628 16.928 19.9695 16.8605C19.9789 16.7665 19.9834 16.6708 19.9834 16.5736V13.2266H19.9695H19.9418H19.914H19.8862H19.8584H19.8306H19.8028H19.775H19.7472H19.7194H19.6916H19.6638H19.636H19.6082H19.5805H19.5527H19.5249H19.4971H19.4693H19.4415H19.4137H19.3859H19.3581H19.3303H19.3025H19.2747H19.2469H19.2191H19.1913H19.1636H19.1358H19.108H19.0802H19.0524H19.0246H18.9968H18.969H18.9412H18.9134H18.8856H18.8578H18.83H18.8022H18.7744H18.7467H18.7189H18.6911H18.6633H18.6355H18.6077H18.5799H18.5521H18.5243H18.4965H18.4687H18.4409H18.4131H18.3854H18.3576H18.3298H18.302H18.2742H18.2464H18.2186H18.1908H18.163H18.1352H18.1074H18.0796H18.0518H18.024H17.9962H17.9685H17.9407H17.9129H17.8851H17.8573H17.8295H17.8017H17.7739H17.7461H17.7183H17.6905H17.6627H17.6349H17.6071H17.5794H17.5516H17.5238H17.5027V16.5736C17.5027 16.6259 17.5004 16.6775 17.496 16.728C17.4903 16.7925 17.481 16.8552 17.4682 16.9163C17.4603 16.954 17.451 16.991 17.4404 17.0273C17.432 17.0563 17.4227 17.0848 17.4126 17.1128C17.404 17.1366 17.3947 17.16 17.3848 17.1832C17.376 17.2038 17.3668 17.2241 17.357 17.2441C17.3481 17.2624 17.3389 17.2804 17.3292 17.2981C17.3203 17.3144 17.311 17.3303 17.3014 17.3462C17.2925 17.3611 17.2832 17.3758 17.2736 17.3902C17.2646 17.4038 17.2554 17.4172 17.2458 17.4304C17.2368 17.443 17.2276 17.4554 17.2181 17.4677C17.209 17.4793 17.1997 17.4907 17.1903 17.502C17.1812 17.5128 17.1719 17.5235 17.1625 17.5341C17.1534 17.5442 17.1441 17.5542 17.1347 17.5641C17.1255 17.5736 17.1163 17.583 17.1069 17.5923C17.0978 17.6012 17.0885 17.6101 17.0791 17.6187C17.07 17.6271 17.0607 17.6354 17.0513 17.6436C17.0422 17.6515 17.0329 17.6593 17.0235 17.667C17.0144 17.6745 17.0051 17.6818 16.9957 17.6891C16.9866 17.6961 16.9773 17.7031 16.9679 17.71C16.9588 17.7167 16.9495 17.7233 16.9401 17.7298C16.931 17.7361 16.9217 17.7423 16.9123 17.7485C16.9032 17.7545 16.8939 17.7604 16.8845 17.7662C16.8754 17.7719 16.8661 17.7775 16.8567 17.783C16.8476 17.7884 16.8383 17.7936 16.8289 17.7988C16.8198 17.8039 16.8105 17.8089 16.8012 17.8138C16.792 17.8187 16.7827 17.8234 16.7734 17.8281C16.7642 17.8326 16.7549 17.8371 16.7456 17.8416C16.7364 17.8459 16.7271 17.8502 16.7178 17.8544C16.7086 17.8585 16.6993 17.8626 16.69 17.8665C16.6808 17.8704 16.6715 17.8741 16.6622 17.8778C16.653 17.8815 16.6437 17.8851 16.6344 17.8886C16.6252 17.8921 16.616 17.8955 16.6066 17.8988C16.5974 17.9021 16.5881 17.9053 16.5788 17.9084C16.5696 17.9115 16.5603 17.9145 16.551 17.9174C16.5418 17.9203 16.5325 17.9231 16.5232 17.9258C16.514 17.9285 16.5047 17.9312 16.4954 17.9338C16.4862 17.9363 16.477 17.9389 16.4676 17.9413C16.4584 17.9437 16.4492 17.9459 16.4398 17.9482C16.4306 17.9504 16.4214 17.9525 16.4121 17.9546C16.4028 17.9567 16.3936 17.9587 16.3843 17.9606C16.375 17.9625 16.3658 17.9644 16.3565 17.9662C16.3473 17.9679 16.338 17.9696 16.3287 17.9712C16.3194 17.9728 16.3102 17.9744 16.3009 17.9759L16.2731 17.9802C16.2639 17.9815 16.2546 17.9828 16.2453 17.984C16.2361 17.9852 16.2268 17.9864 16.2175 17.9875L16.1897 17.9906C16.1805 17.9915 16.1712 17.9924 16.1619 17.9932C16.1527 17.994 16.1434 17.9949 16.1341 17.9956C16.1249 17.9963 16.1156 17.9969 16.1063 17.9975C16.0971 17.9981 16.0878 17.9987 16.0785 17.9991C16.0693 17.9996 16.0601 18.0001 16.0507 18.0005C16.0415 18.0008 16.0322 18.0011 16.023 18.0013L15.9952 18.002C15.9859 18.0021 15.9767 18.0022 15.9674 18.0023L15.9569 18.0023L15.9396 18.0023L15.9118 18.0021L15.884 18.0017L15.8562 18.0011L15.8284 18.0004L15.8006 17.9995L15.7728 17.9984L15.745 17.9971L15.7172 17.9957L15.6894 17.994L15.6616 17.9922L15.6338 17.9902L15.6061 17.9881L15.5783 17.9857L15.5505 17.9832L15.5227 17.9806L15.4949 17.9777L15.4671 17.9747L15.4393 17.9716L15.4115 17.9682L15.3837 17.9647L15.3559 17.961L15.3281 17.9571L15.3003 17.9531L15.2725 17.9489L15.2448 17.9446L15.217 17.9401L15.1892 17.9354L15.1614 17.9306L15.1336 17.9256L15.1058 17.9204L15.078 17.9151L15.0502 17.9096L15.0224 17.904L14.9946 17.8982L14.9668 17.8923L14.939 17.8862L14.9112 17.8799L14.8834 17.8735L14.8556 17.8669L14.8279 17.8602L14.8001 17.8533L14.7723 17.8463L14.7445 17.8391L14.7167 17.8317L14.6889 17.8243L14.6611 17.8166L14.6333 17.8088L14.6055 17.8009L14.5777 17.7929L14.5499 17.7846L14.5221 17.7762L14.4943 17.7677L14.4666 17.759L14.4387 17.7502L14.411 17.7413L14.3832 17.7322L14.3554 17.723L14.3276 17.7136L14.2998 17.7041L14.272 17.6945L14.2442 17.6846L14.2164 17.6747L14.1886 17.6647L14.1608 17.6544L14.133 17.6441L14.1052 17.6336L14.0774 17.623L14.0497 17.6123L14.0219 17.6014L13.9941 17.5904L13.9663 17.5793L13.9385 17.568L13.9107 17.5566L13.8829 17.5451L13.8551 17.5334L13.8273 17.5216L13.7995 17.5097L13.7717 17.4977L13.7439 17.4855L13.7161 17.4732L13.6884 17.4608L13.6605 17.4483L13.6328 17.4356L13.605 17.4228L13.5772 17.4099L13.5494 17.3969L13.5216 17.3838V17.3837Z" fill="url(#paint1_linear_19_3066)"/>
<path fill-rule="evenodd" clip-rule="evenodd" d="M21.5021 13.9579C21.4818 13.9743 21.4619 13.9909 21.4424 14.0076V10.231C21.4424 10.0302 21.463 9.83416 21.5021 9.64487C21.5105 9.60423 21.5198 9.56396 21.5299 9.52397C21.5385 9.48966 21.5478 9.45562 21.5577 9.42181C21.5665 9.3917 21.5757 9.36179 21.5855 9.33209C21.5944 9.30495 21.6036 9.27795 21.6133 9.25119C21.6222 9.22638 21.6315 9.20169 21.6411 9.1772C21.6501 9.15431 21.6593 9.13154 21.6689 9.10892C21.6779 9.0876 21.6871 9.06641 21.6966 9.04535C21.7057 9.02534 21.715 9.00547 21.7245 8.98572C21.7335 8.96684 21.7428 8.94815 21.7522 8.9295C21.7613 8.9116 21.7706 8.89383 21.78 8.87613C21.7891 8.85907 21.7984 8.84214 21.8078 8.82529C21.8169 8.80898 21.8262 8.79273 21.8356 8.77662C21.8448 8.76098 21.854 8.7454 21.8634 8.72994C21.8725 8.71501 21.8818 8.70017 21.8912 8.68542C21.9003 8.67107 21.9096 8.65688 21.919 8.64271C21.9282 8.62884 21.9374 8.61506 21.9468 8.60138C21.956 8.58795 21.9652 8.57452 21.9746 8.56127C21.9837 8.54844 21.9931 8.53582 22.0024 8.52318C22.0116 8.51071 22.0208 8.49832 22.0302 8.48602C22.0394 8.47391 22.0486 8.46177 22.058 8.44982C22.0671 8.43821 22.0765 8.42676 22.0858 8.41529C22.095 8.40396 22.1042 8.39268 22.1136 8.38151C22.1228 8.37048 22.132 8.35949 22.1414 8.34863C22.1505 8.33801 22.1599 8.32753 22.1692 8.31706C22.1784 8.30667 22.1876 8.29624 22.197 8.28597C22.2061 8.27594 22.2154 8.26601 22.2247 8.25611C22.2339 8.24633 22.2432 8.23661 22.2525 8.22694C22.2617 8.21741 22.271 8.20788 22.2803 8.19847C22.2895 8.18924 22.2988 8.18012 22.3081 8.17101C22.3174 8.16194 22.3265 8.1528 22.3359 8.14385C22.3451 8.1351 22.3544 8.12656 22.3637 8.11793C22.3729 8.10932 22.3821 8.10069 22.3915 8.09223C22.4007 8.08392 22.41 8.07575 22.4193 8.06756C22.4285 8.05939 22.4377 8.05124 22.4471 8.04321C22.4563 8.0353 22.4656 8.02752 22.4749 8.01972C22.4841 8.01199 22.4934 8.00426 22.5027 7.99662C22.5119 7.9891 22.5212 7.98164 22.5305 7.97424C22.5397 7.96687 22.5489 7.95956 22.5583 7.95231C22.5675 7.94516 22.5768 7.93808 22.5861 7.93101C22.5953 7.92402 22.6045 7.91705 22.6138 7.91018C22.623 7.90335 22.6323 7.89661 22.6416 7.88989C22.6509 7.88325 22.6601 7.8766 22.6694 7.87005C22.6787 7.86356 22.6879 7.85717 22.6972 7.85078C22.7065 7.84443 22.7157 7.83811 22.725 7.83188C22.7342 7.82572 22.7435 7.81965 22.7528 7.81358C22.7621 7.80753 22.7713 7.80149 22.7806 7.79556C22.7898 7.78969 22.7991 7.78397 22.8084 7.7782C22.8177 7.77246 22.8269 7.76664 22.8362 7.76101C22.8454 7.75543 22.8547 7.75003 22.864 7.74456C22.8733 7.73909 22.8825 7.7335 22.8918 7.72815C22.901 7.72287 22.9103 7.71779 22.9196 7.7126C22.9289 7.7074 22.9381 7.70217 22.9474 7.69709C22.9566 7.69206 22.9659 7.68721 22.9752 7.68227C22.9844 7.67736 22.9936 7.67242 23.003 7.6676L23.0308 7.65345L23.0586 7.63963C23.0678 7.63511 23.077 7.63054 23.0863 7.62611C23.0956 7.6217 23.1049 7.61743 23.1142 7.61311C23.1234 7.60882 23.1326 7.60439 23.1419 7.60019C23.1511 7.59602 23.1605 7.59209 23.1697 7.58803C23.179 7.58397 23.1882 7.57984 23.1975 7.57587C23.2068 7.57195 23.216 7.56814 23.2253 7.56431L23.2531 7.55296C23.2624 7.54924 23.2716 7.54552 23.2809 7.5419C23.2901 7.5383 23.2994 7.53484 23.3087 7.53133C23.318 7.52782 23.3272 7.5242 23.3365 7.52079C23.3457 7.51742 23.355 7.51428 23.3643 7.511C23.3736 7.50773 23.3828 7.5044 23.3921 7.50122C23.4013 7.49803 23.4106 7.49499 23.4199 7.49192L23.4477 7.4829C23.4569 7.47994 23.4662 7.47692 23.4755 7.47403C23.4847 7.4712 23.494 7.46852 23.5033 7.46577C23.5125 7.463 23.5218 7.46017 23.5311 7.45749C23.5403 7.45483 23.5496 7.45237 23.5589 7.4498L23.5866 7.44226C23.5959 7.43981 23.6051 7.43732 23.6144 7.43497C23.6237 7.43264 23.633 7.43044 23.6422 7.42818C23.6515 7.42592 23.6607 7.42357 23.67 7.4214C23.6793 7.41925 23.6886 7.41724 23.6978 7.41519L23.7256 7.40914C23.7349 7.40718 23.7441 7.40515 23.7534 7.40328C23.7626 7.40141 23.7719 7.39973 23.7812 7.39795C23.7905 7.39617 23.7997 7.39431 23.809 7.39262L23.8368 7.38782L23.8646 7.38323C23.8739 7.38173 23.8831 7.38014 23.8924 7.37873C23.9016 7.37732 23.9109 7.37614 23.9202 7.37483C23.9294 7.37354 23.9387 7.37218 23.948 7.37095L23.9758 7.36747L24.0036 7.36428C24.0128 7.36324 24.0221 7.36204 24.0314 7.3611C24.0406 7.36015 24.0499 7.35946 24.0592 7.35861L24.087 7.35616C24.0962 7.35538 24.1055 7.35461 24.1147 7.35395C24.124 7.35328 24.1333 7.35275 24.1425 7.35217C24.1518 7.35159 24.161 7.35092 24.1703 7.35041C24.1796 7.34991 24.1889 7.34956 24.1981 7.34915L24.2259 7.34808C24.2352 7.34776 24.2444 7.34728 24.2537 7.34705C24.263 7.34681 24.2723 7.34684 24.2815 7.3467C24.2908 7.34656 24.3 7.3464 24.3093 7.34635L24.3216 7.34619H24.3371H24.3649H24.3927H24.4205H24.4483H24.4761H24.5039H24.5317H24.5595H24.5873H24.6151H24.6428H24.6706H24.6984H24.7262H24.754H24.7818H24.8096H24.8374H24.8652H24.893H24.9208H24.9486H24.9764H25.0042H25.032H25.0598H25.0876H25.1154H25.1431H25.1709H25.1987H25.2265H25.2543H25.2821H25.3099H25.3377H25.3655H25.3933H25.4211H25.4489H25.4767H25.5045H25.5323H25.5601H25.5878H25.6156H25.6434H25.6712H25.699H25.7268H25.7546H25.7824H25.8102H25.838H25.8658H25.8936H25.9214H25.9492H25.977H26.0048H26.0326H26.0604H26.0882H26.1159H26.1437H26.1715H26.1993H26.2271H26.2549H26.2827H26.3105H26.3383H26.3661H26.3939H26.4217H26.4495H26.4773H26.5051H26.5329H26.5606H26.5885H26.6162H26.644H26.6718H26.6996H26.7274H26.7552H26.783H26.8108H26.8386H26.8664H26.8942H26.922H26.9498H26.9776H27.0054H27.0332H27.061H27.0887H27.1166H27.1443H27.1721H27.1999H27.2277H27.2555H27.2833H27.3111H27.3389H27.3667H27.3945H27.4223H27.4501H27.4779H27.5057H27.5334H27.5613H27.589H27.6168H27.6447H27.6724H27.7002H27.728H27.7558H27.7836H27.8114H27.8392H27.867H27.8948H27.9226H27.9504H27.9782H28.006H28.0338H28.0615H28.0894H28.1171H28.1449H28.1727H28.2005H28.2283H28.2561H28.2839H28.3117H28.3395H28.3673H28.3951H28.4229H28.4507H28.4785H28.5063H28.5341H28.5576V21.7693C28.5576 21.8947 28.5496 22.0182 28.5341 22.1394C28.5266 22.1978 28.5172 22.2555 28.5063 22.3127C28.498 22.3563 28.4887 22.3995 28.4785 22.4423C28.4698 22.4784 28.4606 22.5142 28.4507 22.5498C28.4419 22.581 28.4326 22.6119 28.4229 22.6426C28.414 22.6705 28.4047 22.6981 28.3951 22.7255C28.3862 22.7509 28.3769 22.7762 28.3673 22.8013C28.3583 22.8247 28.3491 22.8479 28.3395 22.871C28.3305 22.8928 28.3212 22.9145 28.3117 22.936C28.3027 22.9564 28.2934 22.9766 28.2839 22.9968C28.2748 23.016 28.2656 23.0352 28.2561 23.0542C28.247 23.0724 28.2378 23.0905 28.2283 23.1085C28.2192 23.1258 28.21 23.1431 28.2005 23.1602C28.1914 23.1768 28.1822 23.1933 28.1727 23.2096C28.1636 23.2254 28.1543 23.2411 28.1449 23.2567C28.1358 23.2718 28.1265 23.2867 28.1171 23.3016C28.108 23.3162 28.0988 23.3306 28.0894 23.345C28.0802 23.359 28.071 23.3731 28.0615 23.387C28.0524 23.4004 28.0431 23.4138 28.0338 23.4271C28.0246 23.4401 28.0153 23.4529 28.006 23.4658C27.9968 23.4784 27.9875 23.491 27.9782 23.5035C27.969 23.5156 27.9597 23.5277 27.9504 23.5397C27.9412 23.5515 27.9319 23.5631 27.9226 23.5747C27.9134 23.5862 27.9042 23.5977 27.8948 23.609C27.8856 23.62 27.8763 23.631 27.867 23.6419C27.8578 23.6526 27.8486 23.6633 27.8392 23.6739C27.83 23.6844 27.8208 23.6949 27.8114 23.7052C27.8022 23.7153 27.7929 23.7253 27.7836 23.7353C27.7744 23.7452 27.7652 23.7551 27.7558 23.7649C27.7466 23.7745 27.7373 23.7839 27.728 23.7933C27.7188 23.8027 27.7096 23.8119 27.7002 23.8212C27.691 23.8303 27.6818 23.8393 27.6724 23.8483C27.6633 23.8572 27.654 23.8659 27.6447 23.8746C27.6354 23.8833 27.6262 23.892 27.6168 23.9005C27.6077 23.9089 27.5983 23.9171 27.589 23.9254C27.5798 23.9336 27.5706 23.9419 27.5613 23.95C27.5521 23.958 27.5427 23.9657 27.5334 23.9736C27.5242 23.9814 27.515 23.9893 27.5057 23.997C27.4965 24.0045 27.4871 24.0119 27.4779 24.0194C27.4686 24.0268 27.4594 24.0343 27.4501 24.0416C27.4409 24.0488 27.4316 24.0558 27.4223 24.0629C27.413 24.07 27.4038 24.0771 27.3945 24.084C27.3853 24.0909 27.376 24.0976 27.3667 24.1043C27.3574 24.111 27.3482 24.1178 27.3389 24.1244C27.3297 24.1309 27.3204 24.1373 27.3111 24.1437C27.3019 24.1501 27.2926 24.1566 27.2833 24.1629C27.2741 24.1691 27.2648 24.1751 27.2555 24.1812C27.2463 24.1873 27.2371 24.1935 27.2277 24.1995C27.2185 24.2054 27.2092 24.2111 27.1999 24.2169C27.1907 24.2227 27.1815 24.2285 27.1721 24.2342C27.1629 24.2398 27.1536 24.2452 27.1443 24.2507C27.1351 24.2562 27.1259 24.2618 27.1166 24.2672C27.1073 24.2725 27.098 24.2777 27.0887 24.283L27.061 24.2985L27.0332 24.3136L27.0054 24.3282C26.9961 24.333 26.9869 24.3379 26.9776 24.3426C26.9684 24.3473 26.9591 24.3519 26.9498 24.3564C26.9405 24.361 26.9313 24.3657 26.922 24.3702C26.9128 24.3746 26.9034 24.3789 26.8942 24.3832C26.8849 24.3875 26.8757 24.392 26.8664 24.3962C26.8572 24.4004 26.8479 24.4044 26.8386 24.4085L26.8108 24.4207L26.783 24.4325L26.7552 24.4438C26.7459 24.4476 26.7367 24.4514 26.7274 24.4551C26.7182 24.4587 26.7089 24.4621 26.6996 24.4656C26.6904 24.4692 26.6811 24.4728 26.6718 24.4762C26.6626 24.4796 26.6533 24.4829 26.644 24.4862L26.6162 24.496L26.5885 24.5055C26.5792 24.5086 26.5699 24.5115 26.5606 24.5145C26.5514 24.5175 26.5422 24.5207 26.5329 24.5236C26.5237 24.5265 26.5143 24.5291 26.5051 24.5319L26.4773 24.5402L26.4495 24.5481C26.4402 24.5507 26.431 24.5531 26.4217 24.5556C26.4124 24.5581 26.4032 24.5607 26.3939 24.5631C26.3847 24.5655 26.3754 24.5676 26.3661 24.5699C26.3568 24.5722 26.3476 24.5745 26.3383 24.5767L26.3105 24.5831L26.2827 24.5891C26.2734 24.5911 26.2642 24.5933 26.2549 24.5952C26.2457 24.5971 26.2364 24.5987 26.2271 24.6005L26.1993 24.6059L26.1715 24.6109C26.1623 24.6125 26.153 24.614 26.1437 24.6155C26.1345 24.617 26.1252 24.6186 26.1159 24.6201C26.1067 24.6215 26.0974 24.6227 26.0882 24.6241L26.0604 24.628C26.0511 24.6292 26.0418 24.6305 26.0326 24.6316C26.0233 24.6328 26.014 24.6338 26.0048 24.6348C25.9955 24.6359 25.9863 24.637 25.977 24.638C25.9677 24.639 25.9585 24.6398 25.9492 24.6407L25.9214 24.6432C25.9121 24.644 25.9029 24.6449 25.8936 24.6456C25.8844 24.6463 25.8751 24.6467 25.8658 24.6473L25.838 24.6491L25.8102 24.6506C25.801 24.651 25.7917 24.6513 25.7824 24.6516C25.7731 24.652 25.7639 24.6524 25.7546 24.6527C25.7454 24.653 25.7361 24.653 25.7268 24.6532L25.699 24.6536C25.6904 24.6537 25.6818 24.6539 25.6731 24.6539H25.6712H25.6434H25.6156H25.5878H25.5601H25.5323H25.5045H25.4767H25.4489H25.4211H25.3933H25.3655H25.3377H25.3099H25.2821H25.2543H25.2265H25.1987H25.1709H25.1431H25.1154H25.0876H25.0598H25.032H25.0042H24.9764H24.9486H24.9208H24.893H24.8652H24.8374H24.8096H24.7818H24.754H24.7262H24.6984H24.6706H24.6428H24.6151H24.5873H24.5595H24.5317H24.5039H24.4761H24.4483H24.4205H24.3927H24.3649H24.3371H24.3093H24.2815H24.2537H24.2259H24.1981H24.1703H24.1425H24.1147H24.087H24.0592H24.0314H24.0036H23.9758H23.948H23.9202H23.8924H23.8646H23.8368H23.809H23.7812H23.7534H23.7256H23.6978H23.67H23.6422H23.6144H23.5866H23.5589H23.5311H23.5033H23.4755H23.4477H23.4199H23.3921H23.3643H23.3365H23.3087H23.2809H23.2531H23.2253H23.1975H23.1697H23.1419H23.1142H23.0863H23.0586H23.0308H23.003H22.9752H22.9474H22.9196H22.8918H22.864H22.8362H22.8084H22.7806H22.7528H22.725H22.6972H22.6694H22.6416H22.6138H22.5861H22.5583H22.5305H22.5027H22.4749H22.4471H22.4193H22.3915H22.3637H22.3359H22.3081H22.2803H22.2525H22.2247H22.197H22.1692H22.1414H22.1136H22.0858H22.058H22.0302H22.0024H21.9746H21.9468H21.919H21.8912H21.8634H21.8356H21.8078H21.78H21.7522H21.7245H21.6966H21.6689H21.6411H21.6133H21.5855H21.5577H21.5299H21.5021H21.4424V17.9937C21.4619 18.0104 21.4818 18.0269 21.5021 18.0433C21.5113 18.0507 21.5206 18.0581 21.5299 18.0654C21.5391 18.0727 21.5483 18.0799 21.5577 18.0871C21.5669 18.0941 21.5761 18.1012 21.5855 18.1082C21.5946 18.1151 21.604 18.1218 21.6133 18.1286C21.6225 18.1353 21.6318 18.142 21.6411 18.1486C21.6503 18.1551 21.6595 18.1617 21.6689 18.1681L21.6966 18.1872C21.7058 18.1934 21.7151 18.1996 21.7245 18.2057L21.7522 18.2238C21.7614 18.2298 21.7707 18.2357 21.78 18.2416C21.7892 18.2474 21.7985 18.2531 21.8078 18.2588L21.8356 18.2757C21.8449 18.2813 21.8541 18.2868 21.8634 18.2923C21.8726 18.2977 21.8819 18.303 21.8912 18.3083L21.919 18.3241L21.9468 18.3395L21.9746 18.3546C21.9838 18.3595 21.993 18.3645 22.0024 18.3694C22.0116 18.3742 22.0209 18.3789 22.0302 18.3837L22.058 18.3978L22.0858 18.4116L22.1136 18.4251C22.1228 18.4295 22.132 18.434 22.1414 18.4383L22.1692 18.4512L22.197 18.4639L22.2247 18.4762L22.2525 18.4883L22.2803 18.5002L22.3081 18.5118L22.3359 18.5232L22.3637 18.5343L22.3915 18.5452L22.4193 18.5558C22.4285 18.5593 22.4377 18.5629 22.4471 18.5663L22.4749 18.5765C22.4841 18.5798 22.4933 18.5833 22.5027 18.5866C22.5119 18.5899 22.5212 18.593 22.5305 18.5963L22.5583 18.606L22.5861 18.6152C22.5953 18.6183 22.6045 18.6215 22.6138 18.6245C22.623 18.6276 22.6324 18.6305 22.6416 18.6335L22.6694 18.6424L22.6972 18.6509L22.725 18.6594L22.7528 18.6676L22.7806 18.6757L22.8084 18.6836L22.8362 18.6914L22.864 18.699L22.8918 18.7064L22.9196 18.7137L22.9474 18.7207L22.9752 18.7277L23.003 18.7345L23.0308 18.7412L23.0586 18.7476L23.0863 18.754L23.1142 18.7602L23.1419 18.7662L23.1697 18.7722L23.1975 18.7779L23.2253 18.7837L23.2531 18.7891L23.2809 18.7946L23.3087 18.7998L23.3365 18.8049L23.3643 18.81L23.3921 18.8148L23.4199 18.8196L23.4477 18.8243L23.4755 18.8288L23.5033 18.8333L23.5311 18.8375L23.5589 18.8417L23.5866 18.8458L23.6144 18.8498L23.6422 18.8537L23.67 18.8573L23.6978 18.861L23.7256 18.8646L23.7534 18.868L23.7812 18.8714L23.809 18.8746L23.8368 18.8777L23.8646 18.8808L23.8924 18.8837L23.9202 18.8865L23.948 18.8893L23.9758 18.8919L24.0036 18.8945L24.0314 18.8969L24.0592 18.8993L24.087 18.9016L24.1147 18.9038L24.1425 18.9059L24.1703 18.908L24.1981 18.9099L24.2259 18.9118L24.2537 18.9136L24.2815 18.9152L24.3093 18.9168L24.3371 18.9184L24.3649 18.9198L24.3927 18.9212L24.4205 18.9225L24.4483 18.9237L24.4761 18.9248L24.5039 18.9259L24.5317 18.9268L24.5595 18.9278L24.5873 18.9287L24.6151 18.9294L24.6428 18.9301L24.6706 18.9307L24.6984 18.9312L24.7262 18.9317L24.754 18.9322L24.7818 18.9325L24.8096 18.9327L24.8374 18.933L24.8652 18.9331L24.893 18.9331L24.9208 18.9332L24.9486 18.9331L24.9764 18.9329L25.0042 18.9328L25.032 18.9325L25.0598 18.9322L25.0876 18.9318L25.1154 18.9314L25.1431 18.9309L25.1709 18.9303L25.1987 18.9297L25.2265 18.929L25.2543 18.9283L25.2821 18.9275L25.3099 18.9266L25.3377 18.9257L25.3655 18.9247L25.3933 18.9238L25.4211 18.9226L25.4489 18.9214L25.4767 18.9203L25.4903 18.9197L25.5045 18.919L25.5323 18.9177L25.5601 18.9162L25.5878 18.9147L25.6156 18.913L25.6434 18.9113L25.6712 18.9094L25.699 18.9075L25.7268 18.9055L25.7546 18.9034L25.7824 18.9012L25.8102 18.8989L25.838 18.8966L25.8658 18.8941L25.8936 18.8916L25.9214 18.889L25.9492 18.8863L25.977 18.8835L26.0048 18.8807L26.0326 18.8778L26.0604 18.8748L26.0882 18.8717L26.1159 18.8686L26.1437 18.8654L26.1715 18.8621L26.1993 18.8588L26.2271 18.8553L26.2549 18.8519L26.2827 18.8483L26.3105 18.8447L26.3383 18.841L26.3661 18.8373L26.3939 18.8335L26.4217 18.8296L26.4495 18.8257L26.4773 18.8216L26.5051 18.8176L26.5329 18.8135L26.5606 18.8093L26.5885 18.8051L26.6162 18.8007L26.644 18.7964L26.6718 18.7919L26.6996 18.7875L26.7274 18.783L26.7552 18.7784L26.783 18.7737L26.8108 18.769L26.8386 18.7643L26.8664 18.7594L26.8942 18.7546L26.922 18.7496L26.9498 18.7446L26.9776 18.7396L27.0054 18.7345L27.0332 18.7294L27.061 18.7242L27.0887 18.7189L27.1166 18.7136L27.1443 18.7082L27.1721 18.7028L27.1999 18.6974L27.2277 18.6918L27.2555 18.6863L27.2833 18.6806L27.3111 18.6749L27.3389 18.6692L27.3667 18.6634L27.3945 18.6575L27.4223 18.6516L27.4501 18.6456L27.4779 18.6396L27.5057 18.6335L27.5334 18.6273L27.5613 18.6211L27.589 18.6148L27.6168 18.6084L27.6447 18.602L27.6724 18.5955L27.7002 18.5889L27.728 18.5822L27.7557 18.5754V17.3551L27.728 17.3689L27.7002 17.3826L27.6724 17.3962L27.6447 17.4097L27.6168 17.4231L27.589 17.4363L27.5613 17.4493L27.5334 17.4623L27.5057 17.4751L27.4779 17.4878L27.4501 17.5003L27.4223 17.5128L27.3945 17.525L27.3667 17.5371L27.3389 17.5491L27.3111 17.5609L27.2833 17.5725L27.2555 17.5841L27.2277 17.5954L27.1999 17.6067L27.1721 17.6177L27.1443 17.6287L27.1166 17.6394L27.0887 17.65L27.061 17.6604L27.0332 17.6707L27.0054 17.6809L26.9776 17.6909L26.9498 17.7007L26.922 17.7104L26.8942 17.7198L26.8664 17.7292L26.8386 17.7384L26.8108 17.7474L26.783 17.7563L26.7552 17.765L26.7274 17.7736L26.6996 17.782L26.6718 17.7902L26.644 17.7983L26.6162 17.8062L26.5885 17.814L26.5606 17.8216L26.5329 17.829L26.5051 17.8363L26.4773 17.8435L26.4495 17.8504L26.4217 17.8572L26.3939 17.8639L26.3661 17.8704L26.3383 17.8768L26.3105 17.883L26.2827 17.889L26.2549 17.8949L26.2271 17.9006L26.1993 17.9062L26.1715 17.9116L26.1437 17.9169L26.1159 17.922L26.0882 17.9269L26.0604 17.9318L26.0326 17.9364L26.0048 17.9409L25.977 17.9453L25.9492 17.9494L25.9214 17.9535L25.8936 17.9574L25.8658 17.9611L25.838 17.9647L25.8102 17.9682L25.7824 17.9715L25.7546 17.9746L25.7268 17.9776L25.699 17.9805L25.6712 17.9832L25.6434 17.9858L25.6156 17.9882L25.5878 17.9905L25.571 17.9918L25.5601 17.9926L25.5323 17.9944L25.5045 17.9963L25.4767 17.9978L25.4489 17.9992L25.4211 18.0005L25.3933 18.0014L25.3655 18.0023L25.3377 18.0029L25.3099 18.0033L25.2821 18.0036C25.2728 18.0037 25.2636 18.0036 25.2543 18.0035L25.2265 18.0035L25.1987 18.003L25.1709 18.0024L25.1431 18.0017C25.1338 18.0014 25.1246 18.001 25.1154 18.0006C25.1061 18.0002 25.0968 17.9999 25.0876 17.9995L25.0598 17.9979L25.032 17.9963L25.0042 17.9943L24.9764 17.9921C24.9671 17.9914 24.9578 17.9907 24.9486 17.9899C24.9393 17.989 24.9301 17.988 24.9208 17.9871L24.893 17.9843L24.8652 17.981L24.8374 17.9777L24.8096 17.974L24.7818 17.9701C24.7725 17.9687 24.7632 17.9674 24.754 17.9659C24.7447 17.9645 24.7355 17.9629 24.7262 17.9613C24.717 17.9598 24.7076 17.9584 24.6984 17.9567C24.6891 17.9551 24.6799 17.9532 24.6706 17.9515C24.6614 17.9498 24.652 17.9481 24.6428 17.9463C24.6335 17.9445 24.6243 17.9424 24.6151 17.9405C24.6058 17.9386 24.5965 17.9367 24.5873 17.9347C24.5779 17.9326 24.5687 17.9304 24.5595 17.9283L24.5317 17.9217C24.5223 17.9195 24.5131 17.9171 24.5039 17.9147C24.4946 17.9123 24.4853 17.91 24.4761 17.9075C24.4667 17.905 24.4575 17.9024 24.4483 17.8998C24.439 17.8972 24.4297 17.8946 24.4205 17.8919C24.4112 17.8892 24.4019 17.8863 24.3927 17.8835C24.3834 17.8806 24.3741 17.8778 24.3649 17.8748C24.3556 17.8718 24.3463 17.8687 24.3371 17.8656C24.3278 17.8625 24.3185 17.8594 24.3093 17.8562C24.3 17.8529 24.2908 17.8495 24.2815 17.8462C24.2722 17.8428 24.2629 17.8394 24.2537 17.8359C24.2444 17.8324 24.2352 17.8287 24.2259 17.825C24.2166 17.8214 24.2073 17.8177 24.1981 17.814C24.1888 17.8101 24.1796 17.8061 24.1703 17.8021C24.161 17.7981 24.1517 17.7942 24.1425 17.7901C24.1332 17.7859 24.124 17.7815 24.1147 17.7773C24.1054 17.7729 24.0961 17.7686 24.087 17.7641C24.0776 17.7596 24.0684 17.755 24.0592 17.7504C24.0498 17.7457 24.0406 17.7409 24.0314 17.7361C24.0221 17.7312 24.0127 17.7264 24.0036 17.7214C23.9942 17.7163 23.985 17.711 23.9758 17.7058C23.9665 17.7005 23.9572 17.6952 23.948 17.6898C23.9386 17.6843 23.9294 17.6787 23.9202 17.673C23.9108 17.6673 23.9016 17.6615 23.8924 17.6556C23.8831 17.6497 23.8737 17.6438 23.8646 17.6377C23.8552 17.6315 23.846 17.625 23.8368 17.6186C23.8275 17.6122 23.8182 17.6056 23.809 17.599C23.7997 17.5923 23.7904 17.5856 23.7812 17.5787C23.7718 17.5716 23.7626 17.5644 23.7534 17.5572C23.7441 17.5498 23.7348 17.5425 23.7256 17.535C23.7163 17.5273 23.707 17.5197 23.6978 17.5119C23.6884 17.5039 23.6792 17.4957 23.67 17.4875C23.6606 17.4791 23.6514 17.4706 23.6422 17.462C23.6329 17.4533 23.6236 17.4445 23.6144 17.4355C23.6051 17.4264 23.5958 17.4172 23.5866 17.4079C23.5772 17.3983 23.568 17.3884 23.5589 17.3785C23.5494 17.3684 23.5402 17.3581 23.5311 17.3478C23.5217 17.3371 23.5124 17.3263 23.5033 17.3154C23.4939 17.3042 23.4846 17.2929 23.4755 17.2814C23.4661 17.2696 23.4568 17.2576 23.4477 17.2454C23.4383 17.2329 23.429 17.2202 23.4199 17.2073C23.4105 17.194 23.4012 17.1805 23.3921 17.1668C23.3826 17.1525 23.3734 17.1381 23.3643 17.1235C23.3548 17.1081 23.3455 17.0926 23.3365 17.0769C23.327 17.0604 23.3177 17.0437 23.3087 17.0268C23.2991 17.0088 23.2899 16.9907 23.2809 16.9723C23.2713 16.9527 23.262 16.9329 23.2531 16.9128C23.2435 16.8912 23.2342 16.8695 23.2253 16.8473C23.2155 16.8228 23.2064 16.7979 23.1975 16.7727C23.1877 16.7447 23.1784 16.7164 23.1697 16.6876C23.1597 16.6542 23.1504 16.6203 23.1419 16.5858C23.1314 16.5428 23.1222 16.4989 23.1142 16.4543C23.1022 16.388 23.0929 16.32 23.0863 16.25C23.0789 16.1693 23.075 16.0861 23.075 16.0005C23.075 15.9149 23.0789 15.8316 23.0863 15.7508C23.0929 15.6809 23.1022 15.6128 23.1142 15.5465C23.1222 15.5018 23.1314 15.4579 23.1419 15.4149C23.1504 15.3804 23.1597 15.3465 23.1697 15.3131C23.1784 15.2843 23.1877 15.2559 23.1975 15.2279C23.2064 15.2027 23.2155 15.1778 23.2253 15.1533C23.2342 15.1311 23.2435 15.1093 23.2531 15.0877C23.262 15.0676 23.2713 15.0478 23.2809 15.0282C23.2899 15.0099 23.2991 14.9916 23.3087 14.9737C23.3177 14.9568 23.327 14.94 23.3365 14.9235C23.3455 14.9078 23.3548 14.8923 23.3643 14.877C23.3734 14.8624 23.3826 14.8479 23.3921 14.8336C23.4012 14.8199 23.4105 14.8064 23.4199 14.7931C23.429 14.7802 23.4383 14.7675 23.4477 14.755C23.4568 14.7428 23.4661 14.7308 23.4755 14.719C23.4846 14.7075 23.4939 14.6962 23.5033 14.6849C23.5124 14.674 23.5217 14.6632 23.5311 14.6526C23.5402 14.6422 23.5494 14.6319 23.5589 14.6218C23.568 14.6119 23.5772 14.602 23.5866 14.5924C23.5958 14.5831 23.6051 14.5739 23.6144 14.5648C23.6236 14.5558 23.6329 14.547 23.6422 14.5383C23.6514 14.5297 23.6606 14.5212 23.67 14.5128C23.6792 14.5046 23.6884 14.4964 23.6978 14.4884C23.707 14.4806 23.7163 14.4729 23.7256 14.4653C23.7348 14.4578 23.7441 14.4504 23.7534 14.4431C23.7626 14.4358 23.7718 14.4286 23.7812 14.4215C23.7904 14.4146 23.7997 14.4079 23.809 14.4012C23.8182 14.3946 23.8275 14.3881 23.8368 14.3816C23.846 14.3752 23.8552 14.3687 23.8646 14.3625C23.8737 14.3564 23.8831 14.3505 23.8924 14.3446C23.9016 14.3387 23.9108 14.3329 23.9202 14.3271C23.9294 14.3215 23.9386 14.3159 23.948 14.3104C23.9572 14.3049 23.9665 14.2997 23.9758 14.2944C23.985 14.2892 23.9942 14.2839 24.0036 14.2788C24.0127 14.2738 24.0221 14.2689 24.0314 14.2641C24.0406 14.2593 24.0498 14.2545 24.0592 14.2498C24.0684 14.2451 24.0776 14.2405 24.087 14.236C24.0961 14.2316 24.1054 14.2272 24.1147 14.2229C24.124 14.2186 24.1332 14.2143 24.1425 14.2101C24.1517 14.206 24.161 14.202 24.1703 14.198C24.1796 14.194 24.1888 14.19 24.1981 14.1862C24.2073 14.1824 24.2166 14.1788 24.2259 14.1751C24.2352 14.1714 24.2444 14.1677 24.2537 14.1642C24.2629 14.1607 24.2722 14.1573 24.2815 14.154C24.2908 14.1506 24.3 14.1472 24.3093 14.1439C24.3185 14.1407 24.3278 14.1376 24.3371 14.1345C24.3463 14.1314 24.3556 14.1283 24.3649 14.1253C24.3741 14.1223 24.3834 14.1195 24.3927 14.1166C24.4019 14.1138 24.4112 14.111 24.4205 14.1082L24.4483 14.1003C24.4575 14.0977 24.4667 14.0951 24.4761 14.0926C24.4853 14.0901 24.4946 14.0877 24.5039 14.0854C24.5131 14.083 24.5223 14.0806 24.5317 14.0784L24.5595 14.0718C24.5687 14.0697 24.5779 14.0675 24.5873 14.0654C24.5965 14.0634 24.6058 14.0615 24.6151 14.0596C24.6243 14.0576 24.6335 14.0556 24.6428 14.0538C24.652 14.0519 24.6614 14.0503 24.6706 14.0486C24.6799 14.0468 24.6891 14.045 24.6984 14.0433C24.7076 14.0417 24.717 14.0403 24.7262 14.0387C24.7355 14.0372 24.7447 14.0356 24.754 14.0341L24.7818 14.03L24.8096 14.026L24.8374 14.0224L24.8652 14.019L24.893 14.0158L24.9208 14.013C24.9301 14.0121 24.9393 14.011 24.9486 14.0102C24.9578 14.0093 24.9671 14.0087 24.9764 14.0079L25.0042 14.0057L25.032 14.0038L25.0598 14.0021L25.0876 14.0006C25.0968 14.0001 25.1061 13.9998 25.1154 13.9995C25.1246 13.9991 25.1338 13.9986 25.1431 13.9983L25.1709 13.9976L25.1987 13.997L25.2265 13.9966L25.2543 13.9965C25.2636 13.9965 25.2728 13.9964 25.2821 13.9964L25.3099 13.9968L25.3377 13.9972L25.3655 13.9978L25.3933 13.9987L25.4211 13.9996L25.4489 14.0009L25.4767 14.0023L25.5045 14.0038L25.5323 14.0056L25.5601 14.0075L25.571 14.0082L25.5878 14.0096L25.6156 14.0118L25.6434 14.0142L25.6712 14.0167L25.699 14.0194L25.7268 14.0222L25.7546 14.0252L25.7824 14.0283L25.8102 14.0315L25.838 14.0349L25.8658 14.0385L25.8936 14.0422L25.9214 14.046L25.9492 14.05L25.977 14.0541L26.0048 14.0585L26.0326 14.0629L26.0604 14.0675L26.0882 14.0723L26.1159 14.0772L26.1437 14.0822L26.1715 14.0874L26.1993 14.0928L26.2271 14.0983L26.2549 14.104L26.2827 14.1098L26.3105 14.1158L26.3383 14.122L26.3661 14.1283L26.3939 14.1347L26.4217 14.1414L26.4495 14.1482L26.4773 14.1551L26.5051 14.1622L26.5329 14.1695L26.5606 14.1769L26.5885 14.1845L26.6162 14.1922L26.644 14.2001L26.6718 14.2082L26.6996 14.2164L26.7274 14.2248L26.7552 14.2334L26.783 14.2421L26.8108 14.2509L26.8386 14.26L26.8664 14.2692L26.8942 14.2786L26.922 14.2881L26.9498 14.2977L26.9776 14.3076L27.0054 14.3176L27.0332 14.3278L27.061 14.3381L27.0887 14.3486L27.1166 14.3593L27.1443 14.3701L27.1721 14.381L27.1999 14.3922L27.2277 14.4035L27.2555 14.4149L27.2833 14.4265L27.3111 14.4383L27.3389 14.4502L27.3667 14.4622L27.3945 14.4744L27.4223 14.4867L27.4501 14.4992L27.4779 14.5119L27.5057 14.5247L27.5334 14.5376L27.5613 14.5507L27.589 14.5639L27.6168 14.5772L27.6447 14.5907L27.6724 14.6043L27.7002 14.618L27.728 14.6319L27.7557 14.6458V13.4247L27.728 13.4179L27.7002 13.4112L27.6724 13.4046L27.6447 13.398L27.6168 13.3916L27.589 13.3853L27.5613 13.379L27.5334 13.3727L27.5057 13.3666L27.4779 13.3605L27.4501 13.3545L27.4223 13.3485L27.3945 13.3425L27.3667 13.3367L27.3389 13.3309L27.3111 13.3252L27.2833 13.3195L27.2555 13.3138L27.2277 13.3083L27.1999 13.3027L27.1721 13.2973L27.1443 13.2918L27.1166 13.2865L27.0887 13.2812L27.061 13.2759L27.0332 13.2708L27.0054 13.2656L26.9776 13.2605L26.9498 13.2555L26.922 13.2505L26.8942 13.2456L26.8664 13.2407L26.8386 13.2359L26.8108 13.2312L26.783 13.2265L26.7552 13.2218L26.7274 13.2172L26.6996 13.2127L26.6718 13.2083L26.644 13.2038L26.6162 13.1995L26.5885 13.1952L26.5606 13.191L26.5329 13.1868L26.5051 13.1826L26.4773 13.1786L26.4495 13.1746L26.4217 13.1707L26.3939 13.1668L26.3661 13.163L26.3383 13.1593L26.3105 13.1556L26.2827 13.152L26.2549 13.1485L26.2271 13.145L26.1993 13.1416L26.1715 13.1383L26.1437 13.135L26.1159 13.1318L26.0882 13.1287L26.0604 13.1256L26.0326 13.1227L26.0048 13.1197L25.977 13.1169L25.9492 13.1142L25.9214 13.1115L25.8936 13.1089L25.8658 13.1064L25.838 13.1039L25.8102 13.1016L25.7824 13.0993L25.7546 13.0971L25.7268 13.0951L25.699 13.093L25.6712 13.0912L25.6434 13.0893L25.6156 13.0876L25.5878 13.0859L25.5601 13.0844L25.5323 13.083L25.5045 13.0816L25.4903 13.081L25.4767 13.0804L25.4489 13.0792L25.4211 13.0781L25.3933 13.0769L25.3655 13.0759L25.3377 13.075L25.3099 13.074L25.2821 13.0732L25.2543 13.0724L25.2265 13.0717L25.1987 13.0709L25.1709 13.0704L25.1431 13.0698L25.1154 13.0692L25.0876 13.0689L25.0598 13.0685L25.032 13.0681L25.0042 13.0679L24.9764 13.0678L24.9486 13.0676L24.9208 13.0675L24.893 13.0676L24.8652 13.0676L24.8374 13.0677L24.8096 13.068L24.7818 13.0682L24.754 13.0685L24.7262 13.069L24.6984 13.0695L24.6706 13.0699L24.6428 13.0706L24.6151 13.0713L24.5873 13.072L24.5595 13.0729L24.5317 13.0738L24.5039 13.0748L24.4761 13.0759L24.4483 13.0771L24.4205 13.0782L24.3927 13.0795L24.3649 13.0809L24.3371 13.0823L24.3093 13.0839L24.2815 13.0855L24.2537 13.0871L24.2259 13.089L24.1981 13.0908L24.1703 13.0927L24.1425 13.0948L24.1147 13.0969L24.087 13.0991L24.0592 13.1014L24.0314 13.1038L24.0036 13.1062L23.9758 13.1089L23.948 13.1115L23.9202 13.1142L23.8924 13.1171L23.8646 13.12L23.8368 13.1231L23.809 13.1262L23.7812 13.1294L23.7534 13.1328L23.7256 13.1362L23.6978 13.1398L23.67 13.1434L23.6422 13.1471L23.6144 13.151L23.5866 13.155L23.5589 13.159L23.5311 13.1633L23.5033 13.1675L23.4755 13.172L23.4477 13.1765L23.4199 13.1812L23.3921 13.186L23.3643 13.1908L23.3365 13.1959L23.3087 13.201L23.2809 13.2063L23.2531 13.2117L23.2253 13.2171L23.1975 13.2229L23.1697 13.2286L23.1419 13.2346L23.1142 13.2407L23.0863 13.2468L23.0586 13.2532L23.0308 13.2597L23.003 13.2664L22.9752 13.2731L22.9474 13.2801L22.9196 13.2872L22.8918 13.2945L22.864 13.3019L22.8362 13.3095L22.8084 13.3173L22.7806 13.3252L22.7528 13.3333L22.725 13.3415L22.6972 13.35L22.6694 13.3586L22.6416 13.3675C22.6324 13.3705 22.623 13.3734 22.6138 13.3764L22.5861 13.3857C22.5768 13.3888 22.5675 13.3918 22.5583 13.395L22.5305 13.4047L22.5027 13.4144C22.4933 13.4177 22.4841 13.4211 22.4749 13.4245C22.4656 13.4279 22.4563 13.4312 22.4471 13.4346L22.4193 13.4452C22.41 13.4487 22.4007 13.4522 22.3915 13.4558L22.3637 13.4667L22.3359 13.4778L22.3081 13.4892L22.2803 13.5008L22.2525 13.5127L22.2247 13.5248L22.197 13.5371L22.1692 13.5499L22.1414 13.5627C22.132 13.5671 22.1228 13.5716 22.1136 13.576L22.0858 13.5894L22.058 13.6033L22.0302 13.6174C22.0209 13.6222 22.0116 13.6269 22.0024 13.6317C21.993 13.6366 21.9838 13.6416 21.9746 13.6466L21.9468 13.6616L21.919 13.677C21.9097 13.6822 21.9004 13.6875 21.8912 13.6928C21.8819 13.6982 21.8726 13.7035 21.8634 13.7089C21.8541 13.7143 21.8449 13.7199 21.8356 13.7254C21.8263 13.731 21.817 13.7367 21.8078 13.7423C21.7985 13.7481 21.7892 13.7538 21.78 13.7596C21.7707 13.7654 21.7614 13.7714 21.7522 13.7773L21.7245 13.7955C21.7151 13.8016 21.7058 13.8078 21.6966 13.814L21.6689 13.8331C21.6595 13.8395 21.6503 13.8461 21.6411 13.8526C21.6318 13.8592 21.6225 13.8659 21.6133 13.8726C21.604 13.8794 21.5946 13.8862 21.5855 13.893C21.5761 13.9 21.5669 13.9071 21.5577 13.9142C21.5483 13.9213 21.5391 13.9286 21.5299 13.9358C21.5206 13.9432 21.5113 13.9505 21.5021 13.958V13.9579Z" fill="url(#paint2_linear_19_3066)"/>
<defs>
<linearGradient id="paint0_linear_19_3066" x1="29.4226" y1="16.0001" x2="36.5383" y2="16.0001" gradientUnits="userSpaceOnUse">
<stop stop-color="#007B40"/>
<stop offset="1" stop-color="#55B330"/>
</linearGradient>
<linearGradient id="paint1_linear_19_3066" x1="13.4619" y1="16.0001" x2="20.5768" y2="16.0001" gradientUnits="userSpaceOnUse">
<stop stop-color="#1D2970"/>
<stop offset="1" stop-color="#006DBA"/>
</linearGradient>
<linearGradient id="paint2_linear_19_3066" x1="21.4424" y1="16.0001" x2="28.5576" y2="16.0001" gradientUnits="userSpaceOnUse">
<stop stop-color="#6E2B2F"/>
<stop offset="1" stop-color="#E30138"/>
</linearGradient>
</defs>
</svg>
