<svg width="32" height="20" viewBox="0 0 32 20" fill="none" xmlns="http://www.w3.org/2000/svg">
<path d="M19.8339 17.7071H11.4492V2.76134H19.8339V17.7071Z" fill="#FF5F00"/>
<path d="M11.985 10.2327C11.985 7.2009 13.4161 4.50024 15.6449 2.75983C14.0151 1.48715 11.9581 0.727533 9.72271 0.727533C4.43054 0.727533 0.140625 4.98308 0.140625 10.2327C0.140625 15.4824 4.43054 19.7379 9.72271 19.7379C11.9581 19.7379 14.0151 18.9783 15.6449 17.7056C13.4161 15.9652 11.985 13.2645 11.985 10.2327Z" fill="#EB001B"/>
<path d="M31.1416 10.2327C31.1416 15.4824 26.8517 19.7379 21.5595 19.7379C19.3241 19.7379 17.2671 18.9783 15.6367 17.7056C17.8661 15.9652 19.2973 13.2645 19.2973 10.2327C19.2973 7.2009 17.8661 4.50024 15.6367 2.75983C17.2671 1.48715 19.3241 0.727533 21.5595 0.727533C26.8517 0.727533 31.1416 4.98308 31.1416 10.2327Z" fill="#F79E1B"/>
<path d="M7.35026 10.2943C7.35026 9.87913 7.62458 9.53805 8.07283 9.53805C8.50112 9.53805 8.79026 9.86442 8.79026 10.2943C8.79026 10.7242 8.50112 11.0506 8.07283 11.0506C7.62458 11.0506 7.35026 10.7095 7.35026 10.2943ZM9.27843 10.2943V9.11325H8.7606V9.40003C8.59636 9.18735 8.34714 9.05385 8.00838 9.05385C7.34057 9.05385 6.81704 9.57312 6.81704 10.2943C6.81704 11.0161 7.34057 11.5348 8.00838 11.5348C8.34714 11.5348 8.59636 11.4013 8.7606 11.1886V11.4754H9.27843V10.2943ZM26.7773 10.2943C26.7773 9.87913 27.0517 9.53805 27.4999 9.53805C27.9288 9.53805 28.2173 9.86442 28.2173 10.2943C28.2173 10.7242 27.9288 11.0506 27.4999 11.0506C27.0517 11.0506 26.7773 10.7095 26.7773 10.2943ZM28.7061 10.2943V8.16466H28.1877V9.40003C28.0234 9.18735 27.7742 9.05385 27.4355 9.05385C26.7677 9.05385 26.2441 9.57312 26.2441 10.2943C26.2441 11.0161 26.7677 11.5348 27.4355 11.5348C27.7742 11.5348 28.0234 11.4013 28.1877 11.1886V11.4754H28.7061V10.2943ZM15.7062 9.51372C16.0398 9.51372 16.2543 9.72132 16.309 10.0867H15.0732C15.1285 9.74564 15.3372 9.51372 15.7062 9.51372ZM15.7165 9.05385C15.0184 9.05385 14.5303 9.55784 14.5303 10.2943C14.5303 11.0455 15.0384 11.5348 15.7513 11.5348C16.11 11.5348 16.4385 11.446 16.7276 11.2039L16.4738 10.8232C16.2742 10.981 16.0199 11.0704 15.7809 11.0704C15.4473 11.0704 15.1433 10.9171 15.0686 10.4917H16.8371C16.8422 10.4278 16.8474 10.3633 16.8474 10.2943C16.8422 9.55784 16.3837 9.05385 15.7165 9.05385ZM21.9692 10.2943C21.9692 9.87913 22.2435 9.53805 22.6918 9.53805C23.1201 9.53805 23.4092 9.86442 23.4092 10.2943C23.4092 10.7242 23.1201 11.0506 22.6918 11.0506C22.2435 11.0506 21.9692 10.7095 21.9692 10.2943ZM23.8974 10.2943V9.11325H23.3795V9.40003C23.2147 9.18735 22.9661 9.05385 22.6273 9.05385C21.9595 9.05385 21.436 9.57312 21.436 10.2943C21.436 11.0161 21.9595 11.5348 22.6273 11.5348C22.9661 11.5348 23.2147 11.4013 23.3795 11.1886V11.4754H23.8974V10.2943ZM19.0447 10.2943C19.0447 11.011 19.5477 11.5348 20.3153 11.5348C20.6741 11.5348 20.913 11.4556 21.1719 11.2531L20.9233 10.8379C20.7288 10.9765 20.5246 11.0506 20.2999 11.0506C19.8865 11.0455 19.5825 10.7491 19.5825 10.2943C19.5825 9.83954 19.8865 9.54314 20.2999 9.53805C20.5246 9.53805 20.7288 9.61215 20.9233 9.75073L21.1719 9.33555C20.913 9.13304 20.6741 9.05385 20.3153 9.05385C19.5477 9.05385 19.0447 9.57764 19.0447 10.2943ZM25.7212 9.05385C25.4223 9.05385 25.2279 9.19244 25.0933 9.40003V9.11325H24.58V11.4754H25.0984V10.1512C25.0984 9.76035 25.2678 9.54314 25.6065 9.54314C25.7115 9.54314 25.821 9.55784 25.9305 9.60253L26.0901 9.11834C25.9755 9.07365 25.8261 9.05385 25.7212 9.05385ZM11.8396 9.30104C11.5904 9.13814 11.2471 9.05385 10.8684 9.05385C10.265 9.05385 9.87667 9.34064 9.87667 9.81012C9.87667 10.1953 10.1658 10.4329 10.6985 10.507L10.9431 10.5415C11.2271 10.5811 11.3611 10.6552 11.3611 10.7887C11.3611 10.9714 11.1718 11.0755 10.8182 11.0755C10.4595 11.0755 10.2006 10.9618 10.0261 10.8283L9.782 11.2282C10.066 11.4358 10.4247 11.5348 10.8131 11.5348C11.5009 11.5348 11.8995 11.2135 11.8995 10.7638C11.8995 10.3486 11.5858 10.1314 11.0674 10.0573L10.8234 10.0222C10.5992 9.99283 10.4196 9.94871 10.4196 9.79032C10.4196 9.61724 10.589 9.51372 10.873 9.51372C11.1769 9.51372 11.4712 9.62742 11.6155 9.71622L11.8396 9.30104ZM18.5212 9.05385C18.2224 9.05385 18.0279 9.19244 17.8939 9.40003V9.11325H17.3806V11.4754H17.8984V10.1512C17.8984 9.76035 18.0678 9.54314 18.4066 9.54314C18.5115 9.54314 18.621 9.55784 18.7305 9.60253L18.8902 9.11834C18.7755 9.07365 18.6261 9.05385 18.5212 9.05385ZM14.102 9.11325H13.2551V8.39657H12.7316V9.11325H12.2485V9.58273H12.7316V10.6603C12.7316 11.2084 12.946 11.5348 13.5585 11.5348C13.7832 11.5348 14.0421 11.4658 14.2063 11.3521L14.0569 10.912C13.9024 11.0008 13.733 11.0455 13.5984 11.0455C13.3395 11.0455 13.2551 10.8871 13.2551 10.6501V9.58273H14.102V9.11325ZM6.35909 11.4754V9.99283C6.35909 9.43453 6.00038 9.05894 5.4221 9.05385C5.11813 9.04876 4.80447 9.14266 4.58491 9.47413C4.42066 9.21223 4.16175 9.05385 3.7979 9.05385C3.54355 9.05385 3.2949 9.12795 3.10043 9.40455V9.11325H2.58203V11.4754H3.10499V10.1659C3.10499 9.75582 3.33425 9.53805 3.6884 9.53805C4.03229 9.53805 4.20623 9.76035 4.20623 10.1608V11.4754H4.72976V10.1659C4.72976 9.75582 4.96871 9.53805 5.3126 9.53805C5.66618 9.53805 5.83556 9.76035 5.83556 10.1608V11.4754H6.35909Z" fill="white"/>
</svg>
