<svg width="47" height="15" viewBox="0 0 47 15" fill="none" xmlns="http://www.w3.org/2000/svg">
<path d="M20.1873 14.2849H16.4609L18.7917 0.969269H22.5178L20.1873 14.2849Z" fill="#00579F"/>
<path d="M33.6956 1.29541C32.9606 1.02599 31.7948 0.728516 30.3533 0.728516C26.6735 0.728516 24.0821 2.54161 24.0662 5.13379C24.0357 7.0463 25.9215 8.10855 27.332 8.74624C28.7737 9.39786 29.2638 9.82318 29.2638 10.404C29.2491 11.2961 28.0988 11.7073 27.026 11.7073C25.5383 11.7073 24.7411 11.4953 23.5297 10.999L23.039 10.7862L22.5176 13.7753C23.3915 14.1432 25.0017 14.4696 26.6735 14.4839C30.5834 14.4839 33.1289 12.6989 33.159 9.93652C33.1739 8.42071 32.1781 7.25924 30.0312 6.31014C28.7279 5.70088 27.9297 5.29006 27.9297 4.66668C27.945 4.09997 28.6048 3.51952 30.076 3.51952C31.2874 3.49109 32.1775 3.76013 32.8517 4.02937L33.1888 4.17076L33.6956 1.29541V1.29541Z" fill="#00579F"/>
<path d="M38.6481 9.56764C38.9549 8.80267 40.1358 5.84203 40.1358 5.84203C40.1203 5.87046 40.442 5.06295 40.6261 4.56722L40.8865 5.71457C40.8865 5.71457 41.5921 8.90189 41.7454 9.56764C41.163 9.56764 39.3841 9.56764 38.6481 9.56764ZM43.2477 0.969269H40.3654C39.4766 0.969269 38.8013 1.20989 38.4178 2.07407L32.8828 14.2847H36.7927C36.7927 14.2847 37.4364 12.6412 37.5748 12.2873C38.0037 12.2873 41.8073 12.2873 42.3591 12.2873C42.4661 12.7548 42.8037 14.2847 42.8037 14.2847H46.254L43.2477 0.969269V0.969269Z" fill="#00579F"/>
<path d="M13.3482 0.969269L9.69888 10.0492L9.3001 8.20772C8.62542 6.08284 6.50947 3.7742 4.14819 2.62628L7.49083 14.2708H11.4313L17.2885 0.969269H13.3482V0.969269Z" fill="#00579F"/>
<path d="M6.31055 0.969269H0.315241L0.253906 1.23831C4.93062 2.34331 8.02791 5.00684 9.30046 8.20829L7.99715 2.08857C7.78258 1.23813 7.12318 0.997322 6.31055 0.969269Z" fill="#FAA61A"/>
</svg>
