<svg width="33" height="33" viewBox="0 0 33 33" fill="none" xmlns="http://www.w3.org/2000/svg">
<path d="M18.2755 3.31338C18.3943 3.249 18.5259 3.21169 18.6609 3.20414C18.7986 3.19765 18.936 3.22229 19.0628 3.27624C19.1897 3.33019 19.3027 3.41206 19.3936 3.51575C19.4844 3.61944 19.5507 3.7423 19.5875 3.87516C19.6243 4.00801 19.6307 4.14746 19.6061 4.28311L17.6679 14.815H24.8193C24.9887 14.8154 25.1547 14.8628 25.2988 14.9519C25.4429 15.041 25.5595 15.1682 25.6356 15.3196C25.7118 15.4709 25.7445 15.6404 25.7302 15.8092C25.7159 15.978 25.6551 16.1395 25.5545 16.2758L15.1663 30.331C15.0419 30.4951 14.8658 30.6126 14.6665 30.6644C14.4672 30.7162 14.2563 30.6994 14.0677 30.6167C13.8791 30.534 13.7238 30.3902 13.6269 30.2084C13.53 30.0267 13.4972 29.8176 13.5336 29.6149L15.4719 19.0927H8.32043C8.15102 19.0922 7.98506 19.0448 7.84096 18.9557C7.69686 18.8666 7.58026 18.7394 7.5041 18.588C7.42794 18.4367 7.39521 18.2672 7.40953 18.0984C7.42386 17.9296 7.48467 17.7681 7.58524 17.6317L17.9734 3.57653C18.0535 3.46761 18.1566 3.37775 18.2755 3.31338Z" fill="#2A7774"/>
</svg>
