<svg width="33" height="33" viewBox="0 0 33 33" fill="none" xmlns="http://www.w3.org/2000/svg">
<rect x="7.90625" y="4.02148" width="2.24192" height="6.51129" rx="0.862277" fill="#2A7774"/>
<rect x="13.0312" y="4.02148" width="2.24192" height="6.51129" rx="0.862277" fill="#2A7774"/>
<rect x="18.0898" y="4.02148" width="2.24192" height="6.51129" rx="0.862277" fill="#2A7774"/>
<path fill-rule="evenodd" clip-rule="evenodd" d="M22.4531 7.87683H21.1417V10.2702C21.1417 10.7464 20.7556 11.1325 20.2794 11.1325H18.2099C17.7337 11.1325 17.3477 10.7464 17.3477 10.2702V7.87683H16.0284V10.2702C16.0284 10.7464 15.6423 11.1325 15.1661 11.1325H13.0967C12.6204 11.1325 12.2344 10.7464 12.2344 10.2702V7.87683H10.921V10.2702C10.921 10.7464 10.5349 11.1325 10.0587 11.1325H7.98923C7.51301 11.1325 7.12695 10.7464 7.12695 10.2702V7.87684C5.2265 7.88205 3.6875 9.42427 3.6875 11.3259V14.1372H29.6119V16.2323H3.6875V26.4277C3.6875 28.3326 5.23172 29.8768 7.13661 29.8768H26.2384C28.1433 29.8768 29.6875 28.3326 29.6875 26.4277V11.3259C29.6875 9.42397 28.148 7.88156 26.2471 7.87684V10.2702C26.2471 10.7464 25.8611 11.1325 25.3849 11.1325H23.3154C22.8392 11.1325 22.4531 10.7464 22.4531 10.2702V7.87683Z" fill="#2A7774"/>
<rect x="23.1484" y="4.02148" width="2.24192" height="6.51129" rx="0.862277" fill="#2A7774"/>
</svg>
