<svg width="33" height="33" viewBox="0 0 33 33" fill="none" xmlns="http://www.w3.org/2000/svg">
<path d="M16.8024 3.40039C14.1228 3.40039 11.5033 4.195 9.27528 5.68373C7.04724 7.17246 5.31069 9.28845 4.28523 11.7641C3.25978 14.2398 2.99147 16.964 3.51424 19.5921C4.03702 22.2203 5.32739 24.6344 7.22219 26.5292C9.11698 28.424 11.5311 29.7143 14.1593 30.2371C16.7874 30.7599 19.5116 30.4916 21.9872 29.4661C24.4629 28.4407 26.5789 26.7041 28.0676 24.4761C29.5564 22.248 30.351 19.6286 30.351 16.9489C30.351 13.3556 28.9235 9.90951 26.3827 7.36866C23.8419 4.82782 20.3957 3.40039 16.8024 3.40039V3.40039ZM21.2365 21.383C21.1259 21.5008 20.9924 21.5947 20.8441 21.6589C20.6958 21.7231 20.5359 21.7562 20.3743 21.7562C20.2127 21.7562 20.0529 21.7231 19.9046 21.6589C19.7563 21.5947 19.6227 21.5008 19.5121 21.383L15.9156 17.8111C15.7857 17.6936 15.6699 17.5614 15.5708 17.417C15.5489 17.2617 15.5489 17.1042 15.5708 16.9489V10.7905C15.5708 10.4638 15.7005 10.1506 15.9315 9.91957C16.1625 9.68858 16.4758 9.55881 16.8024 9.55881C17.1291 9.55881 17.4424 9.68858 17.6734 9.91957C17.9044 10.1506 18.0341 10.4638 18.0341 10.7905V16.4316L21.2365 19.6586C21.3543 19.7692 21.4482 19.9028 21.5124 20.0511C21.5766 20.1993 21.6098 20.3592 21.6098 20.5208C21.6098 20.6824 21.5766 20.8423 21.5124 20.9906C21.4482 21.1388 21.3543 21.2724 21.2365 21.383Z" fill="#2A7774"/>
</svg>
