<svg width="25" height="24" viewBox="0 0 25 24" fill="none" xmlns="http://www.w3.org/2000/svg">
<path d="M6.49571 12.999H3.49609C2.89609 12.999 2.49609 13.399 2.49609 13.999V21.999C2.49609 22.599 2.89609 22.999 3.49609 22.999H6.49571C7.09571 22.999 7.49571 22.599 7.49571 21.999V13.999C7.49571 13.399 7.09571 12.999 6.49571 12.999ZM22.4957 8.99903H19.0957C18.4957 8.99903 18.0957 9.39903 18.0957 9.99903V21.999C18.0957 22.599 18.4957 22.999 19.0957 22.999H22.4957C23.0957 22.999 23.4957 22.599 23.4957 21.999V9.99903C23.4957 9.39903 23.0957 8.99903 22.4957 8.99903ZM14.4957 3.79902H11.2961C10.6961 3.79902 10.2961 4.19902 10.2961 4.79902V21.999C10.2961 22.599 10.6961 22.999 11.2961 22.999H14.4957C15.0957 22.999 15.4957 22.599 15.4957 21.999V4.79902C15.4957 4.19902 15.0957 3.79902 14.4957 3.79902Z" fill="#7D8185"/>
</svg>
