<svg width="32" height="32" viewBox="0 0 32 32" fill="none" xmlns="http://www.w3.org/2000/svg">
<path d="M26.4247 15.9583C26.4236 16.4744 26.3892 16.9891 26.3209 17.5007C26.3326 17.4145 26.3441 17.3283 26.3557 17.2421C26.2487 18.0189 26.0633 18.7818 25.8013 19.5209C25.7394 19.6953 25.6722 19.8679 25.6018 20.0391C25.5321 20.2086 25.7004 19.8085 25.628 19.9767C25.6098 20.0191 25.591 20.0612 25.5723 20.1033C25.5287 20.2014 25.483 20.2986 25.4366 20.3954C25.2716 20.7398 25.087 21.0747 24.8881 21.4006C24.6901 21.725 24.4739 22.0382 24.2445 22.3412C24.1353 22.4853 24.3966 22.146 24.2852 22.2884C24.2572 22.3242 24.2287 22.3597 24.2002 22.3952C24.1433 22.4661 24.0851 22.5361 24.0265 22.6057C23.8996 22.7564 23.7679 22.9031 23.6334 23.047C23.3747 23.3238 23.1007 23.5861 22.8158 23.8358C22.679 23.9557 22.5387 24.0716 22.3963 24.1849C22.342 24.2281 22.1986 24.3379 22.4495 24.1447C22.4134 24.1725 22.377 24.1999 22.3406 24.2272C22.2556 24.291 22.1693 24.3532 22.0825 24.4146C21.722 24.6699 21.3453 24.9019 20.9577 25.1135C20.7697 25.2161 20.5781 25.3123 20.3846 25.4041C20.2875 25.4501 20.1895 25.4942 20.0912 25.5375C19.8628 25.638 20.2656 25.4655 20.1113 25.5297C20.0544 25.5533 19.9972 25.5762 19.9399 25.5989C19.0968 25.9333 18.2124 26.1598 17.3143 26.2836C17.4005 26.272 17.4867 26.2604 17.5729 26.2488C16.5492 26.3855 15.5117 26.3855 14.488 26.2488C14.5742 26.2604 14.6604 26.272 14.7466 26.2836C13.9698 26.1765 13.2069 25.9912 12.4679 25.7291C12.2934 25.6673 12.1208 25.6 11.9496 25.5297C11.7801 25.46 12.1803 25.6282 12.012 25.5558C11.9696 25.5376 11.9275 25.5189 11.8854 25.5002C11.7873 25.4565 11.6901 25.4109 11.5933 25.3645C11.2489 25.1994 10.914 25.0149 10.5881 24.816C10.2637 24.618 9.95053 24.4018 9.64757 24.1724C9.50348 24.0632 9.8427 24.3245 9.70038 24.2131C9.66456 24.185 9.62906 24.1566 9.59355 24.1281C9.52258 24.0712 9.45262 24.013 9.38303 23.9544C9.2323 23.8275 9.08567 23.6958 8.94171 23.5612C8.66491 23.3026 8.40263 23.0285 8.15292 22.7437C8.03297 22.6069 7.91711 22.4665 7.80383 22.3241C7.76065 22.2698 7.65084 22.1265 7.84399 22.3774C7.81623 22.3413 7.78889 22.3049 7.76152 22.2684C7.69767 22.1835 7.63555 22.0972 7.5741 22.0104C7.31884 21.6499 7.08682 21.2732 6.87522 20.8856C6.77257 20.6975 6.67641 20.506 6.58459 20.3124C6.53856 20.2154 6.49448 20.1174 6.45123 20.0191C6.35076 19.7906 6.52317 20.1935 6.45901 20.0391C6.43535 19.9822 6.41253 19.925 6.38981 19.8677C6.05538 19.0246 5.82888 18.1402 5.70514 17.2422C5.7167 17.3283 5.72831 17.4146 5.73988 17.5007C5.60318 16.4771 5.60318 15.4395 5.73988 14.4158C5.72831 14.502 5.7167 14.5882 5.70514 14.6744C5.8122 13.8976 5.99757 13.1348 6.25957 12.3957C6.32144 12.2212 6.38866 12.0487 6.45901 11.8775C6.52866 11.7079 6.36046 12.1081 6.43285 11.9398C6.45106 11.8975 6.46978 11.8554 6.48854 11.8132C6.53217 11.7151 6.57782 11.6179 6.62423 11.5211C6.78927 11.1767 6.97384 10.8419 7.17276 10.516C7.37077 10.1915 7.58695 9.87837 7.81637 9.57541C7.92552 9.43131 7.66425 9.77054 7.77566 9.62821C7.80373 9.59236 7.83218 9.55686 7.86066 9.52139C7.9176 9.45042 7.97579 9.38045 8.03439 9.31087C8.1613 9.16014 8.29303 9.0135 8.42754 8.86954C8.68624 8.59274 8.96023 8.33046 9.24505 8.08076C9.38185 7.9608 9.52227 7.84495 9.66466 7.73166C9.71896 7.68848 9.86233 7.57864 9.61141 7.77182C9.6475 7.74403 9.68391 7.71669 9.72032 7.68935C9.80532 7.62554 9.89162 7.56339 9.97836 7.50193C10.3388 7.24667 10.7156 7.01465 11.1032 6.80305C11.2913 6.7004 11.4828 6.60424 11.6763 6.51246C11.7734 6.4664 11.8714 6.42235 11.9697 6.3791C12.1982 6.2786 11.7953 6.45104 11.9497 6.38684C12.0065 6.36319 12.0638 6.34036 12.121 6.31764C12.9641 5.98321 13.8485 5.75671 14.7466 5.63297C14.6604 5.64454 14.5742 5.65614 14.488 5.66771C15.5117 5.53101 16.5492 5.53101 17.5729 5.66771C17.4867 5.65614 17.4005 5.64454 17.3144 5.63297C18.0911 5.74004 18.854 5.9254 19.5931 6.18741C19.7675 6.24928 19.9401 6.3165 20.1113 6.38684C20.2808 6.45653 19.8807 6.28832 20.0489 6.36068C20.0913 6.37889 20.1334 6.39761 20.1755 6.41637C20.2736 6.46 20.3708 6.50562 20.4676 6.55203C20.812 6.71711 21.1469 6.90164 21.4728 7.10059C21.7972 7.29861 22.1104 7.51479 22.4134 7.7442C22.5575 7.85335 22.2182 7.59208 22.3605 7.70349C22.3964 7.73156 22.4319 7.76001 22.4674 7.7885C22.5383 7.84543 22.6083 7.90362 22.6779 7.96223C22.8286 8.08913 22.9753 8.22082 23.1192 8.35537C23.396 8.61407 23.6583 8.88806 23.908 9.17288C24.0279 9.30969 24.1438 9.45007 24.2571 9.5925C24.3003 9.6468 24.4101 9.79016 24.2169 9.53924C24.2447 9.57534 24.272 9.61174 24.2994 9.64815C24.3632 9.73316 24.4254 9.81941 24.4868 9.90619C24.7421 10.2667 24.9741 10.6434 25.1857 11.031C25.2883 11.2191 25.3845 11.4106 25.4763 11.6041C25.5223 11.7012 25.5664 11.7992 25.6097 11.8975C25.7102 12.126 25.5377 11.7231 25.6019 11.8775C25.6255 11.9344 25.6484 11.9916 25.6711 12.0489C26.0055 12.8919 26.232 13.7763 26.3558 14.6744C26.3442 14.5882 26.3326 14.502 26.321 14.4158C26.3892 14.9274 26.4236 15.4421 26.4247 15.9583C26.4258 16.4885 26.8663 16.931 27.3974 16.931C27.9268 16.931 28.3712 16.4885 28.3701 15.9583C28.3631 12.6264 26.9925 9.3883 24.5936 7.07367C22.1915 4.75605 18.8774 3.49502 15.5425 3.6288C12.2324 3.76161 9.04297 5.25331 6.83739 7.72902C4.61103 10.228 3.45599 13.5867 3.73154 16.9289C4.00292 20.2206 5.58817 23.3429 8.14726 25.4463C10.7398 27.5772 14.1341 28.6246 17.4782 28.2066C19.1664 27.9957 20.7854 27.4722 22.2585 26.6133C23.6972 25.7744 24.9171 24.6421 25.9242 23.323C27.5228 21.2294 28.3645 18.5845 28.3701 15.9583C28.3712 15.428 27.9268 14.9856 27.3974 14.9856C26.8663 14.9856 26.4258 15.428 26.4247 15.9583Z" fill="#44B7B3"/>
<path d="M1.27445 16.9317C3.00359 16.9317 4.73276 16.9317 6.46194 16.9317C6.88113 16.9317 7.30033 16.9317 7.71953 16.9317C8.24975 16.9317 8.69222 16.4893 8.69222 15.959C8.69222 15.4288 8.24975 14.9863 7.71953 14.9863C5.99039 14.9863 4.26122 14.9863 2.53204 14.9863C2.11285 14.9863 1.69365 14.9863 1.27445 14.9863C0.74423 14.9863 0.301758 15.4288 0.301758 15.959C0.301758 16.4893 0.74423 16.9317 1.27445 16.9317Z" fill="#44B7B3"/>
<path d="M24.2813 16.9317C26.0104 16.9317 27.7396 16.9317 29.4687 16.9317C29.8879 16.9317 30.3071 16.9317 30.7263 16.9317C31.2566 16.9317 31.699 16.4893 31.699 15.959C31.699 15.4288 31.2566 14.9863 30.7263 14.9863C28.9972 14.9863 27.268 14.9863 25.5389 14.9863C25.1197 14.9863 24.7005 14.9863 24.2813 14.9863C23.751 14.9863 23.3086 15.4288 23.3086 15.959C23.3086 16.4893 23.751 16.9317 24.2813 16.9317Z" fill="#44B7B3"/>
<path d="M17.003 30.7224C17.003 28.9932 17.003 27.2641 17.003 25.5349C17.003 25.1158 17.003 24.6965 17.003 24.2774C17.003 23.7471 16.5606 23.3047 16.0303 23.3047C15.5001 23.3047 15.0576 23.7471 15.0576 24.2774C15.0576 26.0065 15.0576 27.7357 15.0576 29.4648C15.0576 29.884 15.0576 30.3032 15.0576 30.7224C15.0576 31.2526 15.5001 31.695 16.0303 31.695C16.5605 31.695 17.003 31.2526 17.003 30.7224Z" fill="#44B7B3"/>
<path d="M17.003 7.71468C17.003 5.98551 17.003 4.25633 17.003 2.52716C17.003 2.10796 17.003 1.68877 17.003 1.26957C17.003 0.739347 16.5606 0.296875 16.0303 0.296875C15.5001 0.296875 15.0576 0.739347 15.0576 1.26957C15.0576 2.99874 15.0576 4.72792 15.0576 6.45709C15.0576 6.87629 15.0576 7.29548 15.0576 7.71468C15.0576 8.2449 15.5001 8.68737 16.0303 8.68737C16.5605 8.68737 17.003 8.2449 17.003 7.71468Z" fill="#44B7B3"/>
<ellipse cx="15.8139" cy="15.8608" rx="5.04632" ry="5.04632" fill="#48E1D2"/>
</svg>
