<?xml version="1.0" encoding="UTF-8"?>
<svg width="24" height="25" fill="none" version="1.1" viewBox="0 0 24 25" xmlns="http://www.w3.org/2000/svg">
 <g transform="translate(1.958 4.5003)" fill="#bfc3c8">
  <g id="Subtract">
   <path d="m15.863 1.0284c0.3562-0.34882 0.928-0.34292 1.2773 0.0127 1.8214 1.8582 2.8417 4.357 2.8418 6.959l-0.0117 0.48633c-0.1187 2.4254-1.1225 4.7304-2.8301 6.4726-0.3494 0.3561-0.921 0.3619-1.2773 0.0127-0.356-0.3494-0.3619-0.922-0.0127-1.2783 1.3968-1.4253 2.2182-3.3108 2.3154-5.2949l0.0098-0.39844c-2e-4 -2.1287-0.8352-4.1731-2.3252-5.6934-0.349-0.35645-0.3436-0.92905 0.0127-1.2783z"/>
   <path d="m2.9434 1.0401c0.34923-0.3558 0.92101-0.36135 1.2773-0.01269 0.35639 0.34933 0.36192 0.92186 0.0127 1.2783-1.3967 1.4252-2.2181 3.311-2.3154 5.2949l-0.00977 0.39844c1e-5 2.1286 0.83533 4.173 2.3252 5.6933 0.34933 0.3564 0.34359 0.929-0.0127 1.2784-0.35635 0.3489-0.92802 0.3433-1.2773-0.0127-1.8212-1.8583-2.8418-4.3571-2.8418-6.959l0.011719-0.48633c0.11881-2.4252 1.1226-4.7306 2.8301-6.4727z"/>
   <path d="m6.2373 4.1407c0.35188-0.29279 0.87582-0.27723 1.21 0.0498 0.33412 0.32751 0.36006 0.85115 0.07421 1.209l-0.06152 0.06933-0.12109 0.12891c-0.58631 0.65992-0.91199 1.5146-0.91211 2.4014 1e-5 0.94593 0.37122 1.8546 1.0332 2.5303 0.34934 0.3563 0.34359 0.9289-0.01269 1.2783-0.35646 0.3492-0.92901 0.3437-1.2783-0.0127-0.99322-1.0136-1.5498-2.3768-1.5498-3.7959 1.2e-4 -1.3304 0.48952-2.6116 1.3691-3.6016l0.18067-0.19433z"/>
   <path d="m12.637 4.1915c0.3563-0.34903 0.929-0.34328 1.2783 0.0127 0.9934 1.0135 1.5497 2.3768 1.5498 3.7959 0 1.3306-0.4894 2.6114-1.3691 3.6016l-0.1807 0.1944-0.0683 0.0625c-0.3521 0.2929-0.8758 0.2776-1.21-0.0499-0.3338-0.3275-0.3601-0.8512-0.0742-1.2089l0.0615-0.0694 0.1211-0.1289c0.5864-0.66001 0.9121-1.5144 0.9121-2.4014-1e-4 -0.94597-0.371-1.8547-1.0332-2.5303-0.3489-0.35645-0.3435-0.92906 0.0127-1.2783z"/>
  </g>
  <path id="Vector" d="m10.542 4.341c0-0.31607-0.286-0.57143-0.64004-0.57143-0.354 0-0.64 0.25536-0.64 0.57143v4.5714c0 0.31607 0.286 0.57143 0.64 0.57143 0.35404 0 0.64004-0.25536 0.64004-0.57143zm-0.64004 7.4285c0.21214 0 0.41564-0.0752 0.56564-0.2092 0.1501-0.1339 0.2344-0.3156 0.2344-0.5051 0-0.1894-0.0843-0.3711-0.2344-0.505-0.15-0.134-0.3535-0.2092-0.56564-0.2092-0.21217 0-0.41565 0.0752-0.56568 0.2092-0.15003 0.1339-0.23432 0.3156-0.23432 0.505 0 0.1895 0.08429 0.3712 0.23432 0.5051 0.15003 0.134 0.35351 0.2092 0.56568 0.2092z"/>
 </g>
</svg>
