<svg width="24" height="25" viewBox="0 0 24 25" fill="none" xmlns="http://www.w3.org/2000/svg">
<path fill-rule="evenodd" clip-rule="evenodd" d="M8.40379 12.653C8.39141 12.5316 8.38513 12.4092 8.38513 12.2861C8.38513 11.3399 8.75614 10.4314 9.4185 9.75562C9.76789 9.39917 9.76216 8.82698 9.40572 8.47759C9.04927 8.12821 8.47708 8.13393 8.12769 8.49037C7.13415 9.50399 6.57764 10.8668 6.57764 12.2861C6.57764 12.9277 6.69135 13.5577 6.90773 14.1491L8.40379 12.653ZM5.41358 17.0575C5.4142 17.0584 5.41482 17.0593 5.41544 17.0601L7.3689 15.1066C7.36834 15.1057 7.36778 15.1048 7.36722 15.1038L8.70289 13.7681C8.70334 13.7691 8.7038 13.7702 8.70426 13.7712L18.9322 3.54291C19.3227 3.15237 19.9558 3.15236 20.3464 3.54288C20.7186 3.91512 20.7361 4.50784 20.3987 4.90073L4.86052 20.4394C4.84757 20.4524 4.83547 20.4659 4.82424 20.4798L4.34698 20.9571C3.95646 21.3476 3.3233 21.3476 2.93276 20.9571C2.54223 20.5666 2.54222 19.9334 2.93274 19.5429L4.12421 18.3514C4.12356 18.3506 4.12292 18.3497 4.12228 18.3489L5.41358 17.0575ZM4.86577 16.1911C4.21612 15.0041 3.86706 13.6628 3.86706 12.2861C3.86706 10.1571 4.70182 8.11293 6.19213 6.59251C6.54152 6.23607 6.5358 5.66388 6.17935 5.31449C5.82291 4.9651 5.25072 4.97083 4.90133 5.32727C3.07984 7.18556 2.05957 9.68397 2.05957 12.2861C2.05957 14.1467 2.58118 15.9542 3.54433 17.5126L4.86577 16.1911ZM18.8352 7.87844L20.1372 6.57639C21.3038 8.23862 21.9412 10.2305 21.9412 12.2871C21.9412 14.8893 20.9209 17.3877 19.0994 19.246C18.75 19.6024 18.1778 19.6081 17.8214 19.2588C17.4649 18.9094 17.4592 18.3372 17.8086 17.9807C19.2989 16.4603 20.1337 14.4162 20.1337 12.2871C20.1337 10.7119 19.6767 9.18303 18.8352 7.87844ZM15.4637 11.2501L16.8509 9.8628C17.2238 10.6089 17.4231 11.4379 17.4231 12.2871C17.4231 13.7065 16.8666 15.0693 15.873 16.0829C15.5236 16.4393 14.9515 16.445 14.595 16.0956C14.2386 15.7463 14.2328 15.1741 14.5822 14.8176C15.2446 14.1419 15.6156 13.2334 15.6156 12.2871C15.6156 11.9328 15.5636 11.5837 15.4637 11.2501Z" fill="#CF8E0F"/>
</svg>
