<svg width="24" height="25" viewBox="0 0 24 25" fill="none" xmlns="http://www.w3.org/2000/svg">
<path fill-rule="evenodd" clip-rule="evenodd" d="M6.21264 18.1931C4.72233 16.6726 3.88757 14.6285 3.88757 12.4995C3.88757 10.3705 4.72233 8.32632 6.21264 6.8059C6.56203 6.44945 6.5563 5.87726 6.19986 5.52787C5.84341 5.17849 5.27122 5.18421 4.92184 5.54065C3.10034 7.39895 2.08008 9.89735 2.08008 12.4995C2.08008 15.1016 3.10034 17.6 4.92184 19.4583C5.27122 19.8148 5.84341 19.8205 6.19986 19.4711C6.5563 19.1217 6.56203 18.5495 6.21264 18.1931ZM9.43901 15.03C8.77665 14.3542 8.40564 13.4457 8.40564 12.4995C8.40564 11.5533 8.77665 10.6447 9.43901 9.969C9.78839 9.61255 9.78267 9.04036 9.42623 8.69098C9.06978 8.34159 8.49759 8.34731 8.1482 8.70376C7.15466 9.71737 6.59815 11.0801 6.59815 12.4995C6.59815 13.9188 7.15466 15.2816 8.1482 16.2952C8.49759 16.6517 9.06978 16.6574 9.42623 16.308C9.78267 15.9586 9.78839 15.3864 9.43901 15.03ZM12.9246 12.5027V12.5096C12.9246 13.0087 12.52 13.4133 12.0209 13.4133C11.5217 13.4133 11.1171 13.0087 11.1171 12.5096V12.5005C11.1171 12.4994 11.1171 12.4984 11.1171 12.4973V12.4904C11.1171 11.9913 11.5217 11.5867 12.0209 11.5867C12.52 11.5867 12.9246 11.9913 12.9246 12.4904V12.4995C12.9246 12.5006 12.9246 12.5016 12.9246 12.5027ZM17.8291 6.80694C19.3194 8.32736 20.1542 10.3715 20.1542 12.5005C20.1542 14.6295 19.3194 16.6737 17.8291 18.1941C17.4797 18.5506 17.4854 19.1228 17.8419 19.4721C18.1983 19.8215 18.7705 19.8158 19.1199 19.4594C20.9414 17.6011 21.9617 15.1027 21.9617 12.5005C21.9617 9.8984 20.9414 7.39999 19.1199 5.5417C18.7705 5.18526 18.1983 5.17953 17.8419 5.52892C17.4854 5.87831 17.4797 6.4505 17.8291 6.80694ZM14.6027 9.97005C15.2651 10.6458 15.6361 11.5543 15.6361 12.5005C15.6361 13.4468 15.2651 14.3553 14.6027 15.031C14.2533 15.3875 14.2591 15.9596 14.6155 16.309C14.972 16.6584 15.5442 16.6527 15.8935 16.2963C16.8871 15.2826 17.4436 13.9199 17.4436 12.5005C17.4436 11.0812 16.8871 9.71842 15.8935 8.7048C15.5442 8.34836 14.972 8.34264 14.6155 8.69202C14.2591 9.04141 14.2533 9.6136 14.6027 9.97005Z" fill="#2A7774"/>
</svg>
