<svg width="24" height="25" viewBox="0 0 24 25" fill="none" xmlns="http://www.w3.org/2000/svg">
<path fill-rule="evenodd" clip-rule="evenodd" d="M19.0483 21.3061C19.4396 21.5936 19.9928 21.5604 20.3467 21.2065C20.7372 20.816 20.7372 20.1828 20.3467 19.7923L19.554 18.9997L19.5545 18.9991L18.2717 17.7162L18.2712 17.7169L16.3413 15.7871L16.3418 15.7864L15.0437 14.4884L15.0433 14.4891L13.0519 12.4978L13.0524 12.4972L11.6403 11.0851L11.6397 11.0856L9.62517 9.07118L9.62455 9.06944L9.0766 8.52151L9.07486 8.52089L6.35096 5.79709L6.34977 5.79478L5.96183 5.40685L5.95951 5.40565L4.34668 3.79288C3.95615 3.40236 3.32298 3.40237 2.93247 3.79291C2.54195 4.18344 2.54196 4.8166 2.93249 5.20712L3.33542 5.61003C3.36517 5.62912 3.39335 5.65167 3.41937 5.67769L19.0483 21.3061ZM10.9387 14.611L9.52656 13.1988L8.70426 14.0212L8.70289 14.0181L7.36722 15.3538L7.3689 15.3566L5.41544 17.3101L5.41358 17.3075L4.12228 18.5989L4.12421 18.6014L2.93274 19.7929C2.54222 20.1834 2.54223 20.8166 2.93276 21.2071C3.3233 21.5976 3.95646 21.5976 4.34698 21.2071L4.82424 20.7298C4.83547 20.7159 4.84757 20.7024 4.86052 20.6894L10.9387 14.611ZM8.4133 12.0856L6.93301 10.6054C6.70022 11.2163 6.57764 11.87 6.57764 12.5361C6.57764 13.1777 6.69135 13.8077 6.90773 14.3991L8.40379 12.903C8.39141 12.7816 8.38513 12.6592 8.38513 12.5361C8.38513 12.3847 8.39463 12.2343 8.4133 12.0856ZM4.89882 8.57127L3.57992 7.25242C2.59404 8.82373 2.05957 10.6527 2.05957 12.5361C2.05957 14.3967 2.58118 16.2042 3.54433 17.7626L4.86577 16.4411C4.21612 15.2541 3.86706 13.9128 3.86706 12.5361C3.86706 11.1362 4.22796 9.77302 4.89882 8.57127ZM20.1703 18.2006L18.8665 16.8969C19.688 15.6031 20.1337 14.0928 20.1337 12.5371C20.1337 10.9619 19.6767 9.43303 18.8352 8.12844L20.1372 6.82639C21.3038 8.48862 21.9412 10.4805 21.9412 12.5371C21.9412 14.5743 21.3158 16.5479 20.1703 18.2006ZM17.4231 12.5371C17.4231 13.3661 17.2333 14.1758 16.8774 14.9078L15.4816 13.5121C15.5698 13.1974 15.6156 12.8696 15.6156 12.5371C15.6156 12.1828 15.5636 11.8337 15.4637 11.5001L16.8509 10.1128C17.2238 10.8589 17.4231 11.6879 17.4231 12.5371ZM20.3987 5.15073L13.7595 11.7901L12.3474 10.378L18.9322 3.79291C19.3227 3.40238 19.9558 3.40236 20.3464 3.79288C20.7186 4.16512 20.7361 4.75784 20.3987 5.15073Z" fill="#BFC3C8"/>
</svg>
