<svg width="25" height="25" viewBox="0 0 25 25" fill="none" xmlns="http://www.w3.org/2000/svg">
<path d="M20.8941 9.77587C20.7831 9.93967 20.7174 10.1298 20.7036 10.3271C20.6897 10.5244 20.7283 10.7219 20.8153 10.8995C21.0946 11.5504 21.2911 12.2337 21.4004 12.9333C21.69 14.7425 21.4191 16.5969 20.6241 18.2481C20.5275 18.4293 20.3832 18.5805 20.2067 18.6855C20.0302 18.7905 19.8282 18.8452 19.6228 18.8437H5.39115C5.18456 18.8441 4.98185 18.7877 4.80523 18.6807C4.62861 18.5737 4.4849 18.4201 4.38987 18.2369C3.66971 16.7778 3.3595 15.1508 3.4923 13.5295C3.6251 11.9081 4.19594 10.3531 5.14396 9.03033C6.09198 7.70751 7.38164 6.66642 8.87547 6.01806C10.3693 5.3697 12.0113 5.13836 13.6264 5.34871C14.4436 5.44465 15.2429 5.65653 16.0002 5.97795C16.1781 6.06489 16.3758 6.1034 16.5733 6.08959C16.7708 6.07578 16.9612 6.01014 17.1252 5.8993C17.2961 5.78687 17.433 5.63003 17.5213 5.44565C17.6096 5.26128 17.6458 5.05636 17.6261 4.85294C17.6064 4.64953 17.5316 4.45532 17.4096 4.29123C17.2877 4.12714 17.1232 3.99937 16.934 3.92168C14.7606 2.99092 12.3489 2.7678 10.0414 3.28401C7.73383 3.80023 5.64782 5.02953 4.07965 6.79729C2.51148 8.56506 1.5409 10.7814 1.30577 13.1315C1.07063 15.4816 1.58291 17.8459 2.76983 19.8887C2.96616 20.2283 3.24806 20.5107 3.58753 20.7079C3.927 20.905 4.31221 21.0099 4.70488 21.0123H20.2866C20.6831 21.0139 21.0729 20.9108 21.4167 20.7135C21.7604 20.5162 22.0459 20.2316 22.2441 19.8887C23.1131 18.3846 23.6212 16.6999 23.7285 14.9667C23.8359 13.2335 23.5396 11.499 22.8629 9.89947C22.7772 9.71717 22.644 9.56123 22.4773 9.44796C22.3105 9.33469 22.1164 9.26827 21.9151 9.25564C21.7139 9.243 21.5129 9.28462 21.3333 9.37614C21.1537 9.46766 21.002 9.60572 20.8941 9.77587Z" fill="#2A7774"/>
<path d="M10.9172 12.6866C10.495 13.1083 10.2578 13.6802 10.2578 14.2766C10.2578 14.5718 10.316 14.8642 10.4292 15.137C10.5423 15.4098 10.7082 15.6577 10.9172 15.8665C11.1263 16.0753 11.3744 16.2409 11.6476 16.3539C11.9207 16.4669 12.2135 16.5251 12.5091 16.5251C13.1062 16.5251 13.6788 16.2882 14.101 15.8665L20.4687 6.32678L10.9172 12.6866Z" fill="#2A7774"/>
</svg>
