<svg width="25" height="24" viewBox="0 0 25 24" fill="none" xmlns="http://www.w3.org/2000/svg">
<g clip-path="url(#clip0_10353_42152)">
<path fill-rule="evenodd" clip-rule="evenodd" d="M12.4961 1.99902C18.0191 1.99902 22.4961 6.47602 22.4961 11.999C22.4961 17.522 18.0191 21.999 12.4961 21.999C6.97309 21.999 2.49609 17.522 2.49609 11.999C2.49609 6.47602 6.97309 1.99902 12.4961 1.99902ZM4.70109 13.809C5.05105 15.3114 5.82738 16.6808 6.9368 17.7526C8.04623 18.8244 9.44154 19.5531 10.9551 19.851C10.7621 17.226 9.89909 15.651 8.80909 14.78C7.76509 13.945 6.34909 13.622 4.70109 13.808V13.809ZM16.1831 14.779C15.0931 15.652 14.2301 17.226 14.0371 19.851C15.5508 19.553 16.9462 18.8242 18.0556 17.7522C19.1651 16.6802 19.9413 15.3106 20.2911 13.808C18.6431 13.622 17.2271 13.945 16.1831 14.78V14.779ZM12.4961 3.99902C10.6323 3.99927 8.82698 4.65005 7.39168 5.83907C5.95638 7.02809 4.9811 8.68079 4.63409 10.512L4.59109 10.76L6.80109 10.318C7.38309 10.202 7.93609 9.89502 8.55409 9.47802L9.03109 9.14602C9.82809 8.58002 11.0091 7.99902 12.4961 7.99902C13.8841 7.99902 15.0051 8.50502 15.7961 9.03302L16.4381 9.47802C16.9781 9.84302 17.4701 10.123 17.9741 10.266L18.1911 10.318L20.4011 10.76C20.1053 8.87595 19.1464 7.15946 17.697 5.91986C16.2477 4.68026 14.4032 3.99907 12.4961 3.99902Z" fill="#7D8185"/>
</g>
<defs>
<clipPath id="clip0_10353_42152">
<rect width="24" height="24" fill="white" transform="translate(0.5)"/>
</clipPath>
</defs>
</svg>
